<svg width="50" height="48" viewBox="0 0 50 48" fill="none" xmlns="http://www.w3.org/2000/svg">
<path d="M50 36.4998L49.9999 27.3331C49.9999 25.9521 48.881 24.8332 47.4999 24.8332H47.3707L43.6166 2.65824C43.349 1.47438 42.3369 0.666504 41.17 0.666504H8.83C7.66312 0.666504 6.65102 1.47438 6.39239 2.61266L2.62923 24.8332H2.49997C1.11893 24.8332 0 25.9521 0 27.3331V38.1665H9.92838e-05V42.3331H0V44.8331C0 46.2141 1.11893 47.3331 2.49997 47.3331H8.1366C9.08288 47.3331 9.94883 46.7982 10.3726 45.952L11.3483 43.9997H38.6515L39.6269 45.9507C40.0505 46.7978 40.9164 47.3331 41.8631 47.3331H47.4997C48.8808 47.3331 49.9997 46.2141 49.9997 44.8331V43.9998H49.9998V36.4998H50ZM8.0266 2.93643C8.10384 2.60254 8.4413 2.33318 8.8299 2.33318H41.17C41.5587 2.33318 41.8962 2.60254 41.9823 2.982L45.6804 24.8332H44.1173C43.6159 20.5892 39.3239 17.3332 34.1666 17.3332C30.0866 17.3332 26.5486 19.3713 25 22.324C23.4514 19.3713 19.9133 17.3332 15.8333 17.3332C10.676 17.3332 6.38405 20.5892 5.88256 24.8332H4.31964L8.0266 2.93643ZM42.4348 24.8332H25.8985C26.4114 21.5752 29.8902 18.9998 34.1666 18.9998C38.4431 18.9998 41.9219 21.5752 42.4348 24.8332ZM24.1014 24.8332H7.56522C8.07812 21.5752 11.5569 18.9998 15.8334 18.9998C20.1098 18.9998 23.5885 21.5752 24.1014 24.8332ZM2.49997 26.4998H5.83332H24.1667H25.8333H44.1667H47.5C47.9606 26.4998 48.3333 26.8726 48.3333 27.3331V28.9998H45C44.5397 28.9998 44.1667 29.3729 44.1667 29.8331C44.1667 30.2933 44.5398 30.6664 45 30.6664H48.3333V32.3331H45C44.5397 32.3331 44.1667 32.7062 44.1667 33.1664C44.1667 33.6266 44.5398 33.9996 45 33.9996H48.3333V36.4996H1.66668V33.9996H4.16664C4.62692 33.9996 4.99993 33.6265 4.99993 33.1664C4.99993 32.7061 4.62682 32.3331 4.16664 32.3331H1.66668V30.6664H4.16664C4.62692 30.6664 4.99993 30.2933 4.99993 29.8331C4.99993 29.3729 4.62682 28.9998 4.16664 28.9998H1.66668V27.3331C1.66668 26.8726 2.03939 26.4998 2.49997 26.4998ZM8.88212 45.2064C8.74114 45.488 8.45213 45.6665 8.1367 45.6665H2.49997C2.03939 45.6665 1.66668 45.2938 1.66668 44.8332V43.9999H9.48517L8.88212 45.2064ZM12.1815 42.3331H1.66678V38.1665H48.3333V42.3331H37.8182H12.1815ZM48.3333 44.8332C48.3333 45.2938 47.9606 45.6665 47.5 45.6665H41.8634C41.548 45.6665 41.2592 45.488 41.1179 45.2055L40.515 43.9999H48.3333V44.8332Z" fill="black"/>
<path d="M20.3558 12.0279L24.4643 15.472C24.774 15.7317 25.2254 15.7317 25.5351 15.4719L29.6409 12.0295C30.5733 11.2429 31.2371 10.2225 31.5225 9.09544C31.6591 8.55722 31.6891 8.10618 31.6519 7.75591C31.6483 7.72265 31.6444 7.69276 31.6402 7.66625C31.4286 5.60184 29.8245 4 27.7622 4C26.6715 4 25.6686 4.3887 24.9524 5.07058C24.2668 4.38443 23.317 4 22.2364 4C20.174 4 18.5699 5.60175 18.3584 7.66625C18.3542 7.69276 18.3503 7.72265 18.3467 7.75591C18.3095 8.10618 18.3395 8.55703 18.4762 9.09524C18.7614 10.2223 19.4249 11.2429 20.3558 12.0279ZM20.004 7.93213C20.0046 7.92667 20.0142 7.85658 20.0142 7.85658C20.1341 6.59826 21.0607 5.66668 22.2363 5.66668C23.1526 5.66668 23.8408 6.09528 24.1797 6.84369C24.4752 7.49658 25.4024 7.49658 25.698 6.84369C26.0225 6.12706 26.8103 5.66668 27.7622 5.66668C28.9378 5.66668 29.8645 6.59816 29.9843 7.85658L29.9979 7.94693C30.0112 8.0887 29.9944 8.34148 29.907 8.6859C29.7097 9.46517 29.24 10.1874 28.5682 10.7539L24.9997 13.7459L21.4284 10.7522C20.7585 10.1872 20.2889 9.46508 20.0918 8.6856C20.0042 8.34098 19.9874 8.0886 20.004 7.93213Z" fill="black"/>
</svg>
