<svg width="50" height="50" viewBox="0 0 50 50" fill="none" xmlns="http://www.w3.org/2000/svg">
<g clip-path="url(#clip0_534_941)">
<path d="M14.166 37.5C12.7853 37.5 11.666 38.6193 11.666 40C11.666 41.3807 12.7853 42.5 14.166 42.5C15.5467 42.5 16.666 41.3807 16.666 40C16.666 38.6193 15.5467 37.5 14.166 37.5ZM14.166 40.8333C13.7058 40.8333 13.3327 40.4602 13.3327 40C13.3327 39.5398 13.7058 39.1667 14.166 39.1667C14.6263 39.1667 14.9993 39.5398 14.9993 40C14.9993 40.4602 14.6263 40.8333 14.166 40.8333Z" fill="black"/>
<path d="M49.1667 48.3335H45.63C45.6367 47.949 45.5067 47.5746 45.2633 47.2768C43.6092 45.2785 40.8333 41.3518 40.8333 37.5002V30.5402C41.4287 30.4314 41.9168 30.0054 42.105 29.4302L42.6133 27.8427C42.7475 27.4213 42.7088 26.9639 42.5056 26.5711C42.3024 26.1783 41.9514 25.8824 41.53 25.7485L48.3592 4.34683C48.9188 2.59287 47.9506 0.717316 46.1967 0.157667C44.4427 -0.401981 42.5671 0.566203 42.0075 2.32017L35.18 23.7218C34.3028 23.4458 33.3674 23.9298 33.0858 24.8052L32.58 26.3885C32.4704 26.7356 32.4786 27.1091 32.6033 27.451C30.8607 28.4638 29.2075 29.6233 27.6617 30.9168L28.2675 24.8627C29.2954 24.533 29.9946 23.5796 30 22.5002V20.8335C30 19.4528 28.8807 18.3335 27.5 18.3335H26.6667C26.6812 17.078 26.1224 15.8844 25.1488 15.0916C24.1752 14.2988 22.8932 13.9933 21.6667 14.2618V8.3335C21.6667 5.57208 19.4281 3.3335 16.6667 3.3335C13.9052 3.3335 11.6667 5.57208 11.6667 8.3335V11.3268C10.6424 11.7386 9.73767 12.4004 9.035 13.2518C8.3415 12.764 7.51458 12.5015 6.66667 12.5002C5.26031 12.4976 3.94791 13.2059 3.17815 14.3829C2.4084 15.5598 2.28557 17.0461 2.85167 18.3335H2.5C1.11929 18.3335 0 19.4528 0 20.8335V22.5002C0.00362332 23.5811 0.703159 24.5367 1.7325 24.8668L3.87083 46.2502C4.07623 48.3836 5.87336 50.0092 8.01667 50.0002H21.9833C23.0027 49.9998 23.9861 49.6233 24.745 48.9427C26.4825 49.7827 28.8183 50.0002 31.6667 50.0002H49.1667C49.6269 50.0002 50 49.6271 50 49.1668C50 48.7066 49.6269 48.3335 49.1667 48.3335ZM43.595 2.82683C43.799 2.18292 44.3715 1.72582 45.0446 1.66939C45.7177 1.61296 46.3583 1.96837 46.6667 2.56933C46.8708 2.96161 46.9093 3.41935 46.7733 3.84017L39.9433 25.2418L36.7683 24.2285L43.595 2.82683ZM34.6733 25.3093L41.0242 27.3335L40.5175 28.921L34.1667 26.8968L34.6733 25.3093ZM27.5 20.0002C27.9602 20.0002 28.3333 20.3733 28.3333 20.8335V22.5002C28.3333 22.9604 27.9602 23.3335 27.5 23.3335H21.6667V20.0002H27.5ZM16.6667 20.0002H20V23.3335H16.6667V20.0002ZM22.5 15.8335C23.8807 15.8335 25 16.9528 25 18.3335H21.6667V16.0002C21.9324 15.8958 22.2146 15.8394 22.5 15.8335ZM13.3333 8.3335C13.3333 6.49255 14.8257 5.00017 16.6667 5.00017C18.5076 5.00017 20 6.49255 20 8.3335V14.3102C18.7046 11.8953 16.0505 10.5334 13.3333 10.8893V8.3335ZM4.16667 16.6668C4.16119 15.6226 4.80844 14.6862 5.78718 14.3222C6.76592 13.9583 7.86777 14.2444 8.54583 15.0385C8.7205 15.2394 8.98065 15.3448 9.2459 15.322C9.51115 15.2993 9.74957 15.1512 9.8875 14.9235C10.9454 13.162 12.9741 12.228 15.0003 12.5697C17.0265 12.9114 18.6367 14.4591 19.0583 16.4702C19.1248 16.7883 19.37 17.0388 19.6867 17.1118C19.7898 17.1339 19.8962 17.1356 20 17.1168V18.3335H16.6667V17.5002C16.6667 17.0399 16.2936 16.6668 15.8333 16.6668C15.3731 16.6668 15 17.0399 15 17.5002V33.3335C15.0003 33.558 14.9081 33.7726 14.745 33.9268C14.593 34.0823 14.3841 34.169 14.1667 34.1668C13.7064 34.1668 13.3333 33.7937 13.3333 33.3335V27.5002C13.3265 26.1223 12.2112 25.007 10.8333 25.0002C9.45262 25.0002 8.33333 26.1195 8.33333 27.5002V30.0002C8.33366 30.2246 8.24141 30.4393 8.07833 30.5935C7.92634 30.749 7.71744 30.8357 7.5 30.8335C7.03976 30.8335 6.66667 30.4604 6.66667 30.0002V17.5002C6.66667 17.0399 6.29357 16.6668 5.83333 16.6668C5.3731 16.6668 5 17.0399 5 17.5002V18.3335H4.82667C4.40697 17.8794 4.17165 17.2852 4.16667 16.6668ZM1.66667 20.8335C1.66667 20.3733 2.03976 20.0002 2.5 20.0002H5V23.3335H2.5C2.03976 23.3335 1.66667 22.9604 1.66667 22.5002V20.8335ZM21.9833 48.3335H8.01667C6.7305 48.3394 5.65195 47.3638 5.52917 46.0835L3.42083 25.0002H5V30.0002C5 31.3809 6.11929 32.5002 7.5 32.5002C8.87749 32.4924 9.99226 31.3777 10 30.0002V27.5002C10 27.0399 10.3731 26.6668 10.8333 26.6668C11.0581 26.6663 11.2731 26.7585 11.4275 26.9218C11.582 27.0744 11.6683 27.283 11.6667 27.5002V33.3335C11.6667 34.7142 12.786 35.8335 14.1667 35.8335C15.5442 35.8258 16.6589 34.711 16.6667 33.3335V25.0002H20V26.8202C18.852 27.226 18.1634 28.3999 18.3693 29.5999C18.5752 30.8 19.6157 31.6772 20.8333 31.6772C22.0509 31.6772 23.0914 30.8 23.2973 29.5999C23.5032 28.3999 22.8146 27.226 21.6667 26.8202V25.0002H26.5833L25.8125 32.7043C23.5226 35.1394 22.0734 38.2444 21.6775 41.5635C21.3383 44.2777 21.7608 46.266 22.9775 47.641C23.0758 47.7527 23.1925 47.841 23.2992 47.9427C22.9062 48.1944 22.45 48.3299 21.9833 48.3335ZM21.6667 29.1668C21.6667 29.6271 21.2936 30.0002 20.8333 30.0002C20.3731 30.0002 20 29.6271 20 29.1668C20 28.7066 20.3731 28.3335 20.8333 28.3335C21.2936 28.3335 21.6667 28.7066 21.6667 29.1668ZM42.5 48.3335H38.6067C38.3754 48.1737 38.1356 48.0265 37.8883 47.8927C36.4067 47.0727 34.1667 45.8335 34.1667 41.6668C34.1667 36.3043 36.4042 33.9418 36.4225 33.9227C36.7383 33.5957 36.7338 33.0759 36.4123 32.7545C36.0909 32.433 35.5711 32.4285 35.2442 32.7443C35.1317 32.856 32.5 35.5585 32.5 41.6668C32.5 45.3102 34.0492 47.2293 35.4817 48.3335H31.8983C30.2598 47.5088 29.0408 46.0364 28.5367 44.2727C27.7767 41.1627 29.8408 37.9927 29.8617 37.961C30.1137 37.5779 30.0089 37.0633 29.6272 36.8092C29.2454 36.5552 28.7302 36.6573 28.4742 37.0377C28.3725 37.191 25.9875 40.8285 26.915 44.656C27.2523 46.0252 27.9753 47.2688 28.9983 48.2393C26.9792 48.0727 25.2033 47.6452 24.2267 46.5393C23.3475 45.5393 23.0542 43.9835 23.3308 41.771C24.15 35.2327 28.8933 31.5527 33.9708 28.5835L39.1667 30.2418V37.5002C39.1667 41.8743 42.1817 46.1668 43.9758 48.3335H42.5Z" fill="black"/>
<path d="M7.5 7.5C7.5 6.11929 6.38071 5 5 5C3.61929 5 2.5 6.11929 2.5 7.5C2.5 8.88071 3.61929 10 5 10C5.66304 10 6.29893 9.73661 6.76777 9.26777C7.23661 8.79893 7.5 8.16304 7.5 7.5ZM4.16667 7.5C4.16667 7.03976 4.53976 6.66667 5 6.66667C5.46024 6.66667 5.83333 7.03976 5.83333 7.5C5.83333 7.96024 5.46024 8.33333 5 8.33333C4.53976 8.33333 4.16667 7.96024 4.16667 7.5Z" fill="black"/>
<path d="M27.5 11.667C28.8807 11.667 30 10.5477 30 9.16699C30 7.78628 28.8807 6.66699 27.5 6.66699C26.1193 6.66699 25 7.78628 25 9.16699C25 10.5477 26.1193 11.667 27.5 11.667ZM27.5 8.33366C27.9602 8.33366 28.3333 8.70676 28.3333 9.16699C28.3333 9.62723 27.9602 10.0003 27.5 10.0003C27.0398 10.0003 26.6667 9.62723 26.6667 9.16699C26.6667 8.70676 27.0398 8.33366 27.5 8.33366Z" fill="black"/>
<path d="M24.1673 4.16667C24.6276 4.16667 25.0007 3.79357 25.0007 3.33333C25.0007 2.8731 24.6276 2.5 24.1673 2.5C23.7071 2.5 23.334 2.8731 23.334 3.33333C23.334 3.79357 23.7071 4.16667 24.1673 4.16667Z" fill="black"/>
<path d="M9.99935 4.16667C10.4596 4.16667 10.8327 3.79357 10.8327 3.33333C10.8327 2.8731 10.4596 2.5 9.99935 2.5C9.53911 2.5 9.16602 2.8731 9.16602 3.33333C9.16602 3.79357 9.53911 4.16667 9.99935 4.16667Z" fill="black"/>
</g>
<defs>
<clipPath id="clip0_534_941">
<rect width="50" height="50" fill="white"/>
</clipPath>
</defs>
</svg>
