<svg width="50" height="50" viewBox="0 0 50 50" fill="none" xmlns="http://www.w3.org/2000/svg">
<path d="M39.1667 24.167H34.1667C33.2462 24.167 32.5 24.9132 32.5 25.8337V30.8337C32.5 31.7542 33.2462 32.5004 34.1667 32.5004H43.3334C43.6363 32.5004 43.9154 32.336 44.0623 32.071C44.2092 31.8061 44.2007 31.4822 44.0401 31.2254L39.8734 24.5587C39.7211 24.3149 39.454 24.167 39.1667 24.167ZM34.1667 30.8336V25.8336H38.7051L41.8301 30.8336H34.1667Z" fill="black"/>
<path d="M20.0007 32.5004H26.6674C27.5879 32.5004 28.3341 31.7542 28.3341 30.8337V25.8337C28.3341 24.9132 27.5879 24.167 26.6674 24.167H20.0007C19.0802 24.167 18.334 24.9132 18.334 25.8337V30.8337C18.334 31.7542 19.0802 32.5004 20.0007 32.5004ZM20.0007 25.8337H26.6674V30.8337H20.0007V25.8337Z" fill="black"/>
<path d="M13.3333 24.167H6.6667C5.74619 24.167 5 24.9132 5 25.8337V30.8337C5 31.7542 5.74619 32.5004 6.6667 32.5004H13.3334C14.2539 32.5004 15.0001 31.7542 15.0001 30.8337V25.8337C15 24.9132 14.2538 24.167 13.3333 24.167ZM13.3333 30.8336H6.6667V25.8336H13.3334L13.3333 30.8336Z" fill="black"/>
<path d="M10.8339 35.0005H9.16728C8.70703 35.0005 8.33398 35.3735 8.33398 35.8338C8.33398 36.294 8.70713 36.6671 9.16728 36.6671H10.834C11.2942 36.6671 11.6673 36.294 11.6673 35.8338C11.6673 35.3735 11.2941 35.0005 10.8339 35.0005Z" fill="black"/>
<path d="M22.4993 35.0005C22.0391 35.0005 21.666 35.3735 21.666 35.8338C21.666 36.294 22.0391 36.6671 22.4993 36.6671H24.166C24.6263 36.6671 24.9993 36.294 24.9993 35.8338C24.9993 35.3735 24.6263 35.0005 24.166 35.0005H22.4993Z" fill="black"/>
<path d="M37.5 35.0005H35.8333C35.373 35.0005 35 35.3735 35 35.8338C35 36.294 35.373 36.6671 35.8333 36.6671H37.5C37.9603 36.6671 38.3333 36.294 38.3333 35.8338C38.3333 35.3735 37.9603 35.0005 37.5 35.0005Z" fill="black"/>
<path d="M45.5218 10.1822L41.6676 7.10059V4.16729C41.6676 3.70703 41.2945 3.33398 40.8343 3.33398C40.374 3.33398 40.001 3.70703 40.001 4.16729V7.10059L36.1468 10.1839C35.7873 10.4715 35.7291 10.9961 36.0168 11.3556C36.3044 11.715 36.829 11.7732 37.1885 11.4855L40.001 9.23389V12.9889L39.4118 13.578C39.1952 13.7872 39.1083 14.0971 39.1846 14.3885C39.2608 14.6799 39.4884 14.9073 39.7797 14.9836C40.0711 15.0599 40.3809 14.9729 40.5901 14.7563L40.8343 14.5122L41.0784 14.7563C41.4054 15.0722 41.9252 15.0677 42.2466 14.7462C42.5681 14.4247 42.5726 13.905 42.2567 13.578L41.6676 12.9889V9.23389L44.4801 11.4839C44.8396 11.7715 45.3641 11.7133 45.6518 11.3539C45.9395 10.9944 45.8812 10.4699 45.5218 10.1822Z" fill="black"/>
<path d="M47.5 18.3338C48.8807 18.3338 50 17.2146 50 15.8338V2.50049C50 1.11982 48.8808 0.000488281 47.5 0.000488281H34.1667C32.786 0.000488281 31.6667 1.11973 31.6667 2.50049V15.8338C31.6667 17.2145 32.786 18.3338 34.1667 18.3338H40V20.8454C39.9691 20.8454 39.9408 20.8338 39.91 20.8338H2.5C1.11934 20.8338 0 21.953 0 23.3338V43.3338C0 44.7145 1.11924 45.8338 2.5 45.8338H5.075C5.47939 48.2386 7.56143 49.9997 10 49.9997C12.4386 49.9997 14.5205 48.2386 14.925 45.8338H34.2417C34.6461 48.2386 36.7281 49.9997 39.1667 49.9997C41.6053 49.9997 43.6873 48.2386 44.0917 45.8338H47.5C48.8807 45.8338 50 44.7145 50 43.3338V35.4788C50 35.0103 49.8684 34.5512 49.62 34.1538L42.03 22.0088C41.9262 21.8474 41.8043 21.6983 41.6666 21.5646V18.3338H47.5ZM10 48.3338C8.15908 48.3338 6.6667 46.8414 6.6667 45.0005C6.6667 43.1596 8.15908 41.6672 10 41.6672C11.8409 41.6672 13.3333 43.1596 13.3333 45.0005C13.3333 46.8414 11.8409 48.3338 10 48.3338ZM39.1667 48.3338C37.3258 48.3338 35.8334 46.8414 35.8334 45.0005C35.8334 43.1596 37.3258 41.6672 39.1667 41.6672C41.0076 41.6672 42.5 43.1596 42.5 45.0005C42.5 46.8414 41.0076 48.3338 39.1667 48.3338ZM48.2066 35.0372C48.2895 35.1696 48.3333 35.3227 48.3333 35.4789V40.8339H45.8333C45.373 40.8339 45 41.2069 45 41.6672C45 42.1274 45.373 42.5005 45.8333 42.5005H48.3333V43.3338C48.3333 43.794 47.9603 44.1671 47.5 44.1671H44.0917C43.6873 41.7623 41.6053 40.0013 39.1667 40.0013C36.7281 40.0013 34.6461 41.7623 34.2417 44.1671H14.925C14.5205 41.7623 12.4386 40.0013 10 40.0013C7.56143 40.0013 5.47939 41.7623 5.075 44.1671H2.5C2.03975 44.1671 1.6667 43.794 1.6667 43.3338V42.5005H3.3334C3.79365 42.5005 4.1667 42.1274 4.1667 41.6672C4.1667 41.2069 3.79365 40.8339 3.3334 40.8339H1.6667V23.3339C1.6667 22.8736 2.03975 22.5006 2.5 22.5006H39.91C40.1974 22.4996 40.4646 22.6479 40.6158 22.8923L48.2066 35.0372ZM34.1667 16.6672C33.7064 16.6672 33.3334 16.2941 33.3334 15.8339V2.50049C33.3334 2.04023 33.7064 1.66719 34.1667 1.66719H47.5C47.9603 1.66719 48.3333 2.04023 48.3333 2.50049V15.8338C48.3333 16.294 47.9603 16.6671 47.5 16.6671H34.1667V16.6672Z" fill="black"/>
<path d="M32.5006 40.834H16.6673C16.207 40.834 15.834 41.207 15.834 41.6673C15.834 42.1275 16.207 42.5006 16.6673 42.5006H32.5006C32.9608 42.5006 33.3339 42.1275 33.3339 41.6673C33.3339 41.207 32.9608 40.834 32.5006 40.834Z" fill="black"/>
</svg>
