<svg width="50" height="50" viewBox="0 0 50 50" fill="none" xmlns="http://www.w3.org/2000/svg">
<g clip-path="url(#clip0_534_907)">
<path d="M15.8333 13.3335H10.8333C10.6123 13.3335 10.4004 13.4213 10.2441 13.5776C10.0878 13.7339 10 13.9458 10 14.1668C10 14.3878 10.0878 14.5998 10.2441 14.7561C10.4004 14.9124 10.6123 15.0002 10.8333 15.0002H12.5V20.8335C12.5 21.0545 12.5878 21.2665 12.7441 21.4228C12.9004 21.579 13.1123 21.6668 13.3333 21.6668C13.5543 21.6668 13.7663 21.579 13.9226 21.4228C14.0789 21.2665 14.1667 21.0545 14.1667 20.8335V15.0002H15.8333C16.0543 15.0002 16.2663 14.9124 16.4226 14.7561C16.5789 14.5998 16.6667 14.3878 16.6667 14.1668C16.6667 13.9458 16.5789 13.7339 16.4226 13.5776C16.2663 13.4213 16.0543 13.3335 15.8333 13.3335Z" fill="black"/>
<path d="M24.46 13.3856C24.3575 13.3472 24.2484 13.3293 24.1389 13.333C24.0295 13.3367 23.9218 13.362 23.8221 13.4073C23.7224 13.4527 23.6327 13.5172 23.558 13.5973C23.4832 13.6774 23.425 13.7714 23.3867 13.874L21.6675 18.4598L19.9483 13.8765C19.91 13.7739 19.8519 13.6799 19.7773 13.5999C19.7027 13.5198 19.613 13.4552 19.5134 13.4098C19.4138 13.3644 19.3063 13.339 19.1969 13.3351C19.0875 13.3313 18.9784 13.349 18.8758 13.3873C18.7733 13.4256 18.6793 13.4837 18.5992 13.5584C18.5192 13.633 18.4546 13.7227 18.4091 13.8223C18.3637 13.9218 18.3384 14.0294 18.3345 14.1388C18.3306 14.2482 18.3484 14.3573 18.3867 14.4598L20.8867 21.1265C20.946 21.2857 21.0526 21.4229 21.1922 21.5199C21.3318 21.6168 21.4976 21.6687 21.6675 21.6687C21.8374 21.6687 22.0033 21.6168 22.1428 21.5199C22.2824 21.4229 22.389 21.2857 22.4483 21.1265L24.9483 14.4598C24.987 14.3572 25.0049 14.248 25.0013 14.1385C24.9976 14.0289 24.9724 13.9212 24.927 13.8214C24.8817 13.7216 24.8171 13.6318 24.7369 13.557C24.6568 13.4822 24.5627 13.424 24.46 13.3856Z" fill="black"/>
<path d="M45.8333 8.33333H35V5C34.9987 3.67432 34.4715 2.40332 33.5341 1.46593C32.5967 0.528533 31.3257 0.00132369 30 0L5 0C3.67432 0.00132369 2.40332 0.528533 1.46593 1.46593C0.528533 2.40332 0.00132369 3.67432 0 5L0 30C0.00132369 31.3257 0.528533 32.5967 1.46593 33.5341C2.40332 34.4715 3.67432 34.9987 5 35H30V45.8333C30.0013 46.938 30.4407 47.997 31.2218 48.7781C32.003 49.5593 33.062 49.9987 34.1667 50H45.8333C46.938 49.9987 47.997 49.5593 48.7781 48.7781C49.5593 47.997 49.9987 46.938 50 45.8333V12.5C49.9987 11.3953 49.5593 10.3363 48.7781 9.55518C47.997 8.77407 46.938 8.33466 45.8333 8.33333ZM48.3333 12.5V26.6667H31.6667V12.5C31.6667 11.837 31.9301 11.2011 32.3989 10.7322C32.8677 10.2634 33.5036 10 34.1667 10H45.8333C46.4964 10 47.1323 10.2634 47.6011 10.7322C48.0699 11.2011 48.3333 11.837 48.3333 12.5ZM5 33.3333C4.11594 33.3333 3.2681 32.9821 2.64298 32.357C2.01786 31.7319 1.66667 30.8841 1.66667 30V5C1.66667 4.11594 2.01786 3.2681 2.64298 2.64298C3.2681 2.01786 4.11594 1.66667 5 1.66667H30C30.8841 1.66667 31.7319 2.01786 32.357 2.64298C32.9821 3.2681 33.3333 4.11594 33.3333 5V8.41667C32.3928 8.61008 31.5478 9.12182 30.9406 9.86562C30.3334 10.6094 30.0012 11.5398 30 12.5V33.3333H5ZM45.8333 48.3333H34.1667C33.5036 48.3333 32.8677 48.0699 32.3989 47.6011C31.9301 47.1323 31.6667 46.4964 31.6667 45.8333V28.3333H48.3333V45.8333C48.3333 46.4964 48.0699 47.1323 47.6011 47.6011C47.1323 48.0699 46.4964 48.3333 45.8333 48.3333Z" fill="black"/>
<path d="M39.1673 13.3332H40.834C41.055 13.3332 41.267 13.2454 41.4232 13.0891C41.5795 12.9328 41.6673 12.7209 41.6673 12.4998C41.6673 12.2788 41.5795 12.0669 41.4232 11.9106C41.267 11.7543 41.055 11.6665 40.834 11.6665H39.1673C38.9463 11.6665 38.7343 11.7543 38.5781 11.9106C38.4218 12.0669 38.334 12.2788 38.334 12.4998C38.334 12.7209 38.4218 12.9328 38.5781 13.0891C38.7343 13.2454 38.9463 13.3332 39.1673 13.3332Z" fill="black"/>
<path d="M33.334 22.5C33.334 22.9945 33.4806 23.4778 33.7553 23.8889C34.03 24.3 34.4205 24.6205 34.8773 24.8097C35.3341 24.9989 35.8368 25.0484 36.3217 24.952C36.8067 24.8555 37.2521 24.6174 37.6018 24.2678C37.9514 23.9181 38.1895 23.4727 38.2859 22.9877C38.3824 22.5028 38.3329 22.0001 38.1437 21.5433C37.9545 21.0865 37.634 20.696 37.2229 20.4213C36.8118 20.1466 36.3284 20 35.834 20C35.1709 20 34.5351 20.2634 34.0662 20.7322C33.5974 21.2011 33.334 21.837 33.334 22.5ZM35.834 21.6667C35.9988 21.6667 36.1599 21.7155 36.297 21.8071C36.434 21.8987 36.5408 22.0288 36.6039 22.1811C36.667 22.3334 36.6835 22.5009 36.6513 22.6626C36.6192 22.8242 36.5398 22.9727 36.4232 23.0893C36.3067 23.2058 36.1582 23.2852 35.9966 23.3173C35.8349 23.3495 35.6674 23.333 35.5151 23.2699C35.3628 23.2068 35.2327 23.1 35.1411 22.963C35.0495 22.8259 35.0007 22.6648 35.0007 22.5C35.0007 22.279 35.0884 22.067 35.2447 21.9107C35.401 21.7545 35.613 21.6667 35.834 21.6667Z" fill="black"/>
<path d="M35.834 30C35.3395 30 34.8562 30.1466 34.4451 30.4213C34.0339 30.696 33.7135 31.0865 33.5243 31.5433C33.3351 32.0001 33.2856 32.5028 33.382 32.9877C33.4785 33.4727 33.7166 33.9181 34.0662 34.2678C34.4159 34.6174 34.8613 34.8555 35.3463 34.952C35.8312 35.0484 36.3339 34.9989 36.7907 34.8097C37.2475 34.6205 37.638 34.3 37.9127 33.8889C38.1874 33.4778 38.334 32.9945 38.334 32.5C38.334 31.837 38.0706 31.2011 37.6018 30.7322C37.1329 30.2634 36.497 30 35.834 30ZM35.834 33.3333C35.6692 33.3333 35.5081 33.2845 35.371 33.1929C35.234 33.1013 35.1272 32.9712 35.0641 32.8189C35.001 32.6666 34.9845 32.4991 35.0167 32.3374C35.0488 32.1758 35.1282 32.0273 35.2447 31.9107C35.3613 31.7942 35.5098 31.7148 35.6714 31.6827C35.8331 31.6505 36.0006 31.667 36.1529 31.7301C36.3052 31.7932 36.4353 31.9 36.5269 32.037C36.6184 32.1741 36.6673 32.3352 36.6673 32.5C36.6673 32.721 36.5795 32.933 36.4232 33.0893C36.267 33.2455 36.055 33.3333 35.834 33.3333Z" fill="black"/>
<path d="M35.834 36.6665C35.3395 36.6665 34.8562 36.8131 34.4451 37.0878C34.0339 37.3625 33.7135 37.753 33.5243 38.2098C33.3351 38.6666 33.2856 39.1693 33.382 39.6542C33.4785 40.1392 33.7166 40.5846 34.0662 40.9343C34.4159 41.2839 34.8613 41.522 35.3463 41.6185C35.8312 41.7149 36.3339 41.6654 36.7907 41.4762C37.2475 41.287 37.638 40.9666 37.9127 40.5554C38.1874 40.1443 38.334 39.661 38.334 39.1665C38.334 38.5035 38.0706 37.8676 37.6018 37.3987C37.1329 36.9299 36.497 36.6665 35.834 36.6665ZM35.834 39.9998C35.6692 39.9998 35.5081 39.951 35.371 39.8594C35.234 39.7678 35.1272 39.6377 35.0641 39.4854C35.001 39.3331 34.9845 39.1656 35.0167 39.0039C35.0488 38.8423 35.1282 38.6938 35.2447 38.5772C35.3613 38.4607 35.5098 38.3813 35.6714 38.3492C35.8331 38.317 36.0006 38.3335 36.1529 38.3966C36.3052 38.4597 36.4353 38.5665 36.5269 38.7035C36.6184 38.8406 36.6673 39.0017 36.6673 39.1665C36.6673 39.3875 36.5795 39.5995 36.4232 39.7558C36.267 39.912 36.055 39.9998 35.834 39.9998Z" fill="black"/>
<path d="M44.166 30C43.503 30 42.8671 30.2634 42.3983 30.7322C41.9294 31.2011 41.666 31.837 41.666 32.5V39.1667C41.666 39.8297 41.9294 40.4656 42.3983 40.9344C42.8671 41.4033 43.503 41.6667 44.166 41.6667C44.8291 41.6667 45.4649 41.4033 45.9338 40.9344C46.4026 40.4656 46.666 39.8297 46.666 39.1667V32.5C46.666 31.837 46.4026 31.2011 45.9338 30.7322C45.4649 30.2634 44.8291 30 44.166 30ZM44.166 31.6667C44.387 31.6667 44.599 31.7545 44.7553 31.9107C44.9116 32.067 44.9993 32.279 44.9993 32.5V35H43.3327V32.5C43.3327 32.279 43.4205 32.067 43.5768 31.9107C43.733 31.7545 43.945 31.6667 44.166 31.6667ZM44.166 40C43.945 40 43.733 39.9122 43.5768 39.7559C43.4205 39.5996 43.3327 39.3877 43.3327 39.1667V36.6667H44.9993V39.1667C44.9993 39.3877 44.9116 39.5996 44.7553 39.7559C44.599 39.9122 44.387 40 44.166 40Z" fill="black"/>
<path d="M44.166 25C44.6605 25 45.1438 24.8534 45.5549 24.5787C45.9661 24.304 46.2865 23.9135 46.4757 23.4567C46.6649 22.9999 46.7144 22.4972 46.618 22.0123C46.5215 21.5273 46.2834 21.0819 45.9338 20.7322C45.5842 20.3826 45.1387 20.1445 44.6537 20.048C44.1688 19.9516 43.6661 20.0011 43.2093 20.1903C42.7525 20.3795 42.362 20.7 42.0873 21.1111C41.8126 21.5222 41.666 22.0055 41.666 22.5C41.666 23.163 41.9294 23.7989 42.3982 24.2678C42.8671 24.7366 43.503 25 44.166 25ZM44.166 21.6667C44.3308 21.6667 44.4919 21.7155 44.629 21.8071C44.766 21.8987 44.8728 22.0288 44.9359 22.1811C44.999 22.3334 45.0155 22.5009 44.9833 22.6626C44.9512 22.8242 44.8718 22.9727 44.7553 23.0893C44.6387 23.2058 44.4902 23.2852 44.3286 23.3173C44.1669 23.3495 43.9994 23.333 43.8471 23.2699C43.6948 23.2068 43.5647 23.1 43.4731 22.963C43.3816 22.8259 43.3327 22.6648 43.3327 22.5C43.3327 22.279 43.4205 22.067 43.5768 21.9107C43.733 21.7545 43.945 21.6667 44.166 21.6667Z" fill="black"/>
</g>
<defs>
<clipPath id="clip0_534_907">
<rect width="50" height="50" fill="white"/>
</clipPath>
</defs>
</svg>
