<svg width="50" height="50" viewBox="0 0 50 50" fill="none" xmlns="http://www.w3.org/2000/svg">
<g clip-path="url(#clip0_534_927)">
<path d="M35 5.8335C35 4.45278 33.8807 3.3335 32.5 3.3335H2.5C1.11929 3.3335 0 4.45278 0 5.8335V44.1668C0 45.5475 1.11929 46.6668 2.5 46.6668H45.8333C47.6306 46.672 49.2273 45.5209 49.7904 43.8141C50.3534 42.1073 49.755 40.2321 48.3075 39.1668C49.755 38.1016 50.3534 36.2263 49.7904 34.5196C49.2273 32.8128 47.6306 31.6616 45.8333 31.6668H44.8467C44.9454 31.4 44.9972 31.118 45 30.8335V20.8335C44.9956 19.7778 44.3286 18.8387 43.3333 18.4868V16.6668C43.3333 15.7464 42.5871 15.0002 41.6667 15.0002H40C39.0795 15.0002 38.3333 15.7464 38.3333 16.6668V18.4118C37.9772 18.4949 37.6438 18.6553 37.3567 18.8818L35 20.7668V5.8335ZM32.5 5.00016C32.9602 5.00016 33.3333 5.37326 33.3333 5.8335V11.6668H14.1667V5.00016H32.5ZM2.5 5.00016H12.5V11.6668H1.66667V5.8335C1.66667 5.37326 2.03976 5.00016 2.5 5.00016ZM2.5 45.0002C2.03976 45.0002 1.66667 44.6271 1.66667 44.1668V13.3335H33.3333V31.6668H32.5C30.7028 31.6616 29.106 32.8128 28.543 34.5196C27.9799 36.2263 28.5783 38.1016 30.0258 39.1668C29.1288 39.8203 28.5342 40.8088 28.3773 41.9075C28.2203 43.0062 28.5143 44.1216 29.1925 45.0002H2.5ZM48.3333 42.5002C48.3333 43.8809 47.214 45.0002 45.8333 45.0002H32.5C31.1193 45.0002 30 43.8809 30 42.5002C30 41.1195 31.1193 40.0002 32.5 40.0002H45.8333C47.214 40.0002 48.3333 41.1195 48.3333 42.5002ZM48.3333 35.8335C48.3333 37.2142 47.214 38.3335 45.8333 38.3335H32.5C31.1193 38.3335 30 37.2142 30 35.8335C30 34.4528 31.1193 33.3335 32.5 33.3335H45.8333C46.4964 33.3335 47.1323 33.5969 47.6011 34.0657C48.0699 34.5346 48.3333 35.1705 48.3333 35.8335ZM40 16.6668H41.6667V18.3335H40V16.6668ZM38.3975 20.1827C38.5449 20.0648 38.7279 20.0005 38.9167 20.0002H42.5C42.9602 20.0002 43.3333 20.3733 43.3333 20.8335V30.8335C43.3333 31.2937 42.9602 31.6668 42.5 31.6668H35.8333C35.3731 31.6668 35 31.2937 35 30.8335V22.9002L38.3975 20.1827Z" fill="black"/>
<path d="M4.99935 10.0002H9.16602C9.62625 10.0002 9.99935 9.62707 9.99935 9.16683C9.99935 8.70659 9.62625 8.3335 9.16602 8.3335H4.99935C4.53911 8.3335 4.16602 8.70659 4.16602 9.16683C4.16602 9.62707 4.53911 10.0002 4.99935 10.0002Z" fill="black"/>
<path d="M29.166 10.8335C30.5467 10.8335 31.666 9.71421 31.666 8.3335C31.666 6.95278 30.5467 5.8335 29.166 5.8335C27.7853 5.8335 26.666 6.95278 26.666 8.3335C26.666 9.71421 27.7853 10.8335 29.166 10.8335ZM29.166 7.50016C29.6263 7.50016 29.9993 7.87326 29.9993 8.3335C29.9993 8.79373 29.6263 9.16683 29.166 9.16683C28.7058 9.16683 28.3327 8.79373 28.3327 8.3335C28.3327 7.87326 28.7058 7.50016 29.166 7.50016Z" fill="black"/>
<path d="M24.9993 7.50016C25.4596 7.50016 25.8327 7.12707 25.8327 6.66683C25.8327 6.20659 25.4596 5.8335 24.9993 5.8335C24.5391 5.8335 24.166 6.20659 24.166 6.66683C24.166 7.12707 24.5391 7.50016 24.9993 7.50016Z" fill="black"/>
<path d="M24.9993 10.8337C25.4596 10.8337 25.8327 10.4606 25.8327 10.0003C25.8327 9.54009 25.4596 9.16699 24.9993 9.16699C24.5391 9.16699 24.166 9.54009 24.166 10.0003C24.166 10.4606 24.5391 10.8337 24.9993 10.8337Z" fill="black"/>
<path d="M17.5007 10.8335H20.834C21.7545 10.8335 22.5007 10.0873 22.5007 9.16683V7.50016C22.5007 6.57969 21.7545 5.8335 20.834 5.8335H17.5007C16.5802 5.8335 15.834 6.57969 15.834 7.50016V9.16683C15.834 10.0873 16.5802 10.8335 17.5007 10.8335ZM17.5007 7.50016H20.834V9.16683H17.5007V7.50016Z" fill="black"/>
<path d="M17.5007 17.5C13.4634 17.5036 9.76315 19.7518 7.89982 23.3333H5.83398C4.45327 23.3333 3.33398 24.4526 3.33398 25.8333V30.8333C3.33398 32.2141 4.45327 33.3333 5.83398 33.3333H7.89982C10.3545 38.0514 15.871 40.2899 20.9193 38.6163C25.9675 36.9427 29.0543 31.8521 28.2044 26.602C27.3544 21.3519 22.8191 17.4953 17.5007 17.5ZM5.83398 31.6667C5.37375 31.6667 5.00065 31.2936 5.00065 30.8333V25.8333C5.00065 25.3731 5.37375 25 5.83398 25H7.19732C6.49085 27.1661 6.49085 29.5006 7.19732 31.6667H5.83398ZM17.5007 37.5C12.438 37.5 8.33398 33.3959 8.33398 28.3333C8.33398 23.2707 12.438 19.1667 17.5007 19.1667C22.5633 19.1667 26.6673 23.2707 26.6673 28.3333C26.6613 33.3935 22.5608 37.494 17.5007 37.5Z" fill="black"/>
<path d="M17.5 20.8335C13.3579 20.8335 10 24.1914 10 28.3335C10 32.4756 13.3579 35.8335 17.5 35.8335C21.6421 35.8335 25 32.4756 25 28.3335C24.995 24.1935 21.64 20.8385 17.5 20.8335ZM17.5 34.1668C14.2783 34.1668 11.6667 31.5552 11.6667 28.3335C11.6667 25.1118 14.2783 22.5002 17.5 22.5002C20.7217 22.5002 23.3333 25.1118 23.3333 28.3335C23.3297 31.5536 20.7201 34.1632 17.5 34.1668Z" fill="black"/>
<path d="M39.1673 23.3335C37.3264 23.3335 35.834 24.8259 35.834 26.6668C35.834 28.5078 37.3264 30.0002 39.1673 30.0002C41.0083 30.0002 42.5007 28.5078 42.5007 26.6668C42.5007 24.8259 41.0083 23.3335 39.1673 23.3335ZM39.1673 28.3335C38.2468 28.3335 37.5007 27.5873 37.5007 26.6668C37.5007 25.7464 38.2468 25.0002 39.1673 25.0002C40.0878 25.0002 40.834 25.7464 40.834 26.6668C40.834 27.5873 40.0878 28.3335 39.1673 28.3335Z" fill="black"/>
</g>
<defs>
<clipPath id="clip0_534_927">
<rect width="50" height="50" fill="white"/>
</clipPath>
</defs>
</svg>
