<svg width="50" height="48" viewBox="0 0 50 48" fill="none" xmlns="http://www.w3.org/2000/svg">
<path d="M15.834 28.5835C15.834 31.3449 18.0726 33.5835 20.834 33.5835C23.5954 33.5835 25.834 31.3449 25.834 28.5835C25.834 25.8221 23.5954 23.5835 20.834 23.5835C18.0737 23.5863 15.8367 25.8232 15.834 28.5835ZM24.1673 28.5835C24.1673 30.4244 22.6749 31.9168 20.834 31.9168C18.993 31.9168 17.5007 30.4244 17.5007 28.5835C17.5007 26.7425 18.993 25.2502 20.834 25.2502C22.6749 25.2502 24.1673 26.7425 24.1673 28.5835Z" fill="black"/>
<path d="M28.4941 23.4233C29.5051 23.4231 30.4164 22.814 30.8033 21.88C31.1901 20.9459 30.9764 19.8708 30.2616 19.1558C25.0519 13.9565 16.6163 13.9565 11.4066 19.1558C10.4437 20.1343 10.4499 21.7061 11.4205 22.6769C12.3911 23.6477 13.9629 23.6543 14.9416 22.6917C18.1984 19.4433 23.4698 19.4433 26.7266 22.6917C27.1945 23.1617 27.8309 23.4252 28.4941 23.4233ZM13.7632 21.5125C13.4378 21.8378 12.9103 21.8378 12.5849 21.5125C12.2602 21.1872 12.2602 20.6603 12.5849 20.335C17.144 15.7852 24.5258 15.7852 29.0849 20.335C29.4102 20.6604 29.4102 21.1879 29.0849 21.5133C28.7553 21.8285 28.2361 21.8285 27.9066 21.5133C23.9989 17.6144 17.6726 17.6144 13.7649 21.5133L13.7632 21.5125Z" fill="black"/>
<path d="M32.0302 17.3877C32.6579 18.0376 33.5874 18.2982 34.4615 18.0694C35.3356 17.8406 36.0182 17.158 36.247 16.2839C36.4758 15.4099 36.2151 14.4804 35.5652 13.8527C27.4241 5.72879 14.243 5.72879 6.10189 13.8527C5.13902 14.8311 5.14523 16.403 6.11581 17.3738C7.08639 18.3446 8.65821 18.3512 9.63689 17.3885C15.8251 11.2158 25.8416 11.2155 32.0302 17.3877ZM8.45856 16.2093C8.13314 16.5347 7.60564 16.5347 7.28023 16.2093C6.95546 15.884 6.95546 15.3572 7.28023 15.0318C14.7705 7.5586 26.8966 7.5586 34.3869 15.0318C34.7122 15.3573 34.7122 15.8848 34.3869 16.2102C34.0573 16.5253 33.5381 16.5253 33.2086 16.2102C26.3695 9.38665 15.2976 9.38665 8.45856 16.2102V16.2093Z" fill="black"/>
<path d="M20.8338 0.250137C13.2965 0.227052 6.06192 3.21394 0.736275 8.54764C0.265602 9.0159 0.000976562 9.65246 0.000976562 10.3164C0.000976562 10.9803 0.265602 11.6169 0.736275 12.0851C1.71651 13.0577 3.29771 13.0577 4.27794 12.0851C13.4346 2.97103 28.2354 2.97103 37.3921 12.0851C38.024 12.7176 38.9454 12.965 39.8091 12.734C40.6728 12.503 41.3477 11.8287 41.5795 10.9652C41.8113 10.1017 41.5649 9.18015 40.9329 8.54764C35.6068 3.21361 28.3716 0.2267 20.8338 0.250137ZM39.7554 10.9051C39.4225 11.2215 38.9 11.2215 38.5671 10.9051C28.7597 1.14408 12.9079 1.14408 3.10044 10.9051C2.77132 11.2317 2.2404 11.2317 1.91128 10.9051C1.75479 10.7495 1.66681 10.5379 1.66681 10.3172C1.66681 10.0965 1.75479 9.88493 1.91128 9.7293C12.3761 -0.686164 29.2906 -0.686164 39.7554 9.7293C40.0797 10.0545 40.0797 10.5799 39.7554 10.9051Z" fill="black"/>
<path d="M38.6033 47.6494C38.9666 47.7838 39.3659 47.7838 39.7292 47.6494C49 44.2052 49.9308 33.4169 50 30.1902C50.0163 29.6587 49.7999 29.1466 49.4075 28.7877C49.063 28.4768 48.6006 28.3306 48.14 28.3869C45.1636 28.8722 42.1815 27.5531 40.5383 25.0244C40.2428 24.554 39.7263 24.2686 39.1708 24.2686C38.6154 24.2686 38.0989 24.554 37.8033 25.0244C36.1603 27.5533 33.1781 28.8724 30.2017 28.3869C29.741 28.3301 29.2784 28.4764 28.9342 28.7877C28.5418 29.1466 28.3254 29.6587 28.3417 30.1902C28.4025 33.4169 29.3333 44.2052 38.6033 47.6494ZM30.0058 30.0419C33.5914 30.5847 37.1641 28.9854 39.1475 25.9494C41.1342 28.981 44.707 30.5747 48.29 30.0277C48.3196 30.0639 48.3337 30.1103 48.3292 30.1569C48.27 33.1136 47.4333 42.9944 39.1667 46.0836C30.9 43.0002 30.0633 33.1169 30.0042 30.1602C30 30.0927 30.0225 30.0536 30.0058 30.0419Z" fill="black"/>
<path d="M37.7447 40.8394C37.9009 40.9957 38.1128 41.0835 38.3338 41.0836C38.3616 41.0852 38.3894 41.0852 38.4172 41.0836C38.6654 41.059 38.8895 40.9244 39.028 40.7169L44.028 33.2169C44.2834 32.834 44.1801 32.3165 43.7972 32.0611C43.4143 31.8057 42.8968 31.909 42.6413 32.2919L38.2047 38.9419L36.423 37.1611C36.096 36.8453 35.5763 36.8498 35.2548 37.1712C34.9334 37.4927 34.9289 38.0124 35.2447 38.3394L37.7447 40.8394Z" fill="black"/>
</svg>
