<svg id="Layer_1" style="enable-background:new 0 0 512 512;" version="1.1" viewBox="0 0 512 512" xml:space="preserve" xmlns="http://www.w3.org/2000/svg" xmlns:xlink="http://www.w3.org/1999/xlink"><style type="text/css">
	.st0{fill:#fff;}
</style><g><path class="st0" d="M466.2,304.9c-0.7,0.2-97.2,22.2-209.1,32.8c0,0,0,0,0,0V75c0-6-4.7-11.2-10.7-11.2c-6.1-0.1-11,4.8-11,10.9   v264.9c0,0,0,0,0,0c-66.5,5.3-136.4,5.9-193.7-4.8c0,0,0,0,0,0c-3.3,65.7,43.5,113.5,97.2,113.5h190.6c78,0,141.2-63.2,141.2-141.2   c0,0,0,0,0,0L466.2,304.9C466.2,304.9,466.2,304.9,466.2,304.9z"/><path class="st0" d="M431.2,284.6l-156.3,24.7c-3.3,0.5-6.3-2-6.3-5.4V87.7c0-5.1,6.4-7.4,9.6-3.4l156.3,191.6   C437.2,279.1,435.3,284,431.2,284.6z"/><path class="st0" d="M109.9,314.3l107.1-3.8c2.9-0.1,5.2-2.5,5.2-5.4V156.9c0-5.3-6.8-7.5-9.9-3.1L105.3,305.7   C102.7,309.4,105.4,314.4,109.9,314.3z"/></g></svg>