<svg width="30" height="31" viewBox="0 0 30 31" fill="none" xmlns="http://www.w3.org/2000/svg">
<g clip-path="url(#clip0_534_787)">
<path d="M29.9766 1.48238C29.9661 0.792141 29.4172 0.243233 28.7269 0.232744C27.7466 0.217686 25.1428 0.258408 22.125 0.951634C18.2684 1.83763 15.1608 3.43901 12.8885 5.71122C11.0768 7.52295 9.68134 9.88933 8.74085 12.7447C8.04294 14.8636 7.71159 16.9214 7.55491 18.4614L0.837462 18.922C0.83418 18.9222 0.831016 18.9229 0.827735 18.9232C0.809805 18.9246 0.792051 18.927 0.774356 18.9296C0.76252 18.9312 0.750625 18.9326 0.739024 18.9348C0.72461 18.9374 0.710371 18.941 0.696133 18.9444C0.681602 18.9478 0.66707 18.9509 0.652832 18.955C0.642285 18.9581 0.63209 18.962 0.62166 18.9654C0.604609 18.971 0.5875 18.9765 0.571035 18.9831C0.563008 18.9863 0.555215 18.9903 0.547304 18.9937C0.529316 19.0016 0.511328 19.0094 0.494042 19.0183C0.485605 19.0227 0.477577 19.0278 0.469257 19.0324C0.453261 19.0414 0.437206 19.0502 0.421913 19.0601C0.410312 19.0675 0.399354 19.0759 0.388163 19.084C0.376854 19.092 0.365311 19.0997 0.354413 19.1083C0.340175 19.1195 0.326698 19.1317 0.313104 19.1438C0.305897 19.1503 0.298397 19.1563 0.291424 19.1629C0.27742 19.1762 0.264354 19.1906 0.25117 19.2049C0.245135 19.2115 0.238807 19.2177 0.233006 19.2243C0.221522 19.2376 0.210916 19.2518 0.200194 19.2658C0.193338 19.2747 0.186248 19.2834 0.179744 19.2926C0.171424 19.3044 0.163865 19.3169 0.156131 19.3292C0.148104 19.3419 0.1399 19.3544 0.132518 19.3675C0.126892 19.3775 0.121912 19.3879 0.116639 19.3982C0.10826 19.4145 0.0999978 19.4309 0.092615 19.4478C0.0913845 19.4507 0.0897439 19.4533 0.0885134 19.4563C0.0857009 19.463 0.0837673 19.4698 0.0811306 19.4765C0.0741579 19.4941 0.0674782 19.5117 0.0616774 19.5298C0.0580446 19.541 0.0550563 19.5522 0.0518922 19.5634C0.047439 19.5795 0.0431031 19.5957 0.0395289 19.612C0.036482 19.6259 0.0341382 19.6398 0.0317945 19.6537C0.0295093 19.6675 0.0272241 19.6813 0.0255835 19.6953C0.0235913 19.7121 0.0224194 19.7289 0.0213647 19.7457C0.0206616 19.7572 0.0198999 19.7687 0.0196655 19.7803C0.0192553 19.7993 0.0198413 19.8183 0.0206616 19.8371C0.0209546 19.8443 0.0205444 19.8514 0.0210718 19.8587C0.0213061 19.8619 0.0219507 19.865 0.022185 19.8683C0.0235327 19.885 0.0257593 19.9016 0.0280444 19.918C0.0297437 19.9305 0.0312671 19.9429 0.0334937 19.9551C0.0359546 19.9685 0.0390601 19.9817 0.042107 19.995C0.045564 20.01 0.0489625 20.0251 0.0531813 20.0398C0.0561696 20.0502 0.0596852 20.0604 0.063025 20.0706C0.0685329 20.0874 0.0740993 20.1042 0.0805447 20.1205C0.0840603 20.1294 0.0881033 20.1382 0.0919119 20.147C0.0991189 20.1637 0.106502 20.1802 0.114705 20.1962C0.119392 20.2055 0.124549 20.2145 0.129588 20.2235C0.137791 20.2383 0.146053 20.253 0.155076 20.2672C0.16158 20.2776 0.168611 20.2876 0.175584 20.2977C0.183963 20.3097 0.192401 20.3217 0.201307 20.3334C0.209979 20.3447 0.219061 20.3556 0.228319 20.3665C0.23658 20.3762 0.244901 20.3859 0.253573 20.3952C0.264061 20.4065 0.274901 20.4175 0.286034 20.4283C0.294706 20.4367 0.303436 20.445 0.31246 20.453C0.324003 20.4633 0.33578 20.4733 0.347909 20.4831C0.358046 20.4912 0.368358 20.499 0.378847 20.5067C0.390272 20.5151 0.401815 20.5233 0.413769 20.5312C0.426894 20.5398 0.44037 20.5479 0.453964 20.5559C0.463984 20.5618 0.473945 20.5678 0.484257 20.5733C0.50207 20.5828 0.520351 20.5914 0.538808 20.5997C0.544433 20.6022 0.549648 20.6053 0.555332 20.6077L0.56957 20.6138C0.570449 20.6141 0.571328 20.6145 0.572207 20.6149L6.91342 23.298L9.64367 29.6968C9.64502 29.6999 9.64672 29.7029 9.64806 29.7061C9.65228 29.7156 9.65685 29.7249 9.66136 29.7343C9.66869 29.7494 9.6763 29.7642 9.68439 29.7787C9.68855 29.7862 9.69271 29.7937 9.69711 29.801C9.70882 29.8208 9.72119 29.8399 9.7342 29.8584C9.73554 29.8603 9.73672 29.8623 9.73806 29.8641C9.754 29.8864 9.77099 29.9077 9.78869 29.9281C9.78986 29.9295 9.79109 29.9307 9.79232 29.932C9.80843 29.9503 9.82525 29.9678 9.84259 29.9845C9.8464 29.9882 9.85027 29.9917 9.85414 29.9953C9.87037 30.0104 9.88707 30.0247 9.90418 30.0384C9.90787 30.0413 9.91138 30.0444 9.91508 30.0473C9.93517 30.0628 9.9558 30.0775 9.97707 30.0911C9.9831 30.0949 9.98943 30.0984 9.99558 30.1021C10.0108 30.1113 10.0261 30.1202 10.0418 30.1284C10.0509 30.1333 10.0602 30.1379 10.0695 30.1425C10.0842 30.1495 10.0991 30.156 10.114 30.1623C10.1226 30.1659 10.131 30.1698 10.1398 30.1731C10.1623 30.1817 10.1851 30.1892 10.2083 30.1958C10.2161 30.1981 10.2241 30.1999 10.232 30.202C10.2511 30.2069 10.2704 30.2112 10.2897 30.2149C10.2965 30.2161 10.3031 30.2175 10.3099 30.2186C10.3566 30.2262 10.404 30.2306 10.4519 30.2306C10.4886 30.2306 10.5254 30.2274 10.5623 30.2227C10.5828 30.2201 10.6033 30.2175 10.6233 30.2135C10.6285 30.2124 10.6336 30.2108 10.6388 30.2097C10.6622 30.2046 10.6854 30.1989 10.708 30.192C10.7139 30.1901 10.7197 30.1878 10.7255 30.1859C10.7472 30.1787 10.7686 30.1711 10.7896 30.1623C10.7918 30.1614 10.794 30.1609 10.7962 30.1599C10.8025 30.1572 10.8083 30.1538 10.8146 30.1509C10.8318 30.143 10.849 30.135 10.8656 30.126C10.8766 30.1201 10.8871 30.1139 10.8977 30.1076C10.9106 30.1 10.9235 30.0922 10.936 30.0839C10.9483 30.0758 10.9602 30.0673 10.9721 30.0586C10.9821 30.0512 10.9919 30.0437 11.0016 30.0359C11.0141 30.0258 11.0263 30.0155 11.0381 30.0049C11.0467 29.9972 11.055 29.9893 11.0633 29.9813C11.0748 29.9701 11.086 29.9588 11.0969 29.947C11.1052 29.938 11.1131 29.9287 11.1211 29.9193C11.1306 29.9081 11.14 29.8968 11.1489 29.8851C11.1577 29.8737 11.1658 29.862 11.174 29.8502C11.1811 29.8398 11.1884 29.8294 11.1951 29.8188C11.204 29.8047 11.2121 29.7902 11.2202 29.7755C11.2253 29.7663 11.2306 29.7572 11.2353 29.7478C11.2435 29.7317 11.2507 29.7151 11.2579 29.6985C11.2617 29.6897 11.2658 29.681 11.2693 29.672C11.2757 29.6557 11.2812 29.6389 11.2866 29.6221C11.29 29.6119 11.2935 29.6018 11.2965 29.5914C11.3006 29.5768 11.3039 29.5618 11.3073 29.5469C11.3104 29.5335 11.3136 29.5203 11.316 29.5068C11.3181 29.4949 11.3196 29.4827 11.3212 29.4706C11.3236 29.4537 11.3258 29.4369 11.3272 29.42C11.3274 29.4172 11.328 29.4145 11.3282 29.4117L11.7918 22.6495C13.3291 22.4907 15.3809 22.1573 17.492 21.4591C20.3354 20.5187 22.6927 19.1263 24.4986 17.3202C26.7709 15.0479 28.3723 11.9403 29.2583 8.08375C29.9509 5.06657 29.9914 2.46207 29.9766 1.48238ZM23.256 16.0787C19.5427 19.792 13.916 20.7355 10.8925 20.9675C10.4186 21.0038 10.0625 21.41 10.0832 21.8813L9.82508 25.6462L8.38987 22.2827C8.38589 22.2733 8.38097 22.2648 8.37669 22.2557C8.36978 22.2409 8.36292 22.2261 8.35519 22.2116C8.34857 22.1993 8.3413 22.1876 8.33415 22.1757C8.32659 22.163 8.31909 22.1504 8.31089 22.1382C8.30274 22.126 8.29401 22.1144 8.28534 22.1027C8.27696 22.0914 8.26859 22.0802 8.25962 22.0693C8.25036 22.058 8.24063 22.0473 8.23091 22.0366C8.22136 22.0261 8.21175 22.0156 8.20167 22.0055C8.19165 21.9955 8.18128 21.9862 8.17085 21.9767C8.15995 21.9669 8.14911 21.957 8.13763 21.9477C8.1269 21.939 8.11583 21.9308 8.1047 21.9226C8.0928 21.9137 8.08091 21.905 8.06849 21.8966C8.05653 21.8887 8.04423 21.8815 8.03192 21.8741C8.01962 21.8668 8.00749 21.8594 7.99472 21.8526C7.98089 21.8452 7.96665 21.8387 7.95247 21.8321C7.94286 21.8276 7.93372 21.8225 7.92388 21.8183L4.62656 20.4228L8.4231 20.1625C8.43206 20.1619 8.44067 20.1602 8.44958 20.1593C8.46399 20.1579 8.47829 20.1563 8.49247 20.1542C8.50818 20.1519 8.52364 20.149 8.539 20.1459C8.55142 20.1433 8.56378 20.1407 8.57603 20.1376C8.59308 20.1334 8.60984 20.1286 8.62642 20.1233C8.63632 20.1202 8.64616 20.117 8.65595 20.1136C8.67417 20.1071 8.69204 20.1001 8.70962 20.0925C8.71747 20.0891 8.72521 20.0857 8.73294 20.0822C8.75157 20.0735 8.76974 20.0642 8.78749 20.0544C8.794 20.0508 8.8005 20.0471 8.80695 20.0433C8.82493 20.0327 8.84251 20.0216 8.85956 20.0098C8.86566 20.0056 8.87175 20.0013 8.87773 19.997C8.89425 19.985 8.91031 19.9725 8.92583 19.9594C8.93216 19.9541 8.93831 19.9488 8.94447 19.9433C8.95894 19.9305 8.97294 19.9173 8.98654 19.9036C8.99322 19.8968 8.99972 19.89 9.00617 19.8831C9.01841 19.8699 9.03025 19.8564 9.04167 19.8425C9.04853 19.8341 9.05521 19.8256 9.06177 19.817C9.07197 19.8036 9.08175 19.7899 9.09119 19.7759C9.09775 19.7662 9.10413 19.7564 9.11029 19.7464C9.11884 19.7325 9.12704 19.7183 9.13484 19.7039C9.14058 19.6933 9.14615 19.6827 9.15142 19.6718C9.15874 19.6569 9.16554 19.6419 9.17199 19.6265C9.17656 19.6157 9.18089 19.6049 9.18505 19.5939C9.19121 19.5775 9.19671 19.561 9.20187 19.5443C9.20509 19.5338 9.2082 19.5234 9.21101 19.5127C9.21582 19.4948 9.21992 19.4766 9.22355 19.4584C9.2256 19.4482 9.22753 19.438 9.22923 19.4277C9.23228 19.4089 9.23456 19.3899 9.23644 19.3709C9.23708 19.3645 9.23837 19.3583 9.23884 19.3519C9.46753 16.3194 10.4071 10.6761 14.1303 6.95289C15.5351 5.54804 17.3149 4.42544 19.4433 3.59797C20.0222 5.24499 20.9671 6.7515 22.212 7.99645C23.4569 9.24139 24.9635 10.1862 26.6105 10.7651C25.7834 12.8941 24.6608 14.6739 23.256 16.0787ZM27.5457 7.691C27.4344 8.17504 27.3109 8.64532 27.176 9.10258C25.7833 8.61016 24.5089 7.80912 23.4546 6.75484C22.4003 5.70056 21.5993 4.42614 21.1069 3.03342C21.5641 2.89854 22.0344 2.77502 22.5184 2.66375C24.9472 2.10582 27.0849 1.99859 28.2214 1.9881C28.2108 3.12471 28.1035 5.26245 27.5457 7.691Z" fill="white"/>
<path d="M26.0601 4.16671C26.0396 4.1462 26.018 4.12686 25.9957 4.10876C25.9734 4.09059 25.95 4.0736 25.9266 4.05725C25.9026 4.04143 25.878 4.02678 25.8523 4.01331C25.827 3.99989 25.8013 3.98758 25.775 3.97698C25.7486 3.9659 25.7211 3.95594 25.6942 3.94768C25.6666 3.93948 25.6386 3.93245 25.6104 3.92665C25.5823 3.92073 25.5536 3.91668 25.5249 3.9137C25.4681 3.90784 25.4095 3.90784 25.3522 3.9137C25.3241 3.91668 25.2954 3.92073 25.2673 3.92665C25.2392 3.93251 25.2111 3.93954 25.1836 3.94768C25.1566 3.95594 25.1291 3.9659 25.1027 3.97698C25.0764 3.98758 25.0501 3.99989 25.0248 4.01331C24.9996 4.02678 24.9751 4.04143 24.9511 4.05725C24.9271 4.07366 24.9043 4.09065 24.882 4.10876C24.8597 4.12698 24.8381 4.14631 24.8176 4.16671C24.7976 4.18721 24.7777 4.20831 24.7596 4.23051C24.7414 4.25278 24.7244 4.27616 24.7087 4.30018C24.6929 4.32356 24.6777 4.34876 24.6643 4.37395C24.6513 4.39915 24.639 4.42546 24.6279 4.45182C24.6168 4.47819 24.6074 4.50509 24.5986 4.53262C24.5904 4.56016 24.5834 4.58823 24.5775 4.61636C24.5723 4.64448 24.5676 4.67255 24.5646 4.70126C24.5617 4.72997 24.5605 4.75921 24.5605 4.78792C24.5605 5.01854 24.6543 5.24524 24.8177 5.4086C24.8381 5.42911 24.8598 5.44839 24.882 5.46655C24.9043 5.48472 24.9271 5.50171 24.9511 5.51806C24.9751 5.53388 24.9996 5.54853 25.0248 5.562C25.0501 5.57548 25.0764 5.58779 25.1027 5.59892C25.1291 5.60946 25.1566 5.61948 25.1836 5.62763C25.2111 5.63583 25.2391 5.64345 25.2673 5.64872C25.2954 5.65458 25.3241 5.65868 25.3522 5.66161C25.3809 5.66454 25.4101 5.6663 25.4388 5.6663C25.4675 5.6663 25.4968 5.66454 25.5249 5.66161C25.5536 5.65868 25.5822 5.65458 25.6104 5.64872C25.6385 5.64339 25.6666 5.63577 25.6942 5.62763C25.7211 5.61943 25.7486 5.60941 25.775 5.59892C25.8013 5.58784 25.8271 5.57554 25.8523 5.562C25.878 5.54853 25.9025 5.53388 25.9266 5.51806C25.95 5.50165 25.9734 5.48466 25.9957 5.46655C26.018 5.44833 26.0396 5.42905 26.0601 5.4086C26.2235 5.24524 26.3172 5.0186 26.3172 4.78792C26.3172 4.55665 26.2235 4.33007 26.0601 4.16671Z" fill="white"/>
</g>
<defs>
<clipPath id="clip0_534_787">
<rect width="30" height="30" fill="white" transform="translate(0 0.230469)"/>
</clipPath>
</defs>
</svg>
