<svg width="30" height="31" viewBox="0 0 30 31" fill="none" xmlns="http://www.w3.org/2000/svg">
<g clip-path="url(#clip0_534_771)">
<path d="M14.9999 23.1407C14.711 23.1407 14.4405 22.9986 14.2764 22.7607L4.90148 9.16707C4.71603 8.89818 4.695 8.54867 4.84687 8.25946C4.99869 7.9703 5.29839 7.78918 5.62499 7.78918H24.3749C24.7015 7.78918 25.0011 7.9703 25.153 8.25946C25.3049 8.54867 25.2838 8.89818 25.0984 9.16707L15.7235 22.7607C15.5593 22.9986 15.2889 23.1407 14.9999 23.1407ZM7.29872 9.54699L14.9999 20.7137L22.701 9.54699H7.29872Z" fill="white"/>
<path d="M15 30.2305C14.5146 30.2305 14.1211 29.837 14.1211 29.3516V22.2617C14.1211 21.7763 14.5146 21.3828 15 21.3828C15.4854 21.3828 15.8789 21.7763 15.8789 22.2617V29.3516C15.8789 29.837 15.4854 30.2305 15 30.2305Z" fill="white"/>
<path d="M21.5624 30.2305H8.43749C7.95211 30.2305 7.55859 29.8369 7.55859 29.3516C7.55859 28.8662 7.95211 28.4727 8.43749 28.4727H21.5624C22.0478 28.4727 22.4413 28.8662 22.4413 29.3516C22.4413 29.8369 22.0478 30.2305 21.5624 30.2305Z" fill="white"/>
<path d="M14.9995 17.0471C14.8679 17.0471 14.7343 17.0175 14.6083 16.9548C14.1739 16.7384 13.997 16.2108 14.2135 15.7762L21.7134 0.71772C21.9298 0.28325 22.4574 0.106415 22.892 0.322859C23.3265 0.539245 23.5033 1.06694 23.2869 1.50141L15.7869 16.5599C15.6332 16.8685 15.3224 17.0471 14.9995 17.0471Z" fill="white"/>
<path d="M20.5352 15.1129C20.3677 15.1129 20.1984 15.0651 20.0485 14.9652L18.7307 14.0869C18.1725 13.7146 17.4513 13.7146 16.8934 14.0868C15.7428 14.8538 14.2561 14.8538 13.1057 14.0868C12.5477 13.7148 11.8264 13.7148 11.2683 14.0868L9.95045 14.9652C9.54651 15.2345 9.00089 15.1252 8.73165 14.7214C8.46241 14.3175 8.57163 13.7717 8.97552 13.5025L10.2933 12.6242C11.4436 11.8573 12.9303 11.8573 14.0808 12.6243C14.6389 12.9964 15.36 12.9964 15.9182 12.6243C17.0686 11.8571 18.5554 11.8572 19.7058 12.6244L21.0234 13.5025C21.4274 13.7717 21.5365 14.3174 21.2673 14.7214C21.098 14.9754 20.8192 15.1129 20.5352 15.1129Z" fill="white"/>
</g>
<defs>
<clipPath id="clip0_534_771">
<rect width="30" height="30" fill="white" transform="translate(0 0.230469)"/>
</clipPath>
</defs>
</svg>
