<svg width="40" height="40" viewBox="0 0 40 40" fill="none" xmlns="http://www.w3.org/2000/svg">
<g clip-path="url(#clip0_555_538)">
<path d="M37.6047 8.04457C35.9664 6.26676 33.7338 5.2334 31.3183 5.1348C28.9028 5.03551 26.5933 5.8841 24.8155 7.52246C23.0377 9.16074 22.0044 11.3933 21.9058 13.8089C21.812 16.1037 22.5861 18.2364 23.9346 19.8904L22.1336 21.5501L18.6646 22.5114C18.6571 20.1248 17.5558 17.9011 15.6996 16.4486C16.0915 15.5262 16.3129 14.5329 16.347 13.5256C16.4211 11.3431 15.6408 9.26238 14.1499 7.66676C12.659 6.07113 10.6361 5.15168 8.45357 5.07761C3.95208 4.92324 0.163647 8.46519 0.00567801 12.9696C-0.100103 15.9846 1.27857 20.2562 3.60357 24.1175C5.57755 27.3958 9.11005 31.8991 14.7293 34.7354L15.1098 34.9275L15.5247 34.8302C18.4815 34.1373 23.989 30.9391 26.8574 28.2494C28.6222 26.5946 30.2139 24.7768 31.4736 23.2139C33.5604 23.0965 35.5254 22.2685 37.0825 20.8336C38.8603 19.1953 39.8936 16.9628 39.9922 14.5472C40.0909 12.1318 39.2429 9.82238 37.6047 8.04457ZM25.2543 26.5398C22.7972 28.8438 18.0832 31.6463 15.3941 32.4407C6.42146 27.6839 2.19185 17.5047 2.34794 13.0518V13.0519C2.46068 9.83754 5.16498 7.31176 8.37412 7.42004C9.93091 7.47285 11.374 8.12879 12.4374 9.26699C13.5008 10.4051 14.0575 11.8893 14.0047 13.4461C13.9712 14.4313 13.6872 15.397 13.1831 16.2388L12.5697 17.2632L13.6055 17.8573C15.3464 18.8557 16.3857 20.7198 16.3177 22.7221C16.3086 22.9907 16.2119 23.5771 16.1533 23.8836L15.7972 25.7382L23.3052 23.6576L25.6409 21.5052C26.5352 22.1552 27.5542 22.6461 28.6576 22.9346C27.648 24.1211 26.4904 25.3807 25.2543 26.5398ZM37.6505 14.4518C37.5774 16.2418 36.8116 17.8962 35.4942 19.1103C34.1768 20.3243 32.4653 20.9527 30.6753 20.8796C26.9801 20.7287 24.0965 17.5997 24.2474 13.9045C24.3205 12.1144 25.0863 10.46 26.4037 9.24597C27.6522 8.09535 29.2545 7.4709 30.9422 7.4709C31.0354 7.4709 31.129 7.47277 31.2226 7.4766C33.0126 7.54972 34.667 8.31551 35.8811 9.63293C37.0952 10.9503 37.7236 12.6617 37.6505 14.4518Z" fill="white"/>
<path d="M33.3934 11.9256C32.7917 11.2727 31.9718 10.8932 31.0846 10.8569C30.1973 10.8202 29.3495 11.1321 28.6965 11.7338C28.0436 12.3354 27.6641 13.1554 27.6278 14.0425C27.5916 14.9296 27.9031 15.7778 28.5047 16.4307C29.1064 17.0836 29.9264 17.4631 30.8135 17.4993C30.86 17.5011 30.9061 17.5021 30.9524 17.5021C31.7888 17.5021 32.5829 17.1926 33.2017 16.6225C33.8546 16.0207 34.2341 15.2008 34.2703 14.3137C34.3065 13.4266 33.9951 12.5785 33.3934 11.9256ZM31.6132 14.8989C31.4207 15.0764 31.171 15.1679 30.909 15.1575C30.6475 15.1468 30.4057 15.035 30.2282 14.8424C30.0508 14.6499 29.9589 14.3998 29.9696 14.1382C29.9803 13.8764 30.0923 13.6347 30.2848 13.4573C30.4673 13.2892 30.7014 13.1979 30.9481 13.1979C30.9617 13.1979 30.9753 13.1982 30.989 13.1987C31.2507 13.2094 31.4924 13.3213 31.6698 13.5139C31.8472 13.7064 31.9391 13.9565 31.9284 14.2182C31.9177 14.4797 31.8058 14.7215 31.6132 14.8989Z" fill="white"/>
</g>
<defs>
<clipPath id="clip0_555_538">
<rect width="40" height="40" fill="white"/>
</clipPath>
</defs>
</svg>
