<svg width="30" height="31" viewBox="0 0 30 31" fill="none" xmlns="http://www.w3.org/2000/svg">
<path d="M7.5002 1.16797C3.88239 1.16797 0.937699 4.53266 0.937699 8.66797C0.905464 10.0279 1.23583 11.372 1.89487 12.562C2.5539 13.7521 3.51785 14.7453 4.6877 15.4395V26.4805C4.6877 27.2264 4.98402 27.9418 5.51146 28.4692C6.03891 28.9967 6.75428 29.293 7.5002 29.293C8.24612 29.293 8.96149 28.9967 9.48894 28.4692C10.0164 27.9418 10.3127 27.2264 10.3127 26.4805V15.4395C11.4825 14.7453 12.4465 13.7521 13.1055 12.562C13.7646 11.372 14.0949 10.0279 14.0627 8.66797C14.0627 4.53266 11.118 1.16797 7.5002 1.16797ZM9.01707 13.9827C8.84563 14.0535 8.69907 14.1737 8.59593 14.3279C8.4928 14.4821 8.43773 14.6634 8.4377 14.8489V26.4805C8.4377 26.7291 8.33893 26.9676 8.16311 27.1434C7.9873 27.3192 7.74884 27.418 7.5002 27.418C7.25156 27.418 7.0131 27.3192 6.83729 27.1434C6.66147 26.9676 6.5627 26.7291 6.5627 26.4805V14.8489C6.56267 14.6634 6.5076 14.4821 6.40447 14.3279C6.30133 14.1737 6.15477 14.0535 5.98332 13.9827C4.99508 13.5013 4.16872 12.7421 3.60554 11.7981C3.04237 10.8541 2.76683 9.76625 2.8127 8.66797C2.8127 5.56578 4.91551 3.04297 7.5002 3.04297C10.0849 3.04297 12.1877 5.56578 12.1877 8.66797C12.2336 9.76625 11.958 10.8541 11.3949 11.7981C10.8317 12.7421 10.0053 13.5013 9.01707 13.9827Z" fill="white"/>
<path d="M28.125 1.16797C27.8764 1.16797 27.6379 1.26674 27.4621 1.44256C27.2863 1.61837 27.1875 1.85683 27.1875 2.10547V11.4805C27.1875 12.2264 26.8912 12.9418 26.3637 13.4692C25.8363 13.9967 25.1209 14.293 24.375 14.293C24.1264 14.293 23.8879 14.3917 23.7121 14.5676C23.5363 14.7434 23.4375 14.9818 23.4375 15.2305V26.4805C23.4375 26.7291 23.3387 26.9676 23.1629 27.1434C22.9871 27.3192 22.7486 27.418 22.5 27.418C22.2514 27.418 22.0129 27.3192 21.8371 27.1434C21.6613 26.9676 21.5625 26.7291 21.5625 26.4805V15.2305C21.5625 14.9818 21.4637 14.7434 21.2879 14.5676C21.1121 14.3917 20.8736 14.293 20.625 14.293C19.8791 14.293 19.1637 13.9967 18.6363 13.4692C18.1088 12.9418 17.8125 12.2264 17.8125 11.4805V2.10547C17.8125 1.85683 17.7137 1.61837 17.5379 1.44256C17.3621 1.26674 17.1236 1.16797 16.875 1.16797C16.6264 1.16797 16.3879 1.26674 16.2121 1.44256C16.0363 1.61837 15.9375 1.85683 15.9375 2.10547V11.4805C15.9387 12.5607 16.3123 13.6075 16.9955 14.4443C17.6786 15.2811 18.6294 15.8568 19.6875 16.0742V26.4805C19.6875 27.2264 19.9838 27.9418 20.5113 28.4692C21.0387 28.9967 21.7541 29.293 22.5 29.293C23.2459 29.293 23.9613 28.9967 24.4887 28.4692C25.0162 27.9418 25.3125 27.2264 25.3125 26.4805V16.0742C26.3706 15.8568 27.3214 15.2811 28.0045 14.4443C28.6877 13.6075 29.0613 12.5607 29.0625 11.4805V2.10547C29.0625 1.85683 28.9637 1.61837 28.7879 1.44256C28.6121 1.26674 28.3736 1.16797 28.125 1.16797Z" fill="white"/>
<path d="M20.625 12.418C20.8736 12.418 21.1121 12.3192 21.2879 12.1434C21.4637 11.9676 21.5625 11.7291 21.5625 11.4805V2.10547C21.5625 1.85683 21.4637 1.61837 21.2879 1.44256C21.1121 1.26674 20.8736 1.16797 20.625 1.16797C20.3764 1.16797 20.1379 1.26674 19.9621 1.44256C19.7863 1.61837 19.6875 1.85683 19.6875 2.10547V11.4805C19.6875 11.7291 19.7863 11.9676 19.9621 12.1434C20.1379 12.3192 20.3764 12.418 20.625 12.418Z" fill="white"/>
<path d="M24.375 12.418C24.6236 12.418 24.8621 12.3192 25.0379 12.1434C25.2137 11.9676 25.3125 11.7291 25.3125 11.4805V2.10547C25.3125 1.85683 25.2137 1.61837 25.0379 1.44256C24.8621 1.26674 24.6236 1.16797 24.375 1.16797C24.1264 1.16797 23.8879 1.26674 23.7121 1.44256C23.5363 1.61837 23.4375 1.85683 23.4375 2.10547V11.4805C23.4375 11.7291 23.5363 11.9676 23.7121 12.1434C23.8879 12.3192 24.1264 12.418 24.375 12.418Z" fill="white"/>
</svg>
