<svg width="40" height="40" viewBox="0 0 40 40" fill="none" xmlns="http://www.w3.org/2000/svg">
<g clip-path="url(#clip0_555_545)">
<path d="M38.8281 37.6562H33.2775C35.7152 36.417 37.4896 34.5232 37.4896 31.6289C37.4896 25.8706 30.5019 24.0727 25.2175 23.5118C30.7122 21.2309 32.7909 17.8343 31.8339 14.2623C31.1692 11.7816 29.2843 10.1251 26.2621 9.58422C27.2669 8.56258 27.8083 7.32656 27.8083 6.01258C27.8082 2.04172 23.3368 0 19.7898 0C16.2691 0 11.7714 2.02039 11.7714 6.01258C11.7714 8.39383 13.3816 10.0821 15.4358 11.052C9.13336 13.3255 6.73086 16.9265 7.74633 20.7169C8.12664 22.1363 8.97758 23.3979 10.3602 24.2835C6.26875 25.3235 2.51039 27.4166 2.51039 31.6289C2.51039 34.5235 4.27633 36.4173 6.70391 37.6562H1.17188C0.524687 37.6562 0 38.1809 0 38.8281C0 39.4753 0.524687 40 1.17188 40H38.8281C39.4753 40 40 39.4753 40 38.8281C40 38.1809 39.4753 37.6562 38.8281 37.6562ZM14.1152 6.01258C14.1152 4.02383 16.7138 2.34375 19.7898 2.34375C22.8657 2.34375 25.4645 4.02391 25.4645 6.01258C25.4645 8.00156 22.8658 9.68203 19.7898 9.68203C16.7138 9.68203 14.1152 8.00164 14.1152 6.01258ZM10.0102 20.1103C9.0975 16.7038 12.8645 14.061 18.4688 12.5595C21.9866 11.617 28.4316 10.6212 29.5699 14.8689C30.4877 18.2948 26.6733 20.9294 21.1113 22.4196C11.6195 24.9634 10.265 21.0613 10.0102 20.1103ZM4.85414 31.6289C4.85414 27.8548 10.5162 25.6016 20 25.6016C29.4838 25.6016 35.1459 27.8548 35.1459 31.6289C35.1459 35.403 29.4838 37.6562 20 37.6562C10.5162 37.6562 4.85414 35.403 4.85414 31.6289Z" fill="white"/>
</g>
<defs>
<clipPath id="clip0_555_545">
<rect width="40" height="40" fill="white"/>
</clipPath>
</defs>
</svg>
