<svg width="1292" height="182" viewBox="0 0 1292 182" fill="none" xmlns="http://www.w3.org/2000/svg">
<path d="M0.727273 4.06818V2.09091H25.1875V4.06818H14.0227V37H11.892V4.06818H0.727273ZM34.2983 20.0227V37H32.2188V2.09091H34.2983V14.9602H34.5028C35.1165 13.5966 36.0938 12.5114 37.4347 11.7045C38.7869 10.8864 40.4062 10.4773 42.2926 10.4773C44.054 10.4773 45.6051 10.8523 46.946 11.6023C48.2869 12.3409 49.3324 13.4034 50.0824 14.7898C50.8438 16.1648 51.2244 17.8125 51.2244 19.733V37H49.1619V19.8182C49.1619 17.5795 48.4972 15.7841 47.1676 14.4318C45.8381 13.0795 44.0824 12.4034 41.9006 12.4034C40.4347 12.4034 39.1278 12.7216 37.9801 13.358C36.8324 13.9943 35.929 14.8864 35.2699 16.0341C34.6222 17.1705 34.2983 18.5 34.2983 20.0227ZM70.0384 37.5455C67.6747 37.5455 65.6179 36.9602 63.8679 35.7898C62.1179 34.6193 60.7656 33.017 59.8111 30.983C58.8565 28.9489 58.3793 26.6307 58.3793 24.0284C58.3793 21.4148 58.8565 19.0852 59.8111 17.0398C60.777 14.9943 62.1009 13.3807 63.7827 12.1989C65.4645 11.017 67.3849 10.4261 69.544 10.4261C71.0099 10.4261 72.3963 10.7216 73.7031 11.3125C75.0213 11.892 76.1804 12.733 77.1804 13.8352C78.1918 14.9375 78.9815 16.267 79.5497 17.8239C80.1293 19.3807 80.419 21.1307 80.419 23.0739V24.3693H59.6918V22.4773H78.3395C78.3395 20.5795 77.9531 18.8693 77.1804 17.3466C76.4077 15.8239 75.3565 14.6136 74.027 13.7159C72.6974 12.8182 71.2031 12.3693 69.544 12.3693C67.8054 12.3693 66.2543 12.858 64.8906 13.8352C63.5384 14.8011 62.4645 16.108 61.669 17.7557C60.8849 19.4034 60.4759 21.2443 60.4418 23.2784V24.1307C60.4418 26.3125 60.8224 28.2727 61.5838 30.0114C62.3565 31.7386 63.4588 33.108 64.8906 34.1193C66.3224 35.1193 68.0384 35.6193 70.0384 35.6193C71.4702 35.6193 72.6918 35.3807 73.7031 34.9034C74.7259 34.4148 75.5611 33.8239 76.2088 33.1307C76.8565 32.4375 77.3452 31.767 77.6747 31.1193L79.5668 31.8864C79.169 32.7614 78.5497 33.6364 77.7088 34.5114C76.8793 35.375 75.8224 36.0966 74.5384 36.6761C73.2656 37.2557 71.7656 37.5455 70.0384 37.5455ZM108.77 37L100.93 10.8182H103.111L109.861 33.9489H110.049L116.816 10.8182H118.981L125.731 33.9318H125.901L132.651 10.8182H134.833L126.992 37H124.674L117.992 14.2102H117.77L111.089 37H108.77ZM150.153 37.5455C147.994 37.5455 146.073 36.9659 144.391 35.8068C142.709 34.6364 141.386 33.0284 140.42 30.983C139.454 28.9375 138.971 26.608 138.971 23.9943C138.971 21.3693 139.454 19.0398 140.42 17.0057C141.386 14.9602 142.709 13.3523 144.391 12.1818C146.073 11.0114 147.994 10.4261 150.153 10.4261C152.312 10.4261 154.232 11.0114 155.914 12.1818C157.596 13.3523 158.92 14.9602 159.886 17.0057C160.851 19.0511 161.334 21.3807 161.334 23.9943C161.334 26.608 160.851 28.9375 159.886 30.983C158.92 33.0284 157.596 34.6364 155.914 35.8068C154.232 36.9659 152.312 37.5455 150.153 37.5455ZM150.153 35.6193C151.982 35.6193 153.579 35.1023 154.942 34.0682C156.317 33.0341 157.38 31.6364 158.13 29.875C158.891 28.1136 159.272 26.1534 159.272 23.9943C159.272 21.8352 158.891 19.8807 158.13 18.1307C157.369 16.3693 156.306 14.9716 154.942 13.9375C153.579 12.892 151.982 12.3693 150.153 12.3693C148.323 12.3693 146.726 12.892 145.363 13.9375C143.999 14.9716 142.937 16.3693 142.175 18.1307C141.414 19.8807 141.033 21.8352 141.033 23.9943C141.033 26.1534 141.408 28.1136 142.158 29.875C142.92 31.6364 143.982 33.0341 145.346 34.0682C146.721 35.1023 148.323 35.6193 150.153 35.6193ZM168.498 37V10.8182H170.526V14.9091H170.714C171.282 13.5682 172.242 12.4943 173.594 11.6875C174.947 10.8693 176.486 10.4602 178.214 10.4602C178.395 10.4602 178.577 10.4602 178.759 10.4602C178.941 10.4602 179.111 10.4659 179.27 10.4773V12.5739C179.134 12.5625 178.969 12.5455 178.776 12.5227C178.594 12.4886 178.367 12.4716 178.094 12.4716C176.64 12.4716 175.344 12.7841 174.208 13.4091C173.083 14.0341 172.197 14.8977 171.549 16C170.901 17.0909 170.577 18.3409 170.577 19.75V37H168.498ZM186.937 2.09091V37H184.857V2.09091H186.937ZM204.528 37.5455C202.425 37.5455 200.59 36.9659 199.022 35.8068C197.454 34.6477 196.238 33.0511 195.374 31.017C194.522 28.9716 194.096 26.625 194.096 23.9773C194.096 21.3523 194.528 19.0227 195.391 16.9886C196.266 14.9432 197.488 13.3409 199.056 12.1818C200.624 11.0114 202.454 10.4261 204.545 10.4261C206.045 10.4261 207.346 10.7159 208.448 11.2955C209.562 11.8636 210.494 12.6193 211.244 13.5625C212.005 14.5057 212.584 15.5398 212.982 16.6648H213.187V2.09091H215.249V37H213.238V31.2898H212.982C212.562 32.4148 211.976 33.4545 211.226 34.4091C210.476 35.3523 209.545 36.1136 208.431 36.6932C207.317 37.2614 206.016 37.5455 204.528 37.5455ZM204.715 35.6193C206.488 35.6193 208.005 35.1136 209.266 34.1023C210.539 33.0795 211.511 31.6932 212.181 29.9432C212.863 28.1818 213.204 26.1875 213.204 23.9602C213.204 21.733 212.863 19.75 212.181 18.0114C211.511 16.2614 210.539 14.8864 209.266 13.8864C208.005 12.875 206.488 12.3693 204.715 12.3693C202.92 12.3693 201.38 12.8807 200.096 13.9034C198.823 14.9148 197.846 16.2955 197.164 18.0455C196.494 19.7955 196.158 21.767 196.158 23.9602C196.158 26.1534 196.494 28.1307 197.164 29.892C197.846 31.6534 198.823 33.0511 200.096 34.0852C201.38 35.108 202.92 35.6193 204.715 35.6193ZM226.312 2.09091V13.358H224.334V2.09091H226.312ZM251.322 16.4602L249.396 16.9716C249.089 16.017 248.651 15.1932 248.083 14.5C247.515 13.8068 246.799 13.2727 245.935 12.8977C245.083 12.5114 244.06 12.3182 242.867 12.3182C240.947 12.3182 239.373 12.7955 238.145 13.75C236.93 14.7045 236.322 15.9489 236.322 17.483C236.322 18.733 236.736 19.767 237.566 20.5852C238.395 21.392 239.663 22.0057 241.367 22.4261L245.39 23.4318C247.458 23.9432 249.015 24.7727 250.06 25.9205C251.106 27.0568 251.628 28.4716 251.628 30.1648C251.628 31.608 251.236 32.8864 250.452 34C249.668 35.1136 248.583 35.983 247.197 36.608C245.822 37.233 244.219 37.5455 242.39 37.5455C239.947 37.5455 237.941 36.9773 236.373 35.8409C234.805 34.6932 233.799 33.0511 233.356 30.9148L235.35 30.4034C235.725 32.108 236.503 33.4091 237.685 34.3068C238.878 35.1932 240.441 35.6364 242.373 35.6364C244.509 35.6364 246.231 35.1307 247.538 34.1193C248.856 33.108 249.515 31.8125 249.515 30.233C249.515 29.0284 249.128 28.0114 248.356 27.1818C247.583 26.3523 246.413 25.7443 244.844 25.358L240.668 24.3352C238.532 23.8125 236.93 22.9773 235.861 21.8295C234.793 20.6705 234.259 19.2443 234.259 17.5511C234.259 16.142 234.628 14.9034 235.367 13.8352C236.106 12.767 237.123 11.9318 238.418 11.3295C239.714 10.7273 241.197 10.4261 242.867 10.4261C245.083 10.4261 246.89 10.9489 248.288 11.9943C249.685 13.0398 250.697 14.5284 251.322 16.4602ZM276.388 2.09091V37H274.308V2.09091H276.388ZM291.933 37.5625C290.422 37.5625 289.035 37.2614 287.774 36.6591C286.524 36.0568 285.518 35.1761 284.757 34.017C284.007 32.858 283.632 31.4489 283.632 29.7898C283.632 28.6989 283.825 27.7386 284.211 26.9091C284.598 26.0795 285.194 25.3636 286.001 24.7614C286.808 24.1591 287.842 23.6648 289.103 23.2784C290.365 22.8807 291.871 22.5739 293.621 22.358C294.95 22.1989 296.138 22.0455 297.183 21.8977C298.228 21.7386 299.047 21.4943 299.638 21.1648C300.24 20.8352 300.541 20.3352 300.541 19.6648V18.5739C300.541 16.6648 299.939 15.1477 298.734 14.0227C297.53 12.8977 295.871 12.3352 293.757 12.3352C291.882 12.3352 290.302 12.75 289.018 13.5795C287.746 14.3977 286.853 15.4545 286.342 16.75L284.382 16.017C284.882 14.767 285.603 13.7273 286.547 12.8977C287.501 12.0682 288.592 11.4489 289.819 11.0398C291.058 10.6307 292.353 10.4261 293.706 10.4261C294.876 10.4261 295.99 10.5909 297.047 10.9205C298.115 11.25 299.064 11.75 299.893 12.4205C300.734 13.0909 301.399 13.9489 301.888 14.9943C302.376 16.0284 302.621 17.267 302.621 18.7102V37H300.541V32.2784H300.388C299.933 33.2557 299.308 34.1477 298.513 34.9545C297.728 35.75 296.78 36.3864 295.666 36.8636C294.564 37.3295 293.319 37.5625 291.933 37.5625ZM292.138 35.6364C293.774 35.6364 295.223 35.2386 296.484 34.4432C297.757 33.6364 298.751 32.5341 299.467 31.1364C300.183 29.7386 300.541 28.1534 300.541 26.3807V22.5284C300.28 22.7557 299.899 22.9602 299.399 23.142C298.91 23.3125 298.353 23.4659 297.728 23.6023C297.115 23.7273 296.467 23.8409 295.785 23.9432C295.115 24.0341 294.461 24.1193 293.825 24.1989C291.916 24.4261 290.359 24.7784 289.155 25.2557C287.961 25.7216 287.086 26.3352 286.53 27.0966C285.984 27.858 285.711 28.7784 285.711 29.858C285.711 31.642 286.325 33.0511 287.552 34.0852C288.78 35.1193 290.308 35.6364 292.138 35.6364ZM311.339 37V10.8182H313.368V14.9091H313.555C314.123 13.5682 315.084 12.4943 316.436 11.6875C317.788 10.8693 319.328 10.4602 321.055 10.4602C321.237 10.4602 321.419 10.4602 321.601 10.4602C321.782 10.4602 321.953 10.4659 322.112 10.4773V12.5739C321.976 12.5625 321.811 12.5455 321.618 12.5227C321.436 12.4886 321.209 12.4716 320.936 12.4716C319.481 12.4716 318.186 12.7841 317.05 13.4091C315.925 14.0341 315.038 14.8977 314.39 16C313.743 17.0909 313.419 18.3409 313.419 19.75V37H311.339ZM336.345 47.3636C334.72 47.3636 333.26 47.1477 331.964 46.7159C330.669 46.2955 329.567 45.6932 328.657 44.9091C327.76 44.125 327.072 43.1932 326.595 42.1136L328.334 41.0909C328.72 41.9318 329.271 42.6818 329.987 43.3409C330.703 44 331.589 44.517 332.646 44.892C333.714 45.267 334.947 45.4545 336.345 45.4545C338.868 45.4545 340.862 44.8011 342.328 43.4943C343.805 42.1989 344.544 40.2102 344.544 37.5284V31.017H344.339C343.942 32.1534 343.351 33.1648 342.567 34.0511C341.794 34.9261 340.845 35.6136 339.72 36.1136C338.595 36.6136 337.317 36.8636 335.885 36.8636C333.817 36.8636 331.998 36.3295 330.43 35.2614C328.862 34.1932 327.64 32.6932 326.765 30.7614C325.89 28.8182 325.453 26.5341 325.453 23.9091C325.453 21.2841 325.879 18.9602 326.731 16.9375C327.595 14.9034 328.811 13.3125 330.379 12.1648C331.947 11.0057 333.788 10.4261 335.902 10.4261C337.413 10.4261 338.72 10.7159 339.822 11.2955C340.936 11.8636 341.868 12.6193 342.618 13.5625C343.368 14.5057 343.947 15.5398 344.356 16.6648H344.595V10.8182H346.606V37.6136C346.606 39.7955 346.175 41.608 345.311 43.0511C344.459 44.4943 343.26 45.5739 341.714 46.2898C340.18 47.0057 338.39 47.3636 336.345 47.3636ZM336.072 34.9375C337.822 34.9375 339.328 34.4943 340.589 33.608C341.862 32.7102 342.839 31.4375 343.521 29.7898C344.214 28.1307 344.561 26.1648 344.561 23.892C344.561 21.6875 344.226 19.7159 343.555 17.9773C342.885 16.2386 341.913 14.8693 340.64 13.8693C339.368 12.8693 337.845 12.3693 336.072 12.3693C334.265 12.3693 332.726 12.8807 331.453 13.9034C330.18 14.9148 329.203 16.2898 328.521 18.0284C327.851 19.767 327.515 21.7216 327.515 23.892C327.515 26.0739 327.856 27.9943 328.538 29.6534C329.22 31.3011 330.197 32.5966 331.47 33.5398C332.743 34.4716 334.277 34.9375 336.072 34.9375ZM365.565 37.5455C363.202 37.5455 361.145 36.9602 359.395 35.7898C357.645 34.6193 356.292 33.017 355.338 30.983C354.383 28.9489 353.906 26.6307 353.906 24.0284C353.906 21.4148 354.383 19.0852 355.338 17.0398C356.304 14.9943 357.628 13.3807 359.309 12.1989C360.991 11.017 362.912 10.4261 365.071 10.4261C366.537 10.4261 367.923 10.7216 369.23 11.3125C370.548 11.892 371.707 12.733 372.707 13.8352C373.719 14.9375 374.508 16.267 375.077 17.8239C375.656 19.3807 375.946 21.1307 375.946 23.0739V24.3693H355.219V22.4773H373.866C373.866 20.5795 373.48 18.8693 372.707 17.3466C371.934 15.8239 370.883 14.6136 369.554 13.7159C368.224 12.8182 366.73 12.3693 365.071 12.3693C363.332 12.3693 361.781 12.858 360.417 13.8352C359.065 14.8011 357.991 16.108 357.196 17.7557C356.412 19.4034 356.003 21.2443 355.969 23.2784V24.1307C355.969 26.3125 356.349 28.2727 357.111 30.0114C357.883 31.7386 358.986 33.108 360.417 34.1193C361.849 35.1193 363.565 35.6193 365.565 35.6193C366.997 35.6193 368.219 35.3807 369.23 34.9034C370.253 34.4148 371.088 33.8239 371.736 33.1307C372.383 32.4375 372.872 31.767 373.202 31.1193L375.094 31.8864C374.696 32.7614 374.077 33.6364 373.236 34.5114C372.406 35.375 371.349 36.0966 370.065 36.6761C368.792 37.2557 367.292 37.5455 365.565 37.5455ZM399.741 16.4602L397.815 16.9716C397.508 16.017 397.071 15.1932 396.503 14.5C395.934 13.8068 395.219 13.2727 394.355 12.8977C393.503 12.5114 392.48 12.3182 391.287 12.3182C389.366 12.3182 387.792 12.7955 386.565 13.75C385.349 14.7045 384.741 15.9489 384.741 17.483C384.741 18.733 385.156 19.767 385.986 20.5852C386.815 21.392 388.082 22.0057 389.787 22.4261L393.809 23.4318C395.878 23.9432 397.434 24.7727 398.48 25.9205C399.525 27.0568 400.048 28.4716 400.048 30.1648C400.048 31.608 399.656 32.8864 398.872 34C398.088 35.1136 397.003 35.983 395.616 36.608C394.241 37.233 392.639 37.5455 390.809 37.5455C388.366 37.5455 386.361 36.9773 384.792 35.8409C383.224 34.6932 382.219 33.0511 381.775 30.9148L383.77 30.4034C384.145 32.108 384.923 33.4091 386.105 34.3068C387.298 35.1932 388.861 35.6364 390.792 35.6364C392.929 35.6364 394.65 35.1307 395.957 34.1193C397.275 33.108 397.934 31.8125 397.934 30.233C397.934 29.0284 397.548 28.0114 396.775 27.1818C396.003 26.3523 394.832 25.7443 393.264 25.358L389.088 24.3352C386.952 23.8125 385.349 22.9773 384.281 21.8295C383.213 20.6705 382.679 19.2443 382.679 17.5511C382.679 16.142 383.048 14.9034 383.787 13.8352C384.525 12.767 385.542 11.9318 386.838 11.3295C388.133 10.7273 389.616 10.4261 391.287 10.4261C393.503 10.4261 395.309 10.9489 396.707 11.9943C398.105 13.0398 399.116 14.5284 399.741 16.4602ZM416.501 10.8182V12.6761H405.064V10.8182H416.501ZM408.933 4.54545H410.996V30.8125C410.996 31.8807 411.2 32.7557 411.609 33.4375C412.03 34.108 412.575 34.608 413.246 34.9375C413.927 35.2557 414.655 35.4148 415.427 35.4148C415.802 35.4148 416.126 35.3864 416.399 35.3295C416.683 35.2727 416.95 35.1989 417.2 35.108L417.711 37C417.393 37.1136 417.041 37.2102 416.655 37.2898C416.268 37.3807 415.814 37.4261 415.291 37.4261C414.2 37.4261 413.166 37.1818 412.189 36.6932C411.223 36.2045 410.439 35.4943 409.836 34.5625C409.234 33.6307 408.933 32.5057 408.933 31.1875V4.54545ZM439.696 37V10.8182H441.725V14.7727H441.929C442.429 13.4545 443.293 12.4091 444.52 11.6364C445.748 10.8636 447.225 10.4773 448.952 10.4773C450.85 10.4773 452.378 10.9318 453.537 11.8409C454.708 12.75 455.549 13.983 456.06 15.5398H456.248C456.759 14.0057 457.674 12.7784 458.992 11.858C460.321 10.9375 461.958 10.4773 463.901 10.4773C466.435 10.4773 468.367 11.2784 469.696 12.8807C471.037 14.4716 471.708 16.6534 471.708 19.4261V37H469.628V19.4261C469.628 17.2443 469.106 15.5284 468.06 14.2784C467.015 13.0284 465.481 12.4034 463.458 12.4034C461.299 12.4034 459.64 13.0795 458.481 14.4318C457.321 15.7841 456.742 17.5057 456.742 19.5966V37H454.662V19.2898C454.662 17.2557 454.151 15.6023 453.128 14.3295C452.106 13.0455 450.571 12.4034 448.526 12.4034C447.14 12.4034 445.941 12.7216 444.929 13.358C443.929 13.9943 443.151 14.8693 442.594 15.983C442.049 17.0966 441.776 18.375 441.776 19.8182V37H439.696ZM487.275 37.5625C485.763 37.5625 484.377 37.2614 483.115 36.6591C481.865 36.0568 480.86 35.1761 480.098 34.017C479.348 32.858 478.973 31.4489 478.973 29.7898C478.973 28.6989 479.167 27.7386 479.553 26.9091C479.939 26.0795 480.536 25.3636 481.343 24.7614C482.15 24.1591 483.184 23.6648 484.445 23.2784C485.706 22.8807 487.212 22.5739 488.962 22.358C490.292 22.1989 491.479 22.0455 492.525 21.8977C493.57 21.7386 494.388 21.4943 494.979 21.1648C495.581 20.8352 495.883 20.3352 495.883 19.6648V18.5739C495.883 16.6648 495.28 15.1477 494.076 14.0227C492.871 12.8977 491.212 12.3352 489.098 12.3352C487.223 12.3352 485.644 12.75 484.36 13.5795C483.087 14.3977 482.195 15.4545 481.684 16.75L479.723 16.017C480.223 14.767 480.945 13.7273 481.888 12.8977C482.843 12.0682 483.934 11.4489 485.161 11.0398C486.4 10.6307 487.695 10.4261 489.047 10.4261C490.218 10.4261 491.331 10.5909 492.388 10.9205C493.456 11.25 494.405 11.75 495.235 12.4205C496.076 13.0909 496.74 13.9489 497.229 14.9943C497.718 16.0284 497.962 17.267 497.962 18.7102V37H495.883V32.2784H495.729C495.275 33.2557 494.65 34.1477 493.854 34.9545C493.07 35.75 492.121 36.3864 491.008 36.8636C489.905 37.3295 488.661 37.5625 487.275 37.5625ZM487.479 35.6364C489.115 35.6364 490.564 35.2386 491.826 34.4432C493.098 33.6364 494.093 32.5341 494.809 31.1364C495.525 29.7386 495.883 28.1534 495.883 26.3807V22.5284C495.621 22.7557 495.24 22.9602 494.74 23.142C494.252 23.3125 493.695 23.4659 493.07 23.6023C492.456 23.7273 491.809 23.8409 491.127 23.9432C490.456 24.0341 489.803 24.1193 489.167 24.1989C487.258 24.4261 485.701 24.7784 484.496 25.2557C483.303 25.7216 482.428 26.3352 481.871 27.0966C481.326 27.858 481.053 28.7784 481.053 29.858C481.053 31.642 481.667 33.0511 482.894 34.0852C484.121 35.1193 485.65 35.6364 487.479 35.6364ZM508.76 20.0227V37H506.681V10.8182H508.709V14.9602H508.914C509.527 13.608 510.51 12.5227 511.863 11.7045C513.215 10.8864 514.823 10.4773 516.686 10.4773C518.448 10.4773 519.993 10.8523 521.323 11.6023C522.664 12.3523 523.709 13.4205 524.459 14.8068C525.221 16.1818 525.601 17.8239 525.601 19.733V37H523.522V19.8182C523.522 17.5909 522.857 15.8011 521.527 14.4489C520.209 13.0852 518.465 12.4034 516.294 12.4034C514.84 12.4034 513.544 12.7216 512.408 13.358C511.272 13.9943 510.38 14.8864 509.732 16.0341C509.084 17.1705 508.76 18.5 508.76 20.0227ZM543.686 47.3636C542.061 47.3636 540.601 47.1477 539.306 46.7159C538.01 46.2955 536.908 45.6932 535.999 44.9091C535.101 44.125 534.414 43.1932 533.936 42.1136L535.675 41.0909C536.061 41.9318 536.613 42.6818 537.329 43.3409C538.044 44 538.931 44.517 539.988 44.892C541.056 45.267 542.289 45.4545 543.686 45.4545C546.209 45.4545 548.204 44.8011 549.669 43.4943C551.147 42.1989 551.885 40.2102 551.885 37.5284V31.017H551.681C551.283 32.1534 550.692 33.1648 549.908 34.0511C549.135 34.9261 548.186 35.6136 547.061 36.1136C545.936 36.6136 544.658 36.8636 543.226 36.8636C541.158 36.8636 539.34 36.3295 537.772 35.2614C536.204 34.1932 534.982 32.6932 534.107 30.7614C533.232 28.8182 532.794 26.5341 532.794 23.9091C532.794 21.2841 533.221 18.9602 534.073 16.9375C534.936 14.9034 536.152 13.3125 537.721 12.1648C539.289 11.0057 541.13 10.4261 543.243 10.4261C544.755 10.4261 546.061 10.7159 547.164 11.2955C548.277 11.8636 549.209 12.6193 549.959 13.5625C550.709 14.5057 551.289 15.5398 551.698 16.6648H551.936V10.8182H553.948V37.6136C553.948 39.7955 553.516 41.608 552.652 43.0511C551.8 44.4943 550.601 45.5739 549.056 46.2898C547.522 47.0057 545.732 47.3636 543.686 47.3636ZM543.414 34.9375C545.164 34.9375 546.669 34.4943 547.931 33.608C549.204 32.7102 550.181 31.4375 550.863 29.7898C551.556 28.1307 551.902 26.1648 551.902 23.892C551.902 21.6875 551.567 19.7159 550.897 17.9773C550.226 16.2386 549.255 14.8693 547.982 13.8693C546.709 12.8693 545.186 12.3693 543.414 12.3693C541.607 12.3693 540.067 12.8807 538.794 13.9034C537.522 14.9148 536.544 16.2898 535.863 18.0284C535.192 19.767 534.857 21.7216 534.857 23.892C534.857 26.0739 535.198 27.9943 535.88 29.6534C536.561 31.3011 537.539 32.5966 538.811 33.5398C540.084 34.4716 541.618 34.9375 543.414 34.9375ZM562.696 37V10.8182H564.725V14.9091H564.912C565.481 13.5682 566.441 12.4943 567.793 11.6875C569.145 10.8693 570.685 10.4602 572.412 10.4602C572.594 10.4602 572.776 10.4602 572.958 10.4602C573.14 10.4602 573.31 10.4659 573.469 10.4773V12.5739C573.333 12.5625 573.168 12.5455 572.975 12.5227C572.793 12.4886 572.566 12.4716 572.293 12.4716C570.838 12.4716 569.543 12.7841 568.407 13.4091C567.282 14.0341 566.395 14.8977 565.748 16C565.1 17.0909 564.776 18.3409 564.776 19.75V37H562.696ZM587.992 37.5455C585.833 37.5455 583.912 36.9659 582.231 35.8068C580.549 34.6364 579.225 33.0284 578.259 30.983C577.293 28.9375 576.81 26.608 576.81 23.9943C576.81 21.3693 577.293 19.0398 578.259 17.0057C579.225 14.9602 580.549 13.3523 582.231 12.1818C583.912 11.0114 585.833 10.4261 587.992 10.4261C590.151 10.4261 592.071 11.0114 593.753 12.1818C595.435 13.3523 596.759 14.9602 597.725 17.0057C598.691 19.0511 599.174 21.3807 599.174 23.9943C599.174 26.608 598.691 28.9375 597.725 30.983C596.759 33.0284 595.435 34.6364 593.753 35.8068C592.071 36.9659 590.151 37.5455 587.992 37.5455ZM587.992 35.6193C589.821 35.6193 591.418 35.1023 592.782 34.0682C594.157 33.0341 595.219 31.6364 595.969 29.875C596.731 28.1136 597.111 26.1534 597.111 23.9943C597.111 21.8352 596.731 19.8807 595.969 18.1307C595.208 16.3693 594.145 14.9716 592.782 13.9375C591.418 12.892 589.821 12.3693 587.992 12.3693C586.162 12.3693 584.566 12.892 583.202 13.9375C581.838 14.9716 580.776 16.3693 580.015 18.1307C579.253 19.8807 578.873 21.8352 578.873 23.9943C578.873 26.1534 579.248 28.1136 579.998 29.875C580.759 31.6364 581.821 33.0341 583.185 34.0682C584.56 35.1023 586.162 35.6193 587.992 35.6193ZM624.542 10.8182L615.081 37H612.729L603.269 10.8182H605.502L613.82 34.3239H613.99L622.309 10.8182H624.542ZM640.313 37.5455C637.949 37.5455 635.892 36.9602 634.142 35.7898C632.392 34.6193 631.04 33.017 630.086 30.983C629.131 28.9489 628.654 26.6307 628.654 24.0284C628.654 21.4148 629.131 19.0852 630.086 17.0398C631.052 14.9943 632.375 13.3807 634.057 12.1989C635.739 11.017 637.659 10.4261 639.819 10.4261C641.284 10.4261 642.671 10.7216 643.978 11.3125C645.296 11.892 646.455 12.733 647.455 13.8352C648.466 14.9375 649.256 16.267 649.824 17.8239C650.404 19.3807 650.694 21.1307 650.694 23.0739V24.3693H629.966V22.4773H648.614C648.614 20.5795 648.228 18.8693 647.455 17.3466C646.682 15.8239 645.631 14.6136 644.302 13.7159C642.972 12.8182 641.478 12.3693 639.819 12.3693C638.08 12.3693 636.529 12.858 635.165 13.8352C633.813 14.8011 632.739 16.108 631.944 17.7557C631.159 19.4034 630.75 21.2443 630.716 23.2784V24.1307C630.716 26.3125 631.097 28.2727 631.858 30.0114C632.631 31.7386 633.733 33.108 635.165 34.1193C636.597 35.1193 638.313 35.6193 640.313 35.6193C641.745 35.6193 642.966 35.3807 643.978 34.9034C645 34.4148 645.836 33.8239 646.483 33.1307C647.131 32.4375 647.62 31.767 647.949 31.1193L649.841 31.8864C649.444 32.7614 648.824 33.6364 647.983 34.5114C647.154 35.375 646.097 36.0966 644.813 36.6761C643.54 37.2557 642.04 37.5455 640.313 37.5455ZM683.221 10.8182V12.6761H671.613V10.8182H683.221ZM675.431 37V6.74432C675.431 5.42613 675.733 4.30113 676.335 3.36932C676.937 2.4375 677.727 1.72727 678.704 1.23864C679.693 0.749999 680.755 0.505681 681.892 0.505681C682.494 0.505681 683.005 0.556817 683.426 0.659089C683.858 0.749999 684.233 0.857954 684.551 0.982954L683.937 2.82386C683.676 2.73295 683.392 2.65341 683.085 2.58523C682.789 2.51705 682.437 2.48295 682.028 2.48295C680.71 2.48295 679.625 2.88636 678.772 3.69318C677.92 4.5 677.494 5.625 677.494 7.06818L677.477 37H675.431ZM698.349 37.5455C696.19 37.5455 694.269 36.9659 692.588 35.8068C690.906 34.6364 689.582 33.0284 688.616 30.983C687.65 28.9375 687.167 26.608 687.167 23.9943C687.167 21.3693 687.65 19.0398 688.616 17.0057C689.582 14.9602 690.906 13.3523 692.588 12.1818C694.269 11.0114 696.19 10.4261 698.349 10.4261C700.508 10.4261 702.429 11.0114 704.11 12.1818C705.792 13.3523 707.116 14.9602 708.082 17.0057C709.048 19.0511 709.531 21.3807 709.531 23.9943C709.531 26.608 709.048 28.9375 708.082 30.983C707.116 33.0284 705.792 34.6364 704.11 35.8068C702.429 36.9659 700.508 37.5455 698.349 37.5455ZM698.349 35.6193C700.179 35.6193 701.775 35.1023 703.139 34.0682C704.514 33.0341 705.576 31.6364 706.326 29.875C707.088 28.1136 707.468 26.1534 707.468 23.9943C707.468 21.8352 707.088 19.8807 706.326 18.1307C705.565 16.3693 704.502 14.9716 703.139 13.9375C701.775 12.892 700.179 12.3693 698.349 12.3693C696.519 12.3693 694.923 12.892 693.559 13.9375C692.196 14.9716 691.133 16.3693 690.372 18.1307C689.61 19.8807 689.23 21.8352 689.23 23.9943C689.23 26.1534 689.605 28.1136 690.355 29.875C691.116 31.6364 692.179 33.0341 693.542 34.0682C694.917 35.1023 696.519 35.6193 698.349 35.6193ZM716.694 37V10.8182H718.723V14.9091H718.91C719.478 13.5682 720.439 12.4943 721.791 11.6875C723.143 10.8693 724.683 10.4602 726.41 10.4602C726.592 10.4602 726.774 10.4602 726.956 10.4602C727.137 10.4602 727.308 10.4659 727.467 10.4773V12.5739C727.331 12.5625 727.166 12.5455 726.973 12.5227C726.791 12.4886 726.564 12.4716 726.291 12.4716C724.836 12.4716 723.541 12.7841 722.404 13.4091C721.279 14.0341 720.393 14.8977 719.745 16C719.098 17.0909 718.774 18.3409 718.774 19.75V37H716.694ZM742.467 37.5455C740.103 37.5455 738.046 36.9602 736.296 35.7898C734.546 34.6193 733.194 33.017 732.24 30.983C731.285 28.9489 730.808 26.6307 730.808 24.0284C730.808 21.4148 731.285 19.0852 732.24 17.0398C733.206 14.9943 734.529 13.3807 736.211 12.1989C737.893 11.017 739.814 10.4261 741.973 10.4261C743.439 10.4261 744.825 10.7216 746.132 11.3125C747.45 11.892 748.609 12.733 749.609 13.8352C750.62 14.9375 751.41 16.267 751.978 17.8239C752.558 19.3807 752.848 21.1307 752.848 23.0739V24.3693H732.12V22.4773H750.768C750.768 20.5795 750.382 18.8693 749.609 17.3466C748.836 15.8239 747.785 14.6136 746.456 13.7159C745.126 12.8182 743.632 12.3693 741.973 12.3693C740.234 12.3693 738.683 12.858 737.319 13.8352C735.967 14.8011 734.893 16.108 734.098 17.7557C733.314 19.4034 732.904 21.2443 732.87 23.2784V24.1307C732.87 26.3125 733.251 28.2727 734.012 30.0114C734.785 31.7386 735.887 33.108 737.319 34.1193C738.751 35.1193 740.467 35.6193 742.467 35.6193C743.899 35.6193 745.12 35.3807 746.132 34.9034C747.154 34.4148 747.99 33.8239 748.637 33.1307C749.285 32.4375 749.774 31.767 750.103 31.1193L751.995 31.8864C751.598 32.7614 750.978 33.6364 750.137 34.5114C749.308 35.375 748.251 36.0966 746.967 36.6761C745.694 37.2557 744.194 37.5455 742.467 37.5455ZM776.643 16.4602L774.717 16.9716C774.41 16.017 773.973 15.1932 773.404 14.5C772.836 13.8068 772.12 13.2727 771.257 12.8977C770.404 12.5114 769.382 12.3182 768.189 12.3182C766.268 12.3182 764.694 12.7955 763.467 13.75C762.251 14.7045 761.643 15.9489 761.643 17.483C761.643 18.733 762.058 19.767 762.887 20.5852C763.717 21.392 764.984 22.0057 766.689 22.4261L770.711 23.4318C772.779 23.9432 774.336 24.7727 775.382 25.9205C776.427 27.0568 776.95 28.4716 776.95 30.1648C776.95 31.608 776.558 32.8864 775.774 34C774.99 35.1136 773.904 35.983 772.518 36.608C771.143 37.233 769.541 37.5455 767.711 37.5455C765.268 37.5455 763.262 36.9773 761.694 35.8409C760.126 34.6932 759.12 33.0511 758.677 30.9148L760.671 30.4034C761.046 32.108 761.825 33.4091 763.007 34.3068C764.2 35.1932 765.762 35.6364 767.694 35.6364C769.831 35.6364 771.552 35.1307 772.859 34.1193C774.177 33.108 774.836 31.8125 774.836 30.233C774.836 29.0284 774.45 28.0114 773.677 27.1818C772.904 26.3523 771.734 25.7443 770.166 25.358L765.99 24.3352C763.853 23.8125 762.251 22.9773 761.183 21.8295C760.115 20.6705 759.581 19.2443 759.581 17.5511C759.581 16.142 759.95 14.9034 760.689 13.8352C761.427 12.767 762.444 11.9318 763.74 11.3295C765.035 10.7273 766.518 10.4261 768.189 10.4261C770.404 10.4261 772.211 10.9489 773.609 11.9943C775.007 13.0398 776.018 14.5284 776.643 16.4602ZM793.403 10.8182V12.6761H781.966V10.8182H793.403ZM785.835 4.54545H787.897V30.8125C787.897 31.8807 788.102 32.7557 788.511 33.4375C788.931 34.108 789.477 34.608 790.147 34.9375C790.829 35.2557 791.556 35.4148 792.329 35.4148C792.704 35.4148 793.028 35.3864 793.301 35.3295C793.585 35.2727 793.852 35.1989 794.102 35.108L794.613 37C794.295 37.1136 793.943 37.2102 793.556 37.2898C793.17 37.3807 792.716 37.4261 792.193 37.4261C791.102 37.4261 790.068 37.1818 789.091 36.6932C788.125 36.2045 787.341 35.4943 786.738 34.5625C786.136 33.6307 785.835 32.5057 785.835 31.1875V4.54545ZM805.207 32.2273L804.9 34.017C804.696 35.1875 804.434 36.5057 804.116 37.9716C803.809 39.4489 803.491 40.8693 803.162 42.233C802.832 43.5966 802.531 44.6932 802.258 45.5227H800.639C800.798 44.7045 800.991 43.6989 801.218 42.5057C801.457 41.3239 801.701 40.017 801.951 38.5852C802.213 37.1534 802.457 35.6705 802.684 34.1364L802.991 32.2273H805.207ZM838.557 10.8182V12.6761H827.12V10.8182H838.557ZM830.989 4.54545H833.051V30.8125C833.051 31.8807 833.256 32.7557 833.665 33.4375C834.085 34.108 834.631 34.608 835.301 34.9375C835.983 35.2557 836.71 35.4148 837.483 35.4148C837.858 35.4148 838.182 35.3864 838.455 35.3295C838.739 35.2727 839.006 35.1989 839.256 35.108L839.767 37C839.449 37.1136 839.097 37.2102 838.71 37.2898C838.324 37.3807 837.87 37.4261 837.347 37.4261C836.256 37.4261 835.222 37.1818 834.245 36.6932C833.279 36.2045 832.495 35.4943 831.892 34.5625C831.29 33.6307 830.989 32.5057 830.989 31.1875V4.54545ZM848.912 20.0227V37H846.833V2.09091H848.912V14.9602H849.117C849.73 13.5966 850.708 12.5114 852.048 11.7045C853.401 10.8864 855.02 10.4773 856.906 10.4773C858.668 10.4773 860.219 10.8523 861.56 11.6023C862.901 12.3409 863.946 13.4034 864.696 14.7898C865.458 16.1648 865.838 17.8125 865.838 19.733V37H863.776V19.8182C863.776 17.5795 863.111 15.7841 861.781 14.4318C860.452 13.0795 858.696 12.4034 856.514 12.4034C855.048 12.4034 853.742 12.7216 852.594 13.358C851.446 13.9943 850.543 14.8864 849.884 16.0341C849.236 17.1705 848.912 18.5 848.912 20.0227ZM884.652 37.5455C882.289 37.5455 880.232 36.9602 878.482 35.7898C876.732 34.6193 875.379 33.017 874.425 30.983C873.47 28.9489 872.993 26.6307 872.993 24.0284C872.993 21.4148 873.47 19.0852 874.425 17.0398C875.391 14.9943 876.715 13.3807 878.397 12.1989C880.078 11.017 881.999 10.4261 884.158 10.4261C885.624 10.4261 887.01 10.7216 888.317 11.3125C889.635 11.892 890.794 12.733 891.794 13.8352C892.806 14.9375 893.595 16.267 894.164 17.8239C894.743 19.3807 895.033 21.1307 895.033 23.0739V24.3693H874.306V22.4773H892.953C892.953 20.5795 892.567 18.8693 891.794 17.3466C891.022 15.8239 889.97 14.6136 888.641 13.7159C887.311 12.8182 885.817 12.3693 884.158 12.3693C882.419 12.3693 880.868 12.858 879.504 13.8352C878.152 14.8011 877.078 16.108 876.283 17.7557C875.499 19.4034 875.09 21.2443 875.056 23.2784V24.1307C875.056 26.3125 875.436 28.2727 876.198 30.0114C876.97 31.7386 878.073 33.108 879.504 34.1193C880.936 35.1193 882.652 35.6193 884.652 35.6193C886.084 35.6193 887.306 35.3807 888.317 34.9034C889.34 34.4148 890.175 33.8239 890.823 33.1307C891.47 32.4375 891.959 31.767 892.289 31.1193L894.181 31.8864C893.783 32.7614 893.164 33.6364 892.323 34.5114C891.493 35.375 890.436 36.0966 889.152 36.6761C887.879 37.2557 886.379 37.5455 884.652 37.5455ZM937.225 10.8182C937.043 8.64773 936.157 6.89205 934.566 5.55114C932.987 4.21023 930.941 3.53977 928.43 3.53977C926.737 3.53977 925.231 3.85227 923.913 4.47727C922.595 5.10227 921.56 5.95455 920.81 7.03409C920.06 8.11364 919.685 9.35227 919.685 10.75C919.685 11.6477 919.856 12.4602 920.197 13.1875C920.549 13.9034 921.043 14.5455 921.68 15.1136C922.316 15.6705 923.072 16.1591 923.947 16.5795C924.822 17 925.788 17.3693 926.845 17.6875L930.663 18.8125C931.97 19.2102 933.174 19.6705 934.276 20.1932C935.39 20.7159 936.356 21.3409 937.174 22.0682C938.004 22.7841 938.646 23.625 939.1 24.5909C939.566 25.5568 939.799 26.6705 939.799 27.9318C939.799 29.7727 939.322 31.4205 938.367 32.875C937.424 34.3295 936.078 35.4773 934.328 36.3182C932.589 37.1477 930.538 37.5625 928.174 37.5625C925.924 37.5625 923.964 37.1818 922.293 36.4205C920.634 35.6591 919.322 34.6023 918.356 33.25C917.39 31.8864 916.845 30.3182 916.72 28.5455H918.901C919.015 29.9886 919.475 31.2386 920.282 32.2955C921.1 33.3409 922.185 34.1477 923.538 34.7159C924.89 35.2841 926.435 35.5682 928.174 35.5682C930.049 35.5682 931.703 35.25 933.134 34.6136C934.566 33.9659 935.685 33.0682 936.492 31.9205C937.299 30.7727 937.703 29.4375 937.703 27.9148C937.703 26.6875 937.413 25.6364 936.833 24.7614C936.254 23.8864 935.396 23.1307 934.259 22.4943C933.134 21.858 931.737 21.2898 930.066 20.7898L925.992 19.5625C923.265 18.733 921.18 17.6023 919.737 16.1705C918.305 14.7386 917.589 12.9545 917.589 10.8182C917.589 9.02273 918.066 7.43182 919.021 6.04545C919.975 4.64773 921.271 3.55114 922.907 2.75568C924.555 1.96023 926.413 1.5625 928.481 1.5625C930.56 1.5625 932.396 1.96591 933.987 2.77273C935.578 3.56818 936.839 4.66477 937.771 6.0625C938.703 7.44886 939.22 9.03409 939.322 10.8182H937.225ZM964.259 27.7102V10.8182H966.339V37H964.259V32.7557H964.089C963.475 34.108 962.481 35.2102 961.106 36.0625C959.742 36.9148 958.129 37.3409 956.265 37.3409C954.549 37.3409 953.032 36.9659 951.714 36.2159C950.396 35.4659 949.362 34.4034 948.612 33.0284C947.862 31.642 947.487 29.9943 947.487 28.0852V10.8182H949.566V28C949.566 30.1818 950.225 31.9489 951.543 33.3011C952.873 34.642 954.589 35.3125 956.691 35.3125C958.055 35.3125 959.31 35.0057 960.458 34.392C961.606 33.7784 962.526 32.9034 963.22 31.767C963.913 30.6193 964.259 29.267 964.259 27.7102ZM977.035 20.0227V37H974.955V10.8182H976.984V14.9602H977.188C977.802 13.608 978.785 12.5227 980.137 11.7045C981.489 10.8864 983.097 10.4773 984.961 10.4773C986.722 10.4773 988.268 10.8523 989.597 11.6023C990.938 12.3523 991.984 13.4205 992.734 14.8068C993.495 16.1818 993.876 17.8239 993.876 19.733V37H991.796V19.8182C991.796 17.5909 991.132 15.8011 989.802 14.4489C988.484 13.0852 986.739 12.4034 984.569 12.4034C983.114 12.4034 981.819 12.7216 980.683 13.358C979.546 13.9943 978.654 14.8864 978.007 16.0341C977.359 17.1705 977.035 18.5 977.035 20.0227ZM1011.5 37.5455C1009.4 37.5455 1007.56 36.9659 1006 35.8068C1004.43 34.6477 1003.21 33.0511 1002.35 31.017C1001.5 28.9716 1001.07 26.625 1001.07 23.9773C1001.07 21.3523 1001.5 19.0227 1002.36 16.9886C1003.24 14.9432 1004.46 13.3409 1006.03 12.1818C1007.6 11.0114 1009.43 10.4261 1011.52 10.4261C1013.02 10.4261 1014.32 10.7159 1015.42 11.2955C1016.53 11.8636 1017.47 12.6193 1018.22 13.5625C1018.98 14.5057 1019.56 15.5398 1019.96 16.6648H1020.16V2.09091H1022.22V37H1020.21V31.2898H1019.96C1019.53 32.4148 1018.95 33.4545 1018.2 34.4091C1017.45 35.3523 1016.52 36.1136 1015.4 36.6932C1014.29 37.2614 1012.99 37.5455 1011.5 37.5455ZM1011.69 35.6193C1013.46 35.6193 1014.98 35.1136 1016.24 34.1023C1017.51 33.0795 1018.48 31.6932 1019.15 29.9432C1019.84 28.1818 1020.18 26.1875 1020.18 23.9602C1020.18 21.733 1019.84 19.75 1019.15 18.0114C1018.48 16.2614 1017.51 14.8864 1016.24 13.8864C1014.98 12.875 1013.46 12.3693 1011.69 12.3693C1009.89 12.3693 1008.35 12.8807 1007.07 13.9034C1005.8 14.9148 1004.82 16.2955 1004.14 18.0455C1003.47 19.7955 1003.13 21.767 1003.13 23.9602C1003.13 26.1534 1003.47 28.1307 1004.14 29.892C1004.82 31.6534 1005.8 33.0511 1007.07 34.0852C1008.35 35.108 1009.89 35.6193 1011.69 35.6193ZM1038.52 37.5625C1037.01 37.5625 1035.62 37.2614 1034.36 36.6591C1033.11 36.0568 1032.1 35.1761 1031.34 34.017C1030.59 32.858 1030.22 31.4489 1030.22 29.7898C1030.22 28.6989 1030.41 27.7386 1030.8 26.9091C1031.18 26.0795 1031.78 25.3636 1032.59 24.7614C1033.39 24.1591 1034.43 23.6648 1035.69 23.2784C1036.95 22.8807 1038.46 22.5739 1040.21 22.358C1041.53 22.1989 1042.72 22.0455 1043.77 21.8977C1044.81 21.7386 1045.63 21.4943 1046.22 21.1648C1046.82 20.8352 1047.13 20.3352 1047.13 19.6648V18.5739C1047.13 16.6648 1046.52 15.1477 1045.32 14.0227C1044.11 12.8977 1042.46 12.3352 1040.34 12.3352C1038.47 12.3352 1036.89 12.75 1035.6 13.5795C1034.33 14.3977 1033.44 15.4545 1032.93 16.75L1030.97 16.017C1031.47 14.767 1032.19 13.7273 1033.13 12.8977C1034.09 12.0682 1035.18 11.4489 1036.4 11.0398C1037.64 10.6307 1038.94 10.4261 1040.29 10.4261C1041.46 10.4261 1042.57 10.5909 1043.63 10.9205C1044.7 11.25 1045.65 11.75 1046.48 12.4205C1047.32 13.0909 1047.98 13.9489 1048.47 14.9943C1048.96 16.0284 1049.21 17.267 1049.21 18.7102V37H1047.13V32.2784H1046.97C1046.52 33.2557 1045.89 34.1477 1045.1 34.9545C1044.31 35.75 1043.36 36.3864 1042.25 36.8636C1041.15 37.3295 1039.9 37.5625 1038.52 37.5625ZM1038.72 35.6364C1040.36 35.6364 1041.81 35.2386 1043.07 34.4432C1044.34 33.6364 1045.34 32.5341 1046.05 31.1364C1046.77 29.7386 1047.13 28.1534 1047.13 26.3807V22.5284C1046.86 22.7557 1046.48 22.9602 1045.98 23.142C1045.5 23.3125 1044.94 23.4659 1044.31 23.6023C1043.7 23.7273 1043.05 23.8409 1042.37 23.9432C1041.7 24.0341 1041.05 24.1193 1040.41 24.1989C1038.5 24.4261 1036.94 24.7784 1035.74 25.2557C1034.55 25.7216 1033.67 26.3352 1033.11 27.0966C1032.57 27.858 1032.3 28.7784 1032.3 29.858C1032.3 31.642 1032.91 33.0511 1034.14 34.0852C1035.36 35.1193 1036.89 35.6364 1038.72 35.6364ZM1057.92 37V10.8182H1059.95V14.9091H1060.14C1060.71 13.5682 1061.67 12.4943 1063.02 11.6875C1064.37 10.8693 1065.91 10.4602 1067.64 10.4602C1067.82 10.4602 1068 10.4602 1068.19 10.4602C1068.37 10.4602 1068.54 10.4659 1068.7 10.4773V12.5739C1068.56 12.5625 1068.4 12.5455 1068.2 12.5227C1068.02 12.4886 1067.79 12.4716 1067.52 12.4716C1066.07 12.4716 1064.77 12.7841 1063.63 13.4091C1062.51 14.0341 1061.62 14.8977 1060.98 16C1060.33 17.0909 1060 18.3409 1060 19.75V37H1057.92ZM1075.02 37V2.09091H1077.08V16.6648H1077.28C1077.69 15.5398 1078.27 14.5057 1079.02 13.5625C1079.77 12.6193 1080.7 11.8636 1081.82 11.2955C1082.93 10.7159 1084.23 10.4261 1085.72 10.4261C1087.82 10.4261 1089.66 11.0114 1091.23 12.1818C1092.79 13.3409 1094.01 14.9432 1094.87 16.9886C1095.74 19.0227 1096.17 21.3523 1096.17 23.9773C1096.17 26.625 1095.74 28.9716 1094.87 31.017C1094.01 33.0511 1092.8 34.6477 1091.24 35.8068C1089.69 36.9659 1087.85 37.5455 1085.74 37.5455C1084.25 37.5455 1082.95 37.2614 1081.83 36.6932C1080.72 36.1136 1079.79 35.3523 1079.04 34.4091C1078.29 33.4545 1077.7 32.4148 1077.28 31.2898H1077.04V37H1075.02ZM1077.06 23.9602C1077.06 26.1875 1077.4 28.1818 1078.07 29.9432C1078.75 31.6932 1079.73 33.0795 1081 34.1023C1082.27 35.1136 1083.79 35.6193 1085.57 35.6193C1087.36 35.6193 1088.9 35.108 1090.17 34.0852C1091.44 33.0511 1092.41 31.6534 1093.08 29.892C1093.77 28.1307 1094.11 26.1534 1094.11 23.9602C1094.11 21.767 1093.77 19.7955 1093.08 18.0455C1092.41 16.2955 1091.44 14.9148 1090.17 13.9034C1088.9 12.8807 1087.36 12.3693 1085.57 12.3693C1083.79 12.3693 1082.27 12.875 1081 13.8864C1079.73 14.8864 1078.75 16.2614 1078.07 18.0114C1077.4 19.75 1077.06 21.733 1077.06 23.9602ZM1110.28 37.5625C1108.77 37.5625 1107.39 37.2614 1106.12 36.6591C1104.87 36.0568 1103.87 35.1761 1103.11 34.017C1102.36 32.858 1101.98 31.4489 1101.98 29.7898C1101.98 28.6989 1102.18 27.7386 1102.56 26.9091C1102.95 26.0795 1103.54 25.3636 1104.35 24.7614C1105.16 24.1591 1106.19 23.6648 1107.45 23.2784C1108.72 22.8807 1110.22 22.5739 1111.97 22.358C1113.3 22.1989 1114.49 22.0455 1115.53 21.8977C1116.58 21.7386 1117.4 21.4943 1117.99 21.1648C1118.59 20.8352 1118.89 20.3352 1118.89 19.6648V18.5739C1118.89 16.6648 1118.29 15.1477 1117.08 14.0227C1115.88 12.8977 1114.22 12.3352 1112.11 12.3352C1110.23 12.3352 1108.65 12.75 1107.37 13.5795C1106.1 14.3977 1105.2 15.4545 1104.69 16.75L1102.73 16.017C1103.23 14.767 1103.95 13.7273 1104.9 12.8977C1105.85 12.0682 1106.94 11.4489 1108.17 11.0398C1109.41 10.6307 1110.7 10.4261 1112.06 10.4261C1113.23 10.4261 1114.34 10.5909 1115.4 10.9205C1116.47 11.25 1117.41 11.75 1118.24 12.4205C1119.08 13.0909 1119.75 13.9489 1120.24 14.9943C1120.73 16.0284 1120.97 17.267 1120.97 18.7102V37H1118.89V32.2784H1118.74C1118.28 33.2557 1117.66 34.1477 1116.86 34.9545C1116.08 35.75 1115.13 36.3864 1114.02 36.8636C1112.91 37.3295 1111.67 37.5625 1110.28 37.5625ZM1110.49 35.6364C1112.12 35.6364 1113.57 35.2386 1114.83 34.4432C1116.11 33.6364 1117.1 32.5341 1117.82 31.1364C1118.53 29.7386 1118.89 28.1534 1118.89 26.3807V22.5284C1118.63 22.7557 1118.25 22.9602 1117.75 23.142C1117.26 23.3125 1116.7 23.4659 1116.08 23.6023C1115.47 23.7273 1114.82 23.8409 1114.14 23.9432C1113.47 24.0341 1112.81 24.1193 1112.18 24.1989C1110.27 24.4261 1108.71 24.7784 1107.51 25.2557C1106.31 25.7216 1105.44 26.3352 1104.88 27.0966C1104.33 27.858 1104.06 28.7784 1104.06 29.858C1104.06 31.642 1104.68 33.0511 1105.9 34.0852C1107.13 35.1193 1108.66 35.6364 1110.49 35.6364ZM1131.77 20.0227V37H1129.69V10.8182H1131.72V14.9602H1131.92C1132.54 13.608 1133.52 12.5227 1134.87 11.7045C1136.22 10.8864 1137.83 10.4773 1139.7 10.4773C1141.46 10.4773 1143 10.8523 1144.33 11.6023C1145.67 12.3523 1146.72 13.4205 1147.47 14.8068C1148.23 16.1818 1148.61 17.8239 1148.61 19.733V37H1146.53V19.8182C1146.53 17.5909 1145.87 15.8011 1144.54 14.4489C1143.22 13.0852 1141.47 12.4034 1139.3 12.4034C1137.85 12.4034 1136.55 12.7216 1135.42 13.358C1134.28 13.9943 1133.39 14.8864 1132.74 16.0341C1132.09 17.1705 1131.77 18.5 1131.77 20.0227ZM1173.89 16.4602L1171.96 16.9716C1171.66 16.017 1171.22 15.1932 1170.65 14.5C1170.08 13.8068 1169.37 13.2727 1168.5 12.8977C1167.65 12.5114 1166.63 12.3182 1165.43 12.3182C1163.51 12.3182 1161.94 12.7955 1160.71 13.75C1159.5 14.7045 1158.89 15.9489 1158.89 17.483C1158.89 18.733 1159.3 19.767 1160.13 20.5852C1160.96 21.392 1162.23 22.0057 1163.93 22.4261L1167.96 23.4318C1170.02 23.9432 1171.58 24.7727 1172.63 25.9205C1173.67 27.0568 1174.2 28.4716 1174.2 30.1648C1174.2 31.608 1173.8 32.8864 1173.02 34C1172.24 35.1136 1171.15 35.983 1169.76 36.608C1168.39 37.233 1166.79 37.5455 1164.96 37.5455C1162.51 37.5455 1160.51 36.9773 1158.94 35.8409C1157.37 34.6932 1156.37 33.0511 1155.92 30.9148L1157.92 30.4034C1158.29 32.108 1159.07 33.4091 1160.25 34.3068C1161.45 35.1932 1163.01 35.6364 1164.94 35.6364C1167.08 35.6364 1168.8 35.1307 1170.1 34.1193C1171.42 33.108 1172.08 31.8125 1172.08 30.233C1172.08 29.0284 1171.7 28.0114 1170.92 27.1818C1170.15 26.3523 1168.98 25.7443 1167.41 25.358L1163.24 24.3352C1161.1 23.8125 1159.5 22.9773 1158.43 21.8295C1157.36 20.6705 1156.83 19.2443 1156.83 17.5511C1156.83 16.142 1157.2 14.9034 1157.93 13.8352C1158.67 12.767 1159.69 11.9318 1160.99 11.3295C1162.28 10.7273 1163.76 10.4261 1165.43 10.4261C1167.65 10.4261 1169.46 10.9489 1170.85 11.9943C1172.25 13.0398 1173.26 14.5284 1173.89 16.4602ZM1185.48 32.2273L1185.18 34.017C1184.97 35.1875 1184.71 36.5057 1184.39 37.9716C1184.09 39.4489 1183.77 40.8693 1183.44 42.233C1183.11 43.5966 1182.81 44.6932 1182.53 45.5227H1180.92C1181.07 44.7045 1181.27 43.6989 1181.5 42.5057C1181.73 41.3239 1181.98 40.017 1182.23 38.5852C1182.49 37.1534 1182.73 35.6705 1182.96 34.1364L1183.27 32.2273H1185.48ZM1226.21 16.4602L1224.29 16.9716C1223.98 16.017 1223.54 15.1932 1222.98 14.5C1222.41 13.8068 1221.69 13.2727 1220.83 12.8977C1219.98 12.5114 1218.95 12.3182 1217.76 12.3182C1215.84 12.3182 1214.27 12.7955 1213.04 13.75C1211.82 14.7045 1211.21 15.9489 1211.21 17.483C1211.21 18.733 1211.63 19.767 1212.46 20.5852C1213.29 21.392 1214.56 22.0057 1216.26 22.4261L1220.28 23.4318C1222.35 23.9432 1223.91 24.7727 1224.95 25.9205C1226 27.0568 1226.52 28.4716 1226.52 30.1648C1226.52 31.608 1226.13 32.8864 1225.35 34C1224.56 35.1136 1223.48 35.983 1222.09 36.608C1220.71 37.233 1219.11 37.5455 1217.28 37.5455C1214.84 37.5455 1212.83 36.9773 1211.27 35.8409C1209.7 34.6932 1208.69 33.0511 1208.25 30.9148L1210.24 30.4034C1210.62 32.108 1211.4 33.4091 1212.58 34.3068C1213.77 35.1932 1215.33 35.6364 1217.27 35.6364C1219.4 35.6364 1221.12 35.1307 1222.43 34.1193C1223.75 33.108 1224.41 31.8125 1224.41 30.233C1224.41 29.0284 1224.02 28.0114 1223.25 27.1818C1222.48 26.3523 1221.31 25.7443 1219.74 25.358L1215.56 24.3352C1213.42 23.8125 1211.82 22.9773 1210.75 21.8295C1209.69 20.6705 1209.15 19.2443 1209.15 17.5511C1209.15 16.142 1209.52 14.9034 1210.26 13.8352C1211 12.767 1212.02 11.9318 1213.31 11.3295C1214.61 10.7273 1216.09 10.4261 1217.76 10.4261C1219.98 10.4261 1221.78 10.9489 1223.18 11.9943C1224.58 13.0398 1225.59 14.5284 1226.21 16.4602ZM1240.66 37.5625C1239.14 37.5625 1237.76 37.2614 1236.5 36.6591C1235.25 36.0568 1234.24 35.1761 1233.48 34.017C1232.73 32.858 1232.36 31.4489 1232.36 29.7898C1232.36 28.6989 1232.55 27.7386 1232.93 26.9091C1233.32 26.0795 1233.92 25.3636 1234.72 24.7614C1235.53 24.1591 1236.57 23.6648 1237.83 23.2784C1239.09 22.8807 1240.59 22.5739 1242.34 22.358C1243.67 22.1989 1244.86 22.0455 1245.91 21.8977C1246.95 21.7386 1247.77 21.4943 1248.36 21.1648C1248.96 20.8352 1249.26 20.3352 1249.26 19.6648V18.5739C1249.26 16.6648 1248.66 15.1477 1247.46 14.0227C1246.25 12.8977 1244.59 12.3352 1242.48 12.3352C1240.61 12.3352 1239.03 12.75 1237.74 13.5795C1236.47 14.3977 1235.58 15.4545 1235.07 16.75L1233.11 16.017C1233.61 14.767 1234.33 13.7273 1235.27 12.8977C1236.22 12.0682 1237.32 11.4489 1238.54 11.0398C1239.78 10.6307 1241.08 10.4261 1242.43 10.4261C1243.6 10.4261 1244.71 10.5909 1245.77 10.9205C1246.84 11.25 1247.79 11.75 1248.62 12.4205C1249.46 13.0909 1250.12 13.9489 1250.61 14.9943C1251.1 16.0284 1251.34 17.267 1251.34 18.7102V37H1249.26V32.2784H1249.11C1248.66 33.2557 1248.03 34.1477 1247.24 34.9545C1246.45 35.75 1245.5 36.3864 1244.39 36.8636C1243.29 37.3295 1242.04 37.5625 1240.66 37.5625ZM1240.86 35.6364C1242.5 35.6364 1243.95 35.2386 1245.21 34.4432C1246.48 33.6364 1247.47 32.5341 1248.19 31.1364C1248.91 29.7386 1249.26 28.1534 1249.26 26.3807V22.5284C1249 22.7557 1248.62 22.9602 1248.12 23.142C1247.63 23.3125 1247.08 23.4659 1246.45 23.6023C1245.84 23.7273 1245.19 23.8409 1244.51 23.9432C1243.84 24.0341 1243.18 24.1193 1242.55 24.1989C1240.64 24.4261 1239.08 24.7784 1237.88 25.2557C1236.68 25.7216 1235.81 26.3352 1235.25 27.0966C1234.71 27.858 1234.43 28.7784 1234.43 29.858C1234.43 31.642 1235.05 33.0511 1236.28 34.0852C1237.5 35.1193 1239.03 35.6364 1240.86 35.6364ZM1265.77 37L1257.93 10.8182H1260.11L1266.86 33.9489H1267.05L1273.82 10.8182H1275.98L1282.73 33.9318H1282.9L1289.65 10.8182H1291.84L1283.99 37H1281.68L1274.99 14.2102H1274.77L1268.09 37H1265.77ZM11.5682 82.8182V84.6761H0.130682V82.8182H11.5682ZM4 76.5455H6.0625V102.812C6.0625 103.881 6.26705 104.756 6.67614 105.438C7.09659 106.108 7.64205 106.608 8.3125 106.938C8.99432 107.256 9.72159 107.415 10.4943 107.415C10.8693 107.415 11.1932 107.386 11.4659 107.33C11.75 107.273 12.017 107.199 12.267 107.108L12.7784 109C12.4602 109.114 12.108 109.21 11.7216 109.29C11.3352 109.381 10.8807 109.426 10.358 109.426C9.26705 109.426 8.23295 109.182 7.25568 108.693C6.28977 108.205 5.50568 107.494 4.90341 106.562C4.30114 105.631 4 104.506 4 103.188V76.5455ZM21.9233 92.0227V109H19.8438V74.0909H21.9233V86.9602H22.1278C22.7415 85.5966 23.7188 84.5114 25.0597 83.7045C26.4119 82.8864 28.0312 82.4773 29.9176 82.4773C31.679 82.4773 33.2301 82.8523 34.571 83.6023C35.9119 84.3409 36.9574 85.4034 37.7074 86.7898C38.4688 88.1648 38.8494 89.8125 38.8494 91.733V109H36.7869V91.8182C36.7869 89.5795 36.1222 87.7841 34.7926 86.4318C33.4631 85.0795 31.7074 84.4034 29.5256 84.4034C28.0597 84.4034 26.7528 84.7216 25.6051 85.358C24.4574 85.9943 23.554 86.8864 22.8949 88.0341C22.2472 89.1705 21.9233 90.5 21.9233 92.0227ZM57.6634 109.545C55.2997 109.545 53.2429 108.96 51.4929 107.79C49.7429 106.619 48.3906 105.017 47.4361 102.983C46.4815 100.949 46.0043 98.6307 46.0043 96.0284C46.0043 93.4148 46.4815 91.0852 47.4361 89.0398C48.402 86.9943 49.7259 85.3807 51.4077 84.1989C53.0895 83.017 55.0099 82.4261 57.169 82.4261C58.6349 82.4261 60.0213 82.7216 61.3281 83.3125C62.6463 83.892 63.8054 84.733 64.8054 85.8352C65.8168 86.9375 66.6065 88.267 67.1747 89.8239C67.7543 91.3807 68.044 93.1307 68.044 95.0739V96.3693H47.3168V94.4773H65.9645C65.9645 92.5795 65.5781 90.8693 64.8054 89.3466C64.0327 87.8239 62.9815 86.6136 61.652 85.7159C60.3224 84.8182 58.8281 84.3693 57.169 84.3693C55.4304 84.3693 53.8793 84.858 52.5156 85.8352C51.1634 86.8011 50.0895 88.108 49.294 89.7557C48.5099 91.4034 48.1009 93.2443 48.0668 95.2784V96.1307C48.0668 98.3125 48.4474 100.273 49.2088 102.011C49.9815 103.739 51.0838 105.108 52.5156 106.119C53.9474 107.119 55.6634 107.619 57.6634 107.619C59.0952 107.619 60.3168 107.381 61.3281 106.903C62.3509 106.415 63.1861 105.824 63.8338 105.131C64.4815 104.437 64.9702 103.767 65.2997 103.119L67.1918 103.886C66.794 104.761 66.1747 105.636 65.3338 106.511C64.5043 107.375 63.4474 108.097 62.1634 108.676C60.8906 109.256 59.3906 109.545 57.6634 109.545ZM91.612 109V82.8182H93.6745V109H91.612ZM92.6518 78.1818C92.1973 78.1818 91.7995 78.0227 91.4586 77.7045C91.1291 77.3864 90.9643 77 90.9643 76.5455C90.9643 76.0909 91.1291 75.7045 91.4586 75.3864C91.7882 75.0682 92.1859 74.9091 92.6518 74.9091C93.1064 74.9091 93.4984 75.0682 93.8279 75.3864C94.1689 75.7045 94.3393 76.0909 94.3393 76.5455C94.3393 77 94.1745 77.3864 93.845 77.7045C93.5154 78.0227 93.1177 78.1818 92.6518 78.1818ZM104.464 92.0227V109H102.385V82.8182H104.413V86.9602H104.618C105.231 85.608 106.214 84.5227 107.567 83.7045C108.919 82.8864 110.527 82.4773 112.39 82.4773C114.152 82.4773 115.697 82.8523 117.027 83.6023C118.368 84.3523 119.413 85.4205 120.163 86.8068C120.925 88.1818 121.305 89.8239 121.305 91.733V109H119.226V91.8182C119.226 89.5909 118.561 87.8011 117.231 86.4489C115.913 85.0852 114.169 84.4034 111.998 84.4034C110.544 84.4034 109.248 84.7216 108.112 85.358C106.976 85.9943 106.084 86.8864 105.436 88.0341C104.788 89.1705 104.464 90.5 104.464 92.0227ZM139.203 82.8182V84.6761H127.765V82.8182H139.203ZM131.635 76.5455H133.697V102.812C133.697 103.881 133.902 104.756 134.311 105.438C134.731 106.108 135.277 106.608 135.947 106.938C136.629 107.256 137.356 107.415 138.129 107.415C138.504 107.415 138.828 107.386 139.101 107.33C139.385 107.273 139.652 107.199 139.902 107.108L140.413 109C140.095 109.114 139.743 109.21 139.356 109.29C138.97 109.381 138.515 109.426 137.993 109.426C136.902 109.426 135.868 109.182 134.89 108.693C133.925 108.205 133.14 107.494 132.538 106.562C131.936 105.631 131.635 104.506 131.635 103.188V76.5455ZM146.916 109V82.8182H148.944V86.9091H149.132C149.7 85.5682 150.66 84.4943 152.013 83.6875C153.365 82.8693 154.905 82.4602 156.632 82.4602C156.814 82.4602 156.996 82.4602 157.177 82.4602C157.359 82.4602 157.53 82.4659 157.689 82.4773V84.5739C157.552 84.5625 157.388 84.5455 157.194 84.5227C157.013 84.4886 156.785 84.4716 156.513 84.4716C155.058 84.4716 153.763 84.7841 152.626 85.4091C151.501 86.0341 150.615 86.8977 149.967 88C149.319 89.0909 148.996 90.3409 148.996 91.75V109H146.916ZM172.211 109.545C170.052 109.545 168.132 108.966 166.45 107.807C164.768 106.636 163.444 105.028 162.479 102.983C161.513 100.937 161.03 98.608 161.03 95.9943C161.03 93.3693 161.513 91.0398 162.479 89.0057C163.444 86.9602 164.768 85.3523 166.45 84.1818C168.132 83.0114 170.052 82.4261 172.211 82.4261C174.371 82.4261 176.291 83.0114 177.973 84.1818C179.655 85.3523 180.979 86.9602 181.944 89.0057C182.91 91.0511 183.393 93.3807 183.393 95.9943C183.393 98.608 182.91 100.937 181.944 102.983C180.979 105.028 179.655 106.636 177.973 107.807C176.291 108.966 174.371 109.545 172.211 109.545ZM172.211 107.619C174.041 107.619 175.638 107.102 177.001 106.068C178.376 105.034 179.439 103.636 180.189 101.875C180.95 100.114 181.331 98.1534 181.331 95.9943C181.331 93.8352 180.95 91.8807 180.189 90.1307C179.427 88.3693 178.365 86.9716 177.001 85.9375C175.638 84.892 174.041 84.3693 172.211 84.3693C170.382 84.3693 168.785 84.892 167.422 85.9375C166.058 86.9716 164.996 88.3693 164.234 90.1307C163.473 91.8807 163.092 93.8352 163.092 95.9943C163.092 98.1534 163.467 100.114 164.217 101.875C164.979 103.636 166.041 105.034 167.405 106.068C168.78 107.102 170.382 107.619 172.211 107.619ZM199.54 109.545C197.437 109.545 195.602 108.966 194.034 107.807C192.466 106.648 191.25 105.051 190.386 103.017C189.534 100.972 189.108 98.625 189.108 95.9773C189.108 93.3523 189.54 91.0227 190.403 88.9886C191.278 86.9432 192.5 85.3409 194.068 84.1818C195.636 83.0114 197.466 82.4261 199.557 82.4261C201.057 82.4261 202.358 82.7159 203.46 83.2955C204.574 83.8636 205.506 84.6193 206.256 85.5625C207.017 86.5057 207.596 87.5398 207.994 88.6648H208.199V74.0909H210.261V109H208.25V103.29H207.994C207.574 104.415 206.988 105.455 206.238 106.409C205.488 107.352 204.557 108.114 203.443 108.693C202.329 109.261 201.028 109.545 199.54 109.545ZM199.727 107.619C201.5 107.619 203.017 107.114 204.278 106.102C205.551 105.08 206.523 103.693 207.193 101.943C207.875 100.182 208.216 98.1875 208.216 95.9602C208.216 93.733 207.875 91.75 207.193 90.0114C206.523 88.2614 205.551 86.8864 204.278 85.8864C203.017 84.875 201.5 84.3693 199.727 84.3693C197.932 84.3693 196.392 84.8807 195.108 85.9034C193.835 86.9148 192.858 88.2955 192.176 90.0455C191.506 91.7955 191.17 93.767 191.17 95.9602C191.17 98.1534 191.506 100.131 192.176 101.892C192.858 103.653 193.835 105.051 195.108 106.085C196.392 107.108 197.932 107.619 199.727 107.619ZM236.392 99.7102V82.8182H238.471V109H236.392V104.756H236.221C235.608 106.108 234.613 107.21 233.238 108.062C231.875 108.915 230.261 109.341 228.398 109.341C226.682 109.341 225.165 108.966 223.846 108.216C222.528 107.466 221.494 106.403 220.744 105.028C219.994 103.642 219.619 101.994 219.619 100.085V82.8182H221.699V100C221.699 102.182 222.358 103.949 223.676 105.301C225.006 106.642 226.721 107.312 228.824 107.312C230.187 107.312 231.443 107.006 232.591 106.392C233.738 105.778 234.659 104.903 235.352 103.767C236.045 102.619 236.392 101.267 236.392 99.7102ZM256.906 109.545C254.679 109.545 252.719 108.96 251.025 107.79C249.332 106.608 248.008 104.994 247.054 102.949C246.111 100.903 245.639 98.5852 245.639 95.9943C245.639 93.4034 246.116 91.0852 247.071 89.0398C248.025 86.9943 249.349 85.3807 251.042 84.1989C252.736 83.017 254.684 82.4261 256.889 82.4261C258.548 82.4261 260.059 82.767 261.423 83.4489C262.798 84.1307 263.934 85.0795 264.832 86.2955C265.741 87.5114 266.321 88.9205 266.571 90.5227H264.457C264.116 88.75 263.264 87.2841 261.9 86.125C260.548 84.9545 258.883 84.3693 256.906 84.3693C255.133 84.3693 253.554 84.8693 252.167 85.8693C250.781 86.858 249.69 88.2273 248.895 89.9773C248.099 91.7159 247.702 93.7102 247.702 95.9602C247.702 98.1761 248.088 100.165 248.861 101.926C249.633 103.676 250.713 105.062 252.099 106.085C253.486 107.108 255.088 107.619 256.906 107.619C258.19 107.619 259.361 107.364 260.417 106.852C261.486 106.341 262.378 105.614 263.094 104.67C263.809 103.727 264.281 102.625 264.508 101.364H266.622C266.372 102.977 265.804 104.398 264.917 105.625C264.031 106.852 262.9 107.813 261.525 108.506C260.15 109.199 258.611 109.545 256.906 109.545ZM282.969 82.8182V84.6761H271.531V82.8182H282.969ZM275.4 76.5455H277.463V102.812C277.463 103.881 277.667 104.756 278.077 105.438C278.497 106.108 279.042 106.608 279.713 106.938C280.395 107.256 281.122 107.415 281.895 107.415C282.27 107.415 282.594 107.386 282.866 107.33C283.15 107.273 283.417 107.199 283.667 107.108L284.179 109C283.861 109.114 283.508 109.21 283.122 109.29C282.736 109.381 282.281 109.426 281.758 109.426C280.667 109.426 279.633 109.182 278.656 108.693C277.69 108.205 276.906 107.494 276.304 106.562C275.702 105.631 275.4 104.506 275.4 103.188V76.5455ZM290.784 109V82.8182H292.846V109H290.784ZM291.824 78.1818C291.369 78.1818 290.971 78.0227 290.631 77.7045C290.301 77.3864 290.136 77 290.136 76.5455C290.136 76.0909 290.301 75.7045 290.631 75.3864C290.96 75.0682 291.358 74.9091 291.824 74.9091C292.278 74.9091 292.67 75.0682 293 75.3864C293.341 75.7045 293.511 76.0909 293.511 76.5455C293.511 77 293.346 77.3864 293.017 77.7045C292.687 78.0227 292.29 78.1818 291.824 78.1818ZM311.29 109.545C309.131 109.545 307.21 108.966 305.528 107.807C303.846 106.636 302.523 105.028 301.557 102.983C300.591 100.937 300.108 98.608 300.108 95.9943C300.108 93.3693 300.591 91.0398 301.557 89.0057C302.523 86.9602 303.846 85.3523 305.528 84.1818C307.21 83.0114 309.131 82.4261 311.29 82.4261C313.449 82.4261 315.369 83.0114 317.051 84.1818C318.733 85.3523 320.057 86.9602 321.023 89.0057C321.988 91.0511 322.471 93.3807 322.471 95.9943C322.471 98.608 321.988 100.937 321.023 102.983C320.057 105.028 318.733 106.636 317.051 107.807C315.369 108.966 313.449 109.545 311.29 109.545ZM311.29 107.619C313.119 107.619 314.716 107.102 316.079 106.068C317.454 105.034 318.517 103.636 319.267 101.875C320.028 100.114 320.409 98.1534 320.409 95.9943C320.409 93.8352 320.028 91.8807 319.267 90.1307C318.506 88.3693 317.443 86.9716 316.079 85.9375C314.716 84.892 313.119 84.3693 311.29 84.3693C309.46 84.3693 307.863 84.892 306.5 85.9375C305.136 86.9716 304.074 88.3693 303.312 90.1307C302.551 91.8807 302.17 93.8352 302.17 95.9943C302.17 98.1534 302.545 100.114 303.295 101.875C304.057 103.636 305.119 105.034 306.483 106.068C307.858 107.102 309.46 107.619 311.29 107.619ZM331.714 92.0227V109H329.635V82.8182H331.663V86.9602H331.868C332.481 85.608 333.464 84.5227 334.817 83.7045C336.169 82.8864 337.777 82.4773 339.64 82.4773C341.402 82.4773 342.947 82.8523 344.277 83.6023C345.618 84.3523 346.663 85.4205 347.413 86.8068C348.175 88.1818 348.555 89.8239 348.555 91.733V109H346.476V91.8182C346.476 89.5909 345.811 87.8011 344.481 86.4489C343.163 85.0852 341.419 84.4034 339.248 84.4034C337.794 84.4034 336.498 84.7216 335.362 85.358C334.226 85.9943 333.334 86.8864 332.686 88.0341C332.038 89.1705 331.714 90.5 331.714 92.0227ZM383.237 109.545C381.078 109.545 379.157 108.966 377.475 107.807C375.794 106.636 374.47 105.028 373.504 102.983C372.538 100.937 372.055 98.608 372.055 95.9943C372.055 93.3693 372.538 91.0398 373.504 89.0057C374.47 86.9602 375.794 85.3523 377.475 84.1818C379.157 83.0114 381.078 82.4261 383.237 82.4261C385.396 82.4261 387.316 83.0114 388.998 84.1818C390.68 85.3523 392.004 86.9602 392.97 89.0057C393.936 91.0511 394.419 93.3807 394.419 95.9943C394.419 98.608 393.936 100.937 392.97 102.983C392.004 105.028 390.68 106.636 388.998 107.807C387.316 108.966 385.396 109.545 383.237 109.545ZM383.237 107.619C385.066 107.619 386.663 107.102 388.027 106.068C389.402 105.034 390.464 103.636 391.214 101.875C391.975 100.114 392.356 98.1534 392.356 95.9943C392.356 93.8352 391.975 91.8807 391.214 90.1307C390.453 88.3693 389.39 86.9716 388.027 85.9375C386.663 84.892 385.066 84.3693 383.237 84.3693C381.407 84.3693 379.811 84.892 378.447 85.9375C377.083 86.9716 376.021 88.3693 375.26 90.1307C374.498 91.8807 374.118 93.8352 374.118 95.9943C374.118 98.1534 374.493 100.114 375.243 101.875C376.004 103.636 377.066 105.034 378.43 106.068C379.805 107.102 381.407 107.619 383.237 107.619ZM411.468 82.8182V84.6761H399.86V82.8182H411.468ZM403.679 109V78.7443C403.679 77.4261 403.98 76.3011 404.582 75.3693C405.184 74.4375 405.974 73.7273 406.951 73.2386C407.94 72.75 409.002 72.5057 410.139 72.5057C410.741 72.5057 411.252 72.5568 411.673 72.6591C412.105 72.75 412.48 72.858 412.798 72.983L412.184 74.8239C411.923 74.733 411.639 74.6534 411.332 74.5852C411.037 74.517 410.684 74.483 410.275 74.483C408.957 74.483 407.872 74.8864 407.02 75.6932C406.167 76.5 405.741 77.625 405.741 79.0682L405.724 109H403.679ZM434.35 109V82.8182H436.413V109H434.35ZM435.39 78.1818C434.936 78.1818 434.538 78.0227 434.197 77.7045C433.867 77.3864 433.703 77 433.703 76.5455C433.703 76.0909 433.867 75.7045 434.197 75.3864C434.526 75.0682 434.924 74.9091 435.39 74.9091C435.845 74.9091 436.237 75.0682 436.566 75.3864C436.907 75.7045 437.078 76.0909 437.078 76.5455C437.078 77 436.913 77.3864 436.583 77.7045C436.254 78.0227 435.856 78.1818 435.39 78.1818ZM454.379 82.8182V84.6761H442.941V82.8182H454.379ZM446.811 76.5455H448.873V102.812C448.873 103.881 449.078 104.756 449.487 105.438C449.907 106.108 450.453 106.608 451.123 106.938C451.805 107.256 452.532 107.415 453.305 107.415C453.68 107.415 454.004 107.386 454.276 107.33C454.561 107.273 454.828 107.199 455.078 107.108L455.589 109C455.271 109.114 454.919 109.21 454.532 109.29C454.146 109.381 453.691 109.426 453.169 109.426C452.078 109.426 451.044 109.182 450.066 108.693C449.1 108.205 448.316 107.494 447.714 106.562C447.112 105.631 446.811 104.506 446.811 103.188V76.5455ZM478.259 88.4602L476.333 88.9716C476.026 88.017 475.589 87.1932 475.021 86.5C474.453 85.8068 473.737 85.2727 472.873 84.8977C472.021 84.5114 470.998 84.3182 469.805 84.3182C467.884 84.3182 466.311 84.7955 465.083 85.75C463.867 86.7045 463.259 87.9489 463.259 89.483C463.259 90.733 463.674 91.767 464.504 92.5852C465.333 93.392 466.6 94.0057 468.305 94.4261L472.328 95.4318C474.396 95.9432 475.953 96.7727 476.998 97.9205C478.044 99.0568 478.566 100.472 478.566 102.165C478.566 103.608 478.174 104.886 477.39 106C476.606 107.114 475.521 107.983 474.134 108.608C472.759 109.233 471.157 109.545 469.328 109.545C466.884 109.545 464.879 108.977 463.311 107.841C461.742 106.693 460.737 105.051 460.294 102.915L462.288 102.403C462.663 104.108 463.441 105.409 464.623 106.307C465.816 107.193 467.379 107.636 469.311 107.636C471.447 107.636 473.169 107.131 474.475 106.119C475.794 105.108 476.453 103.812 476.453 102.233C476.453 101.028 476.066 100.011 475.294 99.1818C474.521 98.3523 473.35 97.7443 471.782 97.358L467.606 96.3352C465.47 95.8125 463.867 94.9773 462.799 93.8295C461.731 92.6705 461.197 91.2443 461.197 89.5511C461.197 88.142 461.566 86.9034 462.305 85.8352C463.044 84.767 464.061 83.9318 465.356 83.3295C466.651 82.7273 468.134 82.4261 469.805 82.4261C472.021 82.4261 473.828 82.9489 475.225 83.9943C476.623 85.0398 477.634 86.5284 478.259 88.4602ZM511.957 82.8182V84.6761H500.349V82.8182H511.957ZM504.167 109V78.7443C504.167 77.4261 504.468 76.3011 505.07 75.3693C505.673 74.4375 506.462 73.7273 507.44 73.2386C508.428 72.75 509.491 72.5057 510.627 72.5057C511.229 72.5057 511.741 72.5568 512.161 72.6591C512.593 72.75 512.968 72.858 513.286 72.983L512.673 74.8239C512.411 74.733 512.127 74.6534 511.82 74.5852C511.525 74.517 511.173 74.483 510.763 74.483C509.445 74.483 508.36 74.8864 507.508 75.6932C506.656 76.5 506.229 77.625 506.229 79.0682L506.212 109H504.167ZM518.532 109V82.8182H520.594V109H518.532ZM519.572 78.1818C519.117 78.1818 518.719 78.0227 518.379 77.7045C518.049 77.3864 517.884 77 517.884 76.5455C517.884 76.0909 518.049 75.7045 518.379 75.3864C518.708 75.0682 519.106 74.9091 519.572 74.9091C520.026 74.9091 520.418 75.0682 520.748 75.3864C521.089 75.7045 521.259 76.0909 521.259 76.5455C521.259 77 521.094 77.3864 520.765 77.7045C520.435 78.0227 520.038 78.1818 519.572 78.1818ZM529.305 109V82.8182H531.333V86.9091H531.521C532.089 85.5682 533.049 84.4943 534.401 83.6875C535.754 82.8693 537.293 82.4602 539.021 82.4602C539.202 82.4602 539.384 82.4602 539.566 82.4602C539.748 82.4602 539.918 82.4659 540.077 82.4773V84.5739C539.941 84.5625 539.776 84.5455 539.583 84.5227C539.401 84.4886 539.174 84.4716 538.901 84.4716C537.447 84.4716 536.151 84.7841 535.015 85.4091C533.89 86.0341 533.004 86.8977 532.356 88C531.708 89.0909 531.384 90.3409 531.384 91.75V109H529.305ZM562.3 88.4602L560.374 88.9716C560.067 88.017 559.63 87.1932 559.062 86.5C558.494 85.8068 557.778 85.2727 556.914 84.8977C556.062 84.5114 555.039 84.3182 553.846 84.3182C551.925 84.3182 550.352 84.7955 549.124 85.75C547.908 86.7045 547.3 87.9489 547.3 89.483C547.3 90.733 547.715 91.767 548.545 92.5852C549.374 93.392 550.641 94.0057 552.346 94.4261L556.369 95.4318C558.437 95.9432 559.994 96.7727 561.039 97.9205C562.085 99.0568 562.607 100.472 562.607 102.165C562.607 103.608 562.215 104.886 561.431 106C560.647 107.114 559.562 107.983 558.175 108.608C556.8 109.233 555.198 109.545 553.369 109.545C550.925 109.545 548.92 108.977 547.352 107.841C545.783 106.693 544.778 105.051 544.335 102.915L546.329 102.403C546.704 104.108 547.482 105.409 548.664 106.307C549.857 107.193 551.42 107.636 553.352 107.636C555.488 107.636 557.21 107.131 558.516 106.119C559.835 105.108 560.494 103.812 560.494 102.233C560.494 101.028 560.107 100.011 559.335 99.1818C558.562 98.3523 557.391 97.7443 555.823 97.358L551.647 96.3352C549.511 95.8125 547.908 94.9773 546.84 93.8295C545.772 92.6705 545.238 91.2443 545.238 89.5511C545.238 88.142 545.607 86.9034 546.346 85.8352C547.085 84.767 548.102 83.9318 549.397 83.3295C550.692 82.7273 552.175 82.4261 553.846 82.4261C556.062 82.4261 557.869 82.9489 559.266 83.9943C560.664 85.0398 561.675 86.5284 562.3 88.4602ZM579.06 82.8182V84.6761H567.623V82.8182H579.06ZM571.492 76.5455H573.555V102.812C573.555 103.881 573.759 104.756 574.168 105.438C574.589 106.108 575.134 106.608 575.805 106.938C576.487 107.256 577.214 107.415 577.987 107.415C578.362 107.415 578.685 107.386 578.958 107.33C579.242 107.273 579.509 107.199 579.759 107.108L580.271 109C579.952 109.114 579.6 109.21 579.214 109.29C578.827 109.381 578.373 109.426 577.85 109.426C576.759 109.426 575.725 109.182 574.748 108.693C573.782 108.205 572.998 107.494 572.396 106.562C571.793 105.631 571.492 104.506 571.492 103.188V76.5455ZM612.898 109.545C610.671 109.545 608.711 108.96 607.018 107.79C605.324 106.608 604.001 104.994 603.046 102.949C602.103 100.903 601.631 98.5852 601.631 95.9943C601.631 93.4034 602.108 91.0852 603.063 89.0398C604.018 86.9943 605.341 85.3807 607.035 84.1989C608.728 83.017 610.677 82.4261 612.881 82.4261C614.54 82.4261 616.052 82.767 617.415 83.4489C618.79 84.1307 619.927 85.0795 620.824 86.2955C621.733 87.5114 622.313 88.9205 622.563 90.5227H620.449C620.108 88.75 619.256 87.2841 617.893 86.125C616.54 84.9545 614.876 84.3693 612.898 84.3693C611.126 84.3693 609.546 84.8693 608.16 85.8693C606.773 86.858 605.682 88.2273 604.887 89.9773C604.091 91.7159 603.694 93.7102 603.694 95.9602C603.694 98.1761 604.08 100.165 604.853 101.926C605.626 103.676 606.705 105.062 608.091 106.085C609.478 107.108 611.08 107.619 612.898 107.619C614.182 107.619 615.353 107.364 616.41 106.852C617.478 106.341 618.37 105.614 619.086 104.67C619.802 103.727 620.273 102.625 620.501 101.364H622.614C622.364 102.977 621.796 104.398 620.91 105.625C620.023 106.852 618.893 107.813 617.518 108.506C616.143 109.199 614.603 109.545 612.898 109.545ZM639.438 109.545C637.279 109.545 635.358 108.966 633.677 107.807C631.995 106.636 630.671 105.028 629.705 102.983C628.739 100.937 628.256 98.608 628.256 95.9943C628.256 93.3693 628.739 91.0398 629.705 89.0057C630.671 86.9602 631.995 85.3523 633.677 84.1818C635.358 83.0114 637.279 82.4261 639.438 82.4261C641.597 82.4261 643.518 83.0114 645.199 84.1818C646.881 85.3523 648.205 86.9602 649.171 89.0057C650.137 91.0511 650.62 93.3807 650.62 95.9943C650.62 98.608 650.137 100.937 649.171 102.983C648.205 105.028 646.881 106.636 645.199 107.807C643.518 108.966 641.597 109.545 639.438 109.545ZM639.438 107.619C641.268 107.619 642.864 107.102 644.228 106.068C645.603 105.034 646.665 103.636 647.415 101.875C648.177 100.114 648.557 98.1534 648.557 95.9943C648.557 93.8352 648.177 91.8807 647.415 90.1307C646.654 88.3693 645.591 86.9716 644.228 85.9375C642.864 84.892 641.268 84.3693 639.438 84.3693C637.608 84.3693 636.012 84.892 634.648 85.9375C633.285 86.9716 632.222 88.3693 631.461 90.1307C630.699 91.8807 630.319 93.8352 630.319 95.9943C630.319 98.1534 630.694 100.114 631.444 101.875C632.205 103.636 633.268 105.034 634.631 106.068C636.006 107.102 637.608 107.619 639.438 107.619ZM657.783 109V82.8182H659.812V86.7727H660.016C660.516 85.4545 661.38 84.4091 662.607 83.6364C663.834 82.8636 665.312 82.4773 667.039 82.4773C668.937 82.4773 670.465 82.9318 671.624 83.8409C672.795 84.75 673.635 85.983 674.147 87.5398H674.334C674.846 86.0057 675.76 84.7784 677.079 83.858C678.408 82.9375 680.045 82.4773 681.988 82.4773C684.522 82.4773 686.454 83.2784 687.783 84.8807C689.124 86.4716 689.795 88.6534 689.795 91.4261V109H687.715V91.4261C687.715 89.2443 687.192 87.5284 686.147 86.2784C685.101 85.0284 683.567 84.4034 681.545 84.4034C679.385 84.4034 677.726 85.0795 676.567 86.4318C675.408 87.7841 674.829 89.5057 674.829 91.5966V109H672.749V91.2898C672.749 89.2557 672.238 87.6023 671.215 86.3295C670.192 85.0455 668.658 84.4034 666.613 84.4034C665.226 84.4034 664.028 84.7216 663.016 85.358C662.016 85.9943 661.238 86.8693 660.681 87.983C660.135 89.0966 659.863 90.375 659.863 91.8182V109H657.783ZM698.424 109V82.8182H700.452V86.7727H700.657C701.157 85.4545 702.02 84.4091 703.248 83.6364C704.475 82.8636 705.952 82.4773 707.68 82.4773C709.577 82.4773 711.106 82.9318 712.265 83.8409C713.435 84.75 714.276 85.983 714.787 87.5398H714.975C715.486 86.0057 716.401 84.7784 717.719 83.858C719.049 82.9375 720.685 82.4773 722.628 82.4773C725.162 82.4773 727.094 83.2784 728.424 84.8807C729.765 86.4716 730.435 88.6534 730.435 91.4261V109H728.356V91.4261C728.356 89.2443 727.833 87.5284 726.787 86.2784C725.742 85.0284 724.208 84.4034 722.185 84.4034C720.026 84.4034 718.367 85.0795 717.208 86.4318C716.049 87.7841 715.469 89.5057 715.469 91.5966V109H713.39V91.2898C713.39 89.2557 712.878 87.6023 711.856 86.3295C710.833 85.0455 709.299 84.4034 707.253 84.4034C705.867 84.4034 704.668 84.7216 703.657 85.358C702.657 85.9943 701.878 86.8693 701.322 87.983C700.776 89.0966 700.503 90.375 700.503 91.8182V109H698.424ZM755.837 99.7102V82.8182H757.917V109H755.837V104.756H755.667C755.053 106.108 754.059 107.21 752.684 108.062C751.32 108.915 749.706 109.341 747.843 109.341C746.127 109.341 744.61 108.966 743.292 108.216C741.974 107.466 740.939 106.403 740.189 105.028C739.439 103.642 739.064 101.994 739.064 100.085V82.8182H741.144V100C741.144 102.182 741.803 103.949 743.121 105.301C744.451 106.642 746.167 107.312 748.269 107.312C749.633 107.312 750.888 107.006 752.036 106.392C753.184 105.778 754.104 104.903 754.797 103.767C755.491 102.619 755.837 101.267 755.837 99.7102ZM768.613 92.0227V109H766.533V82.8182H768.562V86.9602H768.766C769.38 85.608 770.363 84.5227 771.715 83.7045C773.067 82.8864 774.675 82.4773 776.539 82.4773C778.3 82.4773 779.846 82.8523 781.175 83.6023C782.516 84.3523 783.562 85.4205 784.312 86.8068C785.073 88.1818 785.454 89.8239 785.454 91.733V109H783.374V91.8182C783.374 89.5909 782.709 87.8011 781.38 86.4489C780.062 85.0852 778.317 84.4034 776.147 84.4034C774.692 84.4034 773.397 84.7216 772.26 85.358C771.124 85.9943 770.232 86.8864 769.584 88.0341C768.937 89.1705 768.613 90.5 768.613 92.0227ZM794.198 109V82.8182H796.26V109H794.198ZM795.238 78.1818C794.783 78.1818 794.385 78.0227 794.045 77.7045C793.715 77.3864 793.55 77 793.55 76.5455C793.55 76.0909 793.715 75.7045 794.045 75.3864C794.374 75.0682 794.772 74.9091 795.238 74.9091C795.692 74.9091 796.084 75.0682 796.414 75.3864C796.755 75.7045 796.925 76.0909 796.925 76.5455C796.925 77 796.76 77.3864 796.431 77.7045C796.101 78.0227 795.704 78.1818 795.238 78.1818ZM814.226 82.8182V84.6761H802.789V82.8182H814.226ZM806.658 76.5455H808.721V102.812C808.721 103.881 808.925 104.756 809.334 105.438C809.755 106.108 810.3 106.608 810.971 106.938C811.653 107.256 812.38 107.415 813.153 107.415C813.528 107.415 813.851 107.386 814.124 107.33C814.408 107.273 814.675 107.199 814.925 107.108L815.437 109C815.118 109.114 814.766 109.21 814.38 109.29C813.993 109.381 813.539 109.426 813.016 109.426C811.925 109.426 810.891 109.182 809.914 108.693C808.948 108.205 808.164 107.494 807.562 106.562C806.959 105.631 806.658 104.506 806.658 103.188V76.5455ZM823.61 118.818C823.087 118.818 822.57 118.761 822.059 118.648C821.547 118.534 821.087 118.386 820.678 118.205L821.292 116.381C822.36 116.79 823.326 116.938 824.189 116.824C825.064 116.71 825.837 116.313 826.508 115.631C827.178 114.949 827.746 113.949 828.212 112.631L829.405 109.358L819.809 82.8182H822.042L830.36 106.324H830.53L838.849 82.8182H841.081L830.036 113.449C829.616 114.631 829.087 115.619 828.451 116.415C827.814 117.21 827.087 117.807 826.269 118.205C825.462 118.614 824.576 118.818 823.61 118.818ZM873.142 82.8182V84.6761H861.705V82.8182H873.142ZM865.574 76.5455H867.637V102.812C867.637 103.881 867.841 104.756 868.25 105.438C868.671 106.108 869.216 106.608 869.887 106.938C870.569 107.256 871.296 107.415 872.069 107.415C872.444 107.415 872.767 107.386 873.04 107.33C873.324 107.273 873.591 107.199 873.841 107.108L874.353 109C874.034 109.114 873.682 109.21 873.296 109.29C872.909 109.381 872.455 109.426 871.932 109.426C870.841 109.426 869.807 109.182 868.83 108.693C867.864 108.205 867.08 107.494 866.478 106.562C865.875 105.631 865.574 104.506 865.574 103.188V76.5455ZM890.307 109.545C888.148 109.545 886.228 108.966 884.546 107.807C882.864 106.636 881.54 105.028 880.574 102.983C879.608 100.937 879.125 98.608 879.125 95.9943C879.125 93.3693 879.608 91.0398 880.574 89.0057C881.54 86.9602 882.864 85.3523 884.546 84.1818C886.228 83.0114 888.148 82.4261 890.307 82.4261C892.466 82.4261 894.387 83.0114 896.069 84.1818C897.75 85.3523 899.074 86.9602 900.04 89.0057C901.006 91.0511 901.489 93.3807 901.489 95.9943C901.489 98.608 901.006 100.937 900.04 102.983C899.074 105.028 897.75 106.636 896.069 107.807C894.387 108.966 892.466 109.545 890.307 109.545ZM890.307 107.619C892.137 107.619 893.733 107.102 895.097 106.068C896.472 105.034 897.534 103.636 898.284 101.875C899.046 100.114 899.426 98.1534 899.426 95.9943C899.426 93.8352 899.046 91.8807 898.284 90.1307C897.523 88.3693 896.461 86.9716 895.097 85.9375C893.733 84.892 892.137 84.3693 890.307 84.3693C888.478 84.3693 886.881 84.892 885.517 85.9375C884.154 86.9716 883.091 88.3693 882.33 90.1307C881.569 91.8807 881.188 93.8352 881.188 95.9943C881.188 98.1534 881.563 100.114 882.313 101.875C883.074 103.636 884.137 105.034 885.5 106.068C886.875 107.102 888.478 107.619 890.307 107.619ZM925.425 99.7102V82.8182H927.505V109H925.425V104.756H925.255C924.641 106.108 923.647 107.21 922.272 108.062C920.908 108.915 919.294 109.341 917.431 109.341C915.715 109.341 914.198 108.966 912.88 108.216C911.561 107.466 910.527 106.403 909.777 105.028C909.027 103.642 908.652 101.994 908.652 100.085V82.8182H910.732V100C910.732 102.182 911.391 103.949 912.709 105.301C914.039 106.642 915.755 107.312 917.857 107.312C919.221 107.312 920.476 107.006 921.624 106.392C922.772 105.778 923.692 104.903 924.385 103.767C925.078 102.619 925.425 101.267 925.425 99.7102ZM936.121 109V82.8182H938.15V86.9091H938.337C938.905 85.5682 939.865 84.4943 941.218 83.6875C942.57 82.8693 944.11 82.4602 945.837 82.4602C946.019 82.4602 946.201 82.4602 946.382 82.4602C946.564 82.4602 946.735 82.4659 946.894 82.4773V84.5739C946.757 84.5625 946.593 84.5455 946.4 84.5227C946.218 84.4886 945.99 84.4716 945.718 84.4716C944.263 84.4716 942.968 84.7841 941.831 85.4091C940.706 86.0341 939.82 86.8977 939.172 88C938.525 89.0909 938.201 90.3409 938.201 91.75V109H936.121ZM952.583 109V82.8182H954.645V109H952.583ZM953.623 78.1818C953.168 78.1818 952.77 78.0227 952.429 77.7045C952.1 77.3864 951.935 77 951.935 76.5455C951.935 76.0909 952.1 75.7045 952.429 75.3864C952.759 75.0682 953.157 74.9091 953.623 74.9091C954.077 74.9091 954.469 75.0682 954.799 75.3864C955.14 75.7045 955.31 76.0909 955.31 76.5455C955.31 77 955.145 77.3864 954.816 77.7045C954.486 78.0227 954.088 78.1818 953.623 78.1818ZM979.992 88.4602L978.066 88.9716C977.759 88.017 977.321 87.1932 976.753 86.5C976.185 85.8068 975.469 85.2727 974.605 84.8977C973.753 84.5114 972.73 84.3182 971.537 84.3182C969.617 84.3182 968.043 84.7955 966.816 85.75C965.6 86.7045 964.992 87.9489 964.992 89.483C964.992 90.733 965.407 91.767 966.236 92.5852C967.066 93.392 968.333 94.0057 970.037 94.4261L974.06 95.4318C976.128 95.9432 977.685 96.7727 978.73 97.9205C979.776 99.0568 980.299 100.472 980.299 102.165C980.299 103.608 979.907 104.886 979.123 106C978.338 107.114 977.253 107.983 975.867 108.608C974.492 109.233 972.89 109.545 971.06 109.545C968.617 109.545 966.611 108.977 965.043 107.841C963.475 106.693 962.469 105.051 962.026 102.915L964.02 102.403C964.395 104.108 965.174 105.409 966.355 106.307C967.549 107.193 969.111 107.636 971.043 107.636C973.179 107.636 974.901 107.131 976.208 106.119C977.526 105.108 978.185 103.812 978.185 102.233C978.185 101.028 977.799 100.011 977.026 99.1818C976.253 98.3523 975.083 97.7443 973.515 97.358L969.338 96.3352C967.202 95.8125 965.6 94.9773 964.532 93.8295C963.463 92.6705 962.929 91.2443 962.929 89.5511C962.929 88.142 963.299 86.9034 964.037 85.8352C964.776 84.767 965.793 83.9318 967.088 83.3295C968.384 82.7273 969.867 82.4261 971.537 82.4261C973.753 82.4261 975.56 82.9489 976.958 83.9943C978.355 85.0398 979.367 86.5284 979.992 88.4602ZM987.496 109V82.8182H989.525V86.7727H989.729C990.229 85.4545 991.093 84.4091 992.32 83.6364C993.547 82.8636 995.025 82.4773 996.752 82.4773C998.65 82.4773 1000.18 82.9318 1001.34 83.8409C1002.51 84.75 1003.35 85.983 1003.86 87.5398H1004.05C1004.56 86.0057 1005.47 84.7784 1006.79 83.858C1008.12 82.9375 1009.76 82.4773 1011.7 82.4773C1014.23 82.4773 1016.17 83.2784 1017.5 84.8807C1018.84 86.4716 1019.51 88.6534 1019.51 91.4261V109H1017.43V91.4261C1017.43 89.2443 1016.91 87.5284 1015.86 86.2784C1014.81 85.0284 1013.28 84.4034 1011.26 84.4034C1009.1 84.4034 1007.44 85.0795 1006.28 86.4318C1005.12 87.7841 1004.54 89.5057 1004.54 91.5966V109H1002.46V91.2898C1002.46 89.2557 1001.95 87.6023 1000.93 86.3295C999.905 85.0455 998.371 84.4034 996.326 84.4034C994.939 84.4034 993.74 84.7216 992.729 85.358C991.729 85.9943 990.951 86.8693 990.394 87.983C989.848 89.0966 989.576 90.375 989.576 91.8182V109H987.496ZM1044.55 109V82.8182H1046.61V109H1044.55ZM1045.59 78.1818C1045.13 78.1818 1044.73 78.0227 1044.39 77.7045C1044.06 77.3864 1043.9 77 1043.9 76.5455C1043.9 76.0909 1044.06 75.7045 1044.39 75.3864C1044.72 75.0682 1045.12 74.9091 1045.59 74.9091C1046.04 74.9091 1046.43 75.0682 1046.76 75.3864C1047.1 75.7045 1047.27 76.0909 1047.27 76.5455C1047.27 77 1047.11 77.3864 1046.78 77.7045C1046.45 78.0227 1046.05 78.1818 1045.59 78.1818ZM1057.4 92.0227V109H1055.32V82.8182H1057.35V86.9602H1057.55C1058.16 85.608 1059.15 84.5227 1060.5 83.7045C1061.85 82.8864 1063.46 82.4773 1065.32 82.4773C1067.09 82.4773 1068.63 82.8523 1069.96 83.6023C1071.3 84.3523 1072.35 85.4205 1073.1 86.8068C1073.86 88.1818 1074.24 89.8239 1074.24 91.733V109H1072.16V91.8182C1072.16 89.5909 1071.49 87.8011 1070.16 86.4489C1068.85 85.0852 1067.1 84.4034 1064.93 84.4034C1063.48 84.4034 1062.18 84.7216 1061.05 85.358C1059.91 85.9943 1059.02 86.8864 1058.37 88.0341C1057.72 89.1705 1057.4 90.5 1057.4 92.0227ZM1082.98 109V82.8182H1085.05V109H1082.98ZM1084.02 78.1818C1083.57 78.1818 1083.17 78.0227 1082.83 77.7045C1082.5 77.3864 1082.34 77 1082.34 76.5455C1082.34 76.0909 1082.5 75.7045 1082.83 75.3864C1083.16 75.0682 1083.56 74.9091 1084.02 74.9091C1084.48 74.9091 1084.87 75.0682 1085.2 75.3864C1085.54 75.7045 1085.71 76.0909 1085.71 76.5455C1085.71 77 1085.55 77.3864 1085.22 77.7045C1084.89 78.0227 1084.49 78.1818 1084.02 78.1818ZM1103.01 82.8182V84.6761H1091.57V82.8182H1103.01ZM1095.44 76.5455H1097.51V102.812C1097.51 103.881 1097.71 104.756 1098.12 105.438C1098.54 106.108 1099.09 106.608 1099.76 106.938C1100.44 107.256 1101.16 107.415 1101.94 107.415C1102.31 107.415 1102.64 107.386 1102.91 107.33C1103.19 107.273 1103.46 107.199 1103.71 107.108L1104.22 109C1103.9 109.114 1103.55 109.21 1103.16 109.29C1102.78 109.381 1102.32 109.426 1101.8 109.426C1100.71 109.426 1099.68 109.182 1098.7 108.693C1097.73 108.205 1096.95 107.494 1096.35 106.562C1095.74 105.631 1095.44 104.506 1095.44 103.188V76.5455ZM1110.83 109V82.8182H1112.89V109H1110.83ZM1111.87 78.1818C1111.41 78.1818 1111.01 78.0227 1110.67 77.7045C1110.34 77.3864 1110.18 77 1110.18 76.5455C1110.18 76.0909 1110.34 75.7045 1110.67 75.3864C1111 75.0682 1111.4 74.9091 1111.87 74.9091C1112.32 74.9091 1112.71 75.0682 1113.04 75.3864C1113.38 75.7045 1113.55 76.0909 1113.55 76.5455C1113.55 77 1113.39 77.3864 1113.06 77.7045C1112.73 78.0227 1112.33 78.1818 1111.87 78.1818ZM1128.54 109.562C1127.03 109.562 1125.64 109.261 1124.38 108.659C1123.13 108.057 1122.12 107.176 1121.36 106.017C1120.61 104.858 1120.24 103.449 1120.24 101.79C1120.24 100.699 1120.43 99.7386 1120.82 98.9091C1121.2 98.0795 1121.8 97.3636 1122.61 96.7614C1123.41 96.1591 1124.45 95.6648 1125.71 95.2784C1126.97 94.8807 1128.47 94.5739 1130.22 94.358C1131.55 94.1989 1132.74 94.0455 1133.79 93.8977C1134.83 93.7386 1135.65 93.4943 1136.24 93.1648C1136.84 92.8352 1137.15 92.3352 1137.15 91.6648V90.5739C1137.15 88.6648 1136.54 87.1477 1135.34 86.0227C1134.13 84.8977 1132.47 84.3352 1130.36 84.3352C1128.49 84.3352 1126.91 84.75 1125.62 85.5795C1124.35 86.3977 1123.46 87.4545 1122.95 88.75L1120.99 88.017C1121.49 86.767 1122.21 85.7273 1123.15 84.8977C1124.11 84.0682 1125.2 83.4489 1126.42 83.0398C1127.66 82.6307 1128.96 82.4261 1130.31 82.4261C1131.48 82.4261 1132.59 82.5909 1133.65 82.9205C1134.72 83.25 1135.67 83.75 1136.5 84.4205C1137.34 85.0909 1138 85.9489 1138.49 86.9943C1138.98 88.0284 1139.22 89.267 1139.22 90.7102V109H1137.15V104.278H1136.99C1136.54 105.256 1135.91 106.148 1135.12 106.955C1134.33 107.75 1133.38 108.386 1132.27 108.864C1131.17 109.33 1129.92 109.562 1128.54 109.562ZM1128.74 107.636C1130.38 107.636 1131.83 107.239 1133.09 106.443C1134.36 105.636 1135.36 104.534 1136.07 103.136C1136.79 101.739 1137.15 100.153 1137.15 98.3807V94.5284C1136.88 94.7557 1136.5 94.9602 1136 95.142C1135.51 95.3125 1134.96 95.4659 1134.33 95.6023C1133.72 95.7273 1133.07 95.8409 1132.39 95.9432C1131.72 96.0341 1131.07 96.1193 1130.43 96.1989C1128.52 96.4261 1126.96 96.7784 1125.76 97.2557C1124.57 97.7216 1123.69 98.3352 1123.13 99.0966C1122.59 99.858 1122.32 100.778 1122.32 101.858C1122.32 103.642 1122.93 105.051 1124.16 106.085C1125.38 107.119 1126.91 107.636 1128.74 107.636ZM1157.2 82.8182V84.6761H1145.76V82.8182H1157.2ZM1149.63 76.5455H1151.69V102.812C1151.69 103.881 1151.9 104.756 1152.31 105.438C1152.73 106.108 1153.27 106.608 1153.94 106.938C1154.63 107.256 1155.35 107.415 1156.13 107.415C1156.5 107.415 1156.82 107.386 1157.1 107.33C1157.38 107.273 1157.65 107.199 1157.9 107.108L1158.41 109C1158.09 109.114 1157.74 109.21 1157.35 109.29C1156.97 109.381 1156.51 109.426 1155.99 109.426C1154.9 109.426 1153.86 109.182 1152.89 108.693C1151.92 108.205 1151.14 107.494 1150.53 106.562C1149.93 105.631 1149.63 104.506 1149.63 103.188V76.5455ZM1165.01 109V82.8182H1167.08V109H1165.01ZM1166.05 78.1818C1165.6 78.1818 1165.2 78.0227 1164.86 77.7045C1164.53 77.3864 1164.37 77 1164.37 76.5455C1164.37 76.0909 1164.53 75.7045 1164.86 75.3864C1165.19 75.0682 1165.59 74.9091 1166.05 74.9091C1166.51 74.9091 1166.9 75.0682 1167.23 75.3864C1167.57 75.7045 1167.74 76.0909 1167.74 76.5455C1167.74 77 1167.58 77.3864 1167.25 77.7045C1166.92 78.0227 1166.52 78.1818 1166.05 78.1818ZM1194.93 82.8182L1185.47 109H1183.12L1173.66 82.8182H1175.89L1184.21 106.324H1184.38L1192.7 82.8182H1194.93ZM1210.7 109.545C1208.34 109.545 1206.28 108.96 1204.53 107.79C1202.78 106.619 1201.43 105.017 1200.47 102.983C1199.52 100.949 1199.04 98.6307 1199.04 96.0284C1199.04 93.4148 1199.52 91.0852 1200.47 89.0398C1201.44 86.9943 1202.76 85.3807 1204.44 84.1989C1206.13 83.017 1208.05 82.4261 1210.21 82.4261C1211.67 82.4261 1213.06 82.7216 1214.37 83.3125C1215.68 83.892 1216.84 84.733 1217.84 85.8352C1218.85 86.9375 1219.64 88.267 1220.21 89.8239C1220.79 91.3807 1221.08 93.1307 1221.08 95.0739V96.3693H1200.35V94.4773H1219C1219 92.5795 1218.62 90.8693 1217.84 89.3466C1217.07 87.8239 1216.02 86.6136 1214.69 85.7159C1213.36 84.8182 1211.87 84.3693 1210.21 84.3693C1208.47 84.3693 1206.92 84.858 1205.55 85.8352C1204.2 86.8011 1203.13 88.108 1202.33 89.7557C1201.55 91.4034 1201.14 93.2443 1201.1 95.2784V96.1307C1201.1 98.3125 1201.48 100.273 1202.25 102.011C1203.02 103.739 1204.12 105.108 1205.55 106.119C1206.98 107.119 1208.7 107.619 1210.7 107.619C1212.13 107.619 1213.35 107.381 1214.37 106.903C1215.39 106.415 1216.22 105.824 1216.87 105.131C1217.52 104.437 1218.01 103.767 1218.34 103.119L1220.23 103.886C1219.83 104.761 1219.21 105.636 1218.37 106.511C1217.54 107.375 1216.48 108.097 1215.2 108.676C1213.93 109.256 1212.43 109.545 1210.7 109.545ZM1245.28 109V74.0909H1247.34V88.6648H1247.55C1247.96 87.5398 1248.54 86.5057 1249.29 85.5625C1250.04 84.6193 1250.97 83.8636 1252.08 83.2955C1253.19 82.7159 1254.5 82.4261 1255.98 82.4261C1258.09 82.4261 1259.92 83.0114 1261.49 84.1818C1263.06 85.3409 1264.27 86.9432 1265.14 88.9886C1266 91.0227 1266.43 93.3523 1266.43 95.9773C1266.43 98.625 1266 100.972 1265.14 103.017C1264.27 105.051 1263.06 106.648 1261.51 107.807C1259.95 108.966 1258.12 109.545 1256 109.545C1254.51 109.545 1253.21 109.261 1252.1 108.693C1250.98 108.114 1250.05 107.352 1249.3 106.409C1248.55 105.455 1247.97 104.415 1247.55 103.29H1247.31V109H1245.28ZM1247.33 95.9602C1247.33 98.1875 1247.66 100.182 1248.33 101.943C1249.01 103.693 1249.99 105.08 1251.26 106.102C1252.54 107.114 1254.06 107.619 1255.83 107.619C1257.63 107.619 1259.16 107.108 1260.43 106.085C1261.71 105.051 1262.68 103.653 1263.35 101.892C1264.03 100.131 1264.37 98.1534 1264.37 95.9602C1264.37 93.767 1264.03 91.7955 1263.35 90.0455C1262.68 88.2955 1261.71 86.9148 1260.43 85.9034C1259.16 84.8807 1257.63 84.3693 1255.83 84.3693C1254.06 84.3693 1252.54 84.875 1251.26 85.8864C1249.99 86.8864 1249.01 88.2614 1248.33 90.0114C1247.66 91.75 1247.33 93.733 1247.33 95.9602ZM1274.34 118.818C1273.82 118.818 1273.3 118.761 1272.79 118.648C1272.28 118.534 1271.82 118.386 1271.41 118.205L1272.02 116.381C1273.09 116.79 1274.06 116.938 1274.92 116.824C1275.8 116.71 1276.57 116.313 1277.24 115.631C1277.91 114.949 1278.48 113.949 1278.94 112.631L1280.14 109.358L1270.54 82.8182H1272.77L1281.09 106.324H1281.26L1289.58 82.8182H1291.81L1280.77 113.449C1280.35 114.631 1279.82 115.619 1279.18 116.415C1278.55 117.21 1277.82 117.807 1277 118.205C1276.19 118.614 1275.31 118.818 1274.34 118.818ZM399.974 181.222C399.463 181.222 399.026 181.045 398.662 180.693C398.31 180.33 398.134 179.892 398.134 179.381C398.134 178.881 398.31 178.449 398.662 178.085C399.026 177.722 399.463 177.54 399.974 177.54C400.474 177.54 400.906 177.722 401.27 178.085C401.634 178.449 401.815 178.881 401.815 179.381C401.815 179.722 401.73 180.034 401.56 180.318C401.401 180.591 401.179 180.812 400.895 180.983C400.622 181.142 400.315 181.222 399.974 181.222Z" fill="black"/>
<path d="M5.17614 146.091V181H3.04545V146.091H5.17614ZM14.5469 181V154.818H16.5753V158.909H16.7628C17.331 157.568 18.2912 156.494 19.6435 155.688C20.9957 154.869 22.5355 154.46 24.2628 154.46C24.4446 154.46 24.6264 154.46 24.8082 154.46C24.9901 154.46 25.1605 154.466 25.3196 154.477V156.574C25.1832 156.562 25.0185 156.545 24.8253 156.523C24.6435 156.489 24.4162 156.472 24.1435 156.472C22.6889 156.472 21.3935 156.784 20.2571 157.409C19.1321 158.034 18.2457 158.898 17.598 160C16.9503 161.091 16.6264 162.341 16.6264 163.75V181H14.5469ZM37.8438 181.562C36.3324 181.562 34.946 181.261 33.6847 180.659C32.4347 180.057 31.429 179.176 30.6676 178.017C29.9176 176.858 29.5426 175.449 29.5426 173.79C29.5426 172.699 29.7358 171.739 30.1222 170.909C30.5085 170.08 31.1051 169.364 31.9119 168.761C32.7188 168.159 33.7528 167.665 35.0142 167.278C36.2756 166.881 37.7812 166.574 39.5312 166.358C40.8608 166.199 42.0483 166.045 43.0938 165.898C44.1392 165.739 44.9574 165.494 45.5483 165.165C46.1506 164.835 46.4517 164.335 46.4517 163.665V162.574C46.4517 160.665 45.8494 159.148 44.6449 158.023C43.4403 156.898 41.7813 156.335 39.6676 156.335C37.7926 156.335 36.2131 156.75 34.929 157.58C33.6563 158.398 32.7642 159.455 32.2528 160.75L30.2926 160.017C30.7926 158.767 31.5142 157.727 32.4574 156.898C33.4119 156.068 34.5028 155.449 35.7301 155.04C36.9688 154.631 38.2642 154.426 39.6165 154.426C40.7869 154.426 41.9006 154.591 42.9574 154.92C44.0256 155.25 44.9744 155.75 45.804 156.42C46.6449 157.091 47.3097 157.949 47.7983 158.994C48.2869 160.028 48.5312 161.267 48.5312 162.71V181H46.4517V176.278H46.2983C45.8438 177.256 45.2188 178.148 44.4233 178.955C43.6392 179.75 42.6903 180.386 41.5767 180.864C40.4744 181.33 39.2301 181.562 37.8438 181.562ZM38.0483 179.636C39.6847 179.636 41.1335 179.239 42.3949 178.443C43.6676 177.636 44.6619 176.534 45.3778 175.136C46.0938 173.739 46.4517 172.153 46.4517 170.381V166.528C46.1903 166.756 45.8097 166.96 45.3097 167.142C44.821 167.312 44.2642 167.466 43.6392 167.602C43.0256 167.727 42.3778 167.841 41.696 167.943C41.0256 168.034 40.3722 168.119 39.7358 168.199C37.8267 168.426 36.2699 168.778 35.0653 169.256C33.8722 169.722 32.9972 170.335 32.4403 171.097C31.8949 171.858 31.6222 172.778 31.6222 173.858C31.6222 175.642 32.2358 177.051 33.4631 178.085C34.6903 179.119 36.2188 179.636 38.0483 179.636ZM57.983 181V146.091H60.0455V160.665H60.25C60.6591 159.54 61.2386 158.506 61.9886 157.562C62.7386 156.619 63.6705 155.864 64.7841 155.295C65.8977 154.716 67.1989 154.426 68.6875 154.426C70.7898 154.426 72.625 155.011 74.1932 156.182C75.7614 157.341 76.9773 158.943 77.8409 160.989C78.7045 163.023 79.1364 165.352 79.1364 167.977C79.1364 170.625 78.7045 172.972 77.8409 175.017C76.9773 177.051 75.767 178.648 74.2102 179.807C72.6534 180.966 70.8182 181.545 68.7045 181.545C67.2159 181.545 65.9148 181.261 64.8011 180.693C63.6875 180.114 62.7557 179.352 62.0057 178.409C61.2557 177.455 60.6705 176.415 60.25 175.29H60.0114V181H57.983ZM60.0284 167.96C60.0284 170.187 60.3636 172.182 61.0341 173.943C61.7159 175.693 62.6932 177.08 63.9659 178.102C65.2386 179.114 66.7614 179.619 68.5341 179.619C70.3295 179.619 71.8636 179.108 73.1364 178.085C74.4091 177.051 75.3807 175.653 76.0511 173.892C76.733 172.131 77.0739 170.153 77.0739 167.96C77.0739 165.767 76.733 163.795 76.0511 162.045C75.3807 160.295 74.4091 158.915 73.1364 157.903C71.8636 156.881 70.3295 156.369 68.5341 156.369C66.7614 156.369 65.2386 156.875 63.9659 157.886C62.6932 158.886 61.7159 160.261 61.0341 162.011C60.3636 163.75 60.0284 165.733 60.0284 167.96ZM96.0455 181.545C93.8864 181.545 91.9659 180.966 90.2841 179.807C88.6023 178.636 87.2784 177.028 86.3125 174.983C85.3466 172.937 84.8636 170.608 84.8636 167.994C84.8636 165.369 85.3466 163.04 86.3125 161.006C87.2784 158.96 88.6023 157.352 90.2841 156.182C91.9659 155.011 93.8864 154.426 96.0455 154.426C98.2045 154.426 100.125 155.011 101.807 156.182C103.489 157.352 104.813 158.96 105.778 161.006C106.744 163.051 107.227 165.381 107.227 167.994C107.227 170.608 106.744 172.937 105.778 174.983C104.813 177.028 103.489 178.636 101.807 179.807C100.125 180.966 98.2045 181.545 96.0455 181.545ZM96.0455 179.619C97.875 179.619 99.4716 179.102 100.835 178.068C102.21 177.034 103.273 175.636 104.023 173.875C104.784 172.114 105.165 170.153 105.165 167.994C105.165 165.835 104.784 163.881 104.023 162.131C103.261 160.369 102.199 158.972 100.835 157.938C99.4716 156.892 97.875 156.369 96.0455 156.369C94.2159 156.369 92.6193 156.892 91.2557 157.938C89.892 158.972 88.8295 160.369 88.0682 162.131C87.3068 163.881 86.9261 165.835 86.9261 167.994C86.9261 170.153 87.3011 172.114 88.0511 173.875C88.8125 175.636 89.875 177.034 91.2386 178.068C92.6136 179.102 94.2159 179.619 96.0455 179.619ZM123.646 154.818V156.676H112.209V154.818H123.646ZM116.078 148.545H118.141V174.812C118.141 175.881 118.345 176.756 118.754 177.438C119.175 178.108 119.72 178.608 120.391 178.938C121.072 179.256 121.8 179.415 122.572 179.415C122.947 179.415 123.271 179.386 123.544 179.33C123.828 179.273 124.095 179.199 124.345 179.108L124.857 181C124.538 181.114 124.186 181.21 123.8 181.29C123.413 181.381 122.959 181.426 122.436 181.426C121.345 181.426 120.311 181.182 119.334 180.693C118.368 180.205 117.584 179.494 116.982 178.562C116.379 177.631 116.078 176.506 116.078 175.188V148.545ZM131.462 181V154.818H133.524V181H131.462ZM132.501 150.182C132.047 150.182 131.649 150.023 131.308 149.705C130.979 149.386 130.814 149 130.814 148.545C130.814 148.091 130.979 147.705 131.308 147.386C131.638 147.068 132.036 146.909 132.501 146.909C132.956 146.909 133.348 147.068 133.678 147.386C134.018 147.705 134.189 148.091 134.189 148.545C134.189 149 134.024 149.386 133.695 149.705C133.365 150.023 132.967 150.182 132.501 150.182ZM155.513 165.045V167.023H141.74V165.045H155.513Z" fill="#FF6B00"/>
<path d="M173.866 181.545C171.503 181.545 169.446 180.96 167.696 179.79C165.946 178.619 164.594 177.017 163.639 174.983C162.685 172.949 162.207 170.631 162.207 168.028C162.207 165.415 162.685 163.085 163.639 161.04C164.605 158.994 165.929 157.381 167.611 156.199C169.293 155.017 171.213 154.426 173.372 154.426C174.838 154.426 176.224 154.722 177.531 155.312C178.849 155.892 180.009 156.733 181.009 157.835C182.02 158.937 182.81 160.267 183.378 161.824C183.957 163.381 184.247 165.131 184.247 167.074V168.369H163.52V166.477H182.168C182.168 164.58 181.781 162.869 181.009 161.347C180.236 159.824 179.185 158.614 177.855 157.716C176.526 156.818 175.031 156.369 173.372 156.369C171.634 156.369 170.082 156.858 168.719 157.835C167.366 158.801 166.293 160.108 165.497 161.756C164.713 163.403 164.304 165.244 164.27 167.278V168.131C164.27 170.312 164.651 172.273 165.412 174.011C166.185 175.739 167.287 177.108 168.719 178.119C170.151 179.119 171.866 179.619 173.866 179.619C175.298 179.619 176.52 179.381 177.531 178.903C178.554 178.415 179.389 177.824 180.037 177.131C180.685 176.437 181.173 175.767 181.503 175.119L183.395 175.886C182.997 176.761 182.378 177.636 181.537 178.511C180.707 179.375 179.651 180.097 178.366 180.676C177.094 181.256 175.594 181.545 173.866 181.545ZM201.224 181.545C198.997 181.545 197.037 180.96 195.344 179.79C193.651 178.608 192.327 176.994 191.372 174.949C190.429 172.903 189.957 170.585 189.957 167.994C189.957 165.403 190.435 163.085 191.389 161.04C192.344 158.994 193.668 157.381 195.361 156.199C197.054 155.017 199.003 154.426 201.207 154.426C202.866 154.426 204.378 154.767 205.741 155.449C207.116 156.131 208.253 157.08 209.151 158.295C210.06 159.511 210.639 160.92 210.889 162.523H208.776C208.435 160.75 207.582 159.284 206.219 158.125C204.866 156.955 203.202 156.369 201.224 156.369C199.452 156.369 197.872 156.869 196.486 157.869C195.099 158.858 194.009 160.227 193.213 161.977C192.418 163.716 192.02 165.71 192.02 167.96C192.02 170.176 192.406 172.165 193.179 173.926C193.952 175.676 195.031 177.062 196.418 178.085C197.804 179.108 199.406 179.619 201.224 179.619C202.509 179.619 203.679 179.364 204.736 178.852C205.804 178.341 206.696 177.614 207.412 176.67C208.128 175.727 208.599 174.625 208.827 173.364H210.94C210.69 174.977 210.122 176.398 209.236 177.625C208.349 178.852 207.219 179.813 205.844 180.506C204.469 181.199 202.929 181.545 201.224 181.545ZM227.764 181.545C225.605 181.545 223.685 180.966 222.003 179.807C220.321 178.636 218.997 177.028 218.031 174.983C217.065 172.937 216.582 170.608 216.582 167.994C216.582 165.369 217.065 163.04 218.031 161.006C218.997 158.96 220.321 157.352 222.003 156.182C223.685 155.011 225.605 154.426 227.764 154.426C229.923 154.426 231.844 155.011 233.526 156.182C235.207 157.352 236.531 158.96 237.497 161.006C238.463 163.051 238.946 165.381 238.946 167.994C238.946 170.608 238.463 172.937 237.497 174.983C236.531 177.028 235.207 178.636 233.526 179.807C231.844 180.966 229.923 181.545 227.764 181.545ZM227.764 179.619C229.594 179.619 231.19 179.102 232.554 178.068C233.929 177.034 234.991 175.636 235.741 173.875C236.503 172.114 236.884 170.153 236.884 167.994C236.884 165.835 236.503 163.881 235.741 162.131C234.98 160.369 233.918 158.972 232.554 157.938C231.19 156.892 229.594 156.369 227.764 156.369C225.935 156.369 224.338 156.892 222.974 157.938C221.611 158.972 220.548 160.369 219.787 162.131C219.026 163.881 218.645 165.835 218.645 167.994C218.645 170.153 219.02 172.114 219.77 173.875C220.531 175.636 221.594 177.034 222.957 178.068C224.332 179.102 225.935 179.619 227.764 179.619ZM259.388 165.045V167.023H245.615V165.045H259.388ZM267.531 181V154.818H269.56V158.909H269.747C270.315 157.568 271.276 156.494 272.628 155.688C273.98 154.869 275.52 154.46 277.247 154.46C277.429 154.46 277.611 154.46 277.793 154.46C277.974 154.46 278.145 154.466 278.304 154.477V156.574C278.168 156.562 278.003 156.545 277.81 156.523C277.628 156.489 277.401 156.472 277.128 156.472C275.673 156.472 274.378 156.784 273.241 157.409C272.116 158.034 271.23 158.898 270.582 160C269.935 161.091 269.611 162.341 269.611 163.75V181H267.531ZM293.304 181.545C290.94 181.545 288.884 180.96 287.134 179.79C285.384 178.619 284.031 177.017 283.077 174.983C282.122 172.949 281.645 170.631 281.645 168.028C281.645 165.415 282.122 163.085 283.077 161.04C284.043 158.994 285.366 157.381 287.048 156.199C288.73 155.017 290.651 154.426 292.81 154.426C294.276 154.426 295.662 154.722 296.969 155.312C298.287 155.892 299.446 156.733 300.446 157.835C301.457 158.937 302.247 160.267 302.815 161.824C303.395 163.381 303.685 165.131 303.685 167.074V168.369H282.957V166.477H301.605C301.605 164.58 301.219 162.869 300.446 161.347C299.673 159.824 298.622 158.614 297.293 157.716C295.963 156.818 294.469 156.369 292.81 156.369C291.071 156.369 289.52 156.858 288.156 157.835C286.804 158.801 285.73 160.108 284.935 161.756C284.151 163.403 283.741 165.244 283.707 167.278V168.131C283.707 170.312 284.088 172.273 284.849 174.011C285.622 175.739 286.724 177.108 288.156 178.119C289.588 179.119 291.304 179.619 293.304 179.619C294.736 179.619 295.957 179.381 296.969 178.903C297.991 178.415 298.827 177.824 299.474 177.131C300.122 176.437 300.611 175.767 300.94 175.119L302.832 175.886C302.435 176.761 301.815 177.636 300.974 178.511C300.145 179.375 299.088 180.097 297.804 180.676C296.531 181.256 295.031 181.545 293.304 181.545ZM327.48 160.46L325.554 160.972C325.247 160.017 324.81 159.193 324.241 158.5C323.673 157.807 322.957 157.273 322.094 156.898C321.241 156.511 320.219 156.318 319.026 156.318C317.105 156.318 315.531 156.795 314.304 157.75C313.088 158.705 312.48 159.949 312.48 161.483C312.48 162.733 312.895 163.767 313.724 164.585C314.554 165.392 315.821 166.006 317.526 166.426L321.548 167.432C323.616 167.943 325.173 168.773 326.219 169.92C327.264 171.057 327.787 172.472 327.787 174.165C327.787 175.608 327.395 176.886 326.611 178C325.827 179.114 324.741 179.983 323.355 180.608C321.98 181.233 320.378 181.545 318.548 181.545C316.105 181.545 314.099 180.977 312.531 179.841C310.963 178.693 309.957 177.051 309.514 174.915L311.509 174.403C311.884 176.108 312.662 177.409 313.844 178.307C315.037 179.193 316.599 179.636 318.531 179.636C320.668 179.636 322.389 179.131 323.696 178.119C325.014 177.108 325.673 175.812 325.673 174.233C325.673 173.028 325.287 172.011 324.514 171.182C323.741 170.352 322.571 169.744 321.003 169.358L316.827 168.335C314.69 167.812 313.088 166.977 312.02 165.83C310.952 164.67 310.418 163.244 310.418 161.551C310.418 160.142 310.787 158.903 311.526 157.835C312.264 156.767 313.281 155.932 314.577 155.33C315.872 154.727 317.355 154.426 319.026 154.426C321.241 154.426 323.048 154.949 324.446 155.994C325.844 157.04 326.855 158.528 327.48 160.46ZM344.717 181.545C342.558 181.545 340.638 180.966 338.956 179.807C337.274 178.636 335.95 177.028 334.984 174.983C334.018 172.937 333.536 170.608 333.536 167.994C333.536 165.369 334.018 163.04 334.984 161.006C335.95 158.96 337.274 157.352 338.956 156.182C340.638 155.011 342.558 154.426 344.717 154.426C346.876 154.426 348.797 155.011 350.479 156.182C352.161 157.352 353.484 158.96 354.45 161.006C355.416 163.051 355.899 165.381 355.899 167.994C355.899 170.608 355.416 172.937 354.45 174.983C353.484 177.028 352.161 178.636 350.479 179.807C348.797 180.966 346.876 181.545 344.717 181.545ZM344.717 179.619C346.547 179.619 348.143 179.102 349.507 178.068C350.882 177.034 351.945 175.636 352.695 173.875C353.456 172.114 353.837 170.153 353.837 167.994C353.837 165.835 353.456 163.881 352.695 162.131C351.933 160.369 350.871 158.972 349.507 157.938C348.143 156.892 346.547 156.369 344.717 156.369C342.888 156.369 341.291 156.892 339.928 157.938C338.564 158.972 337.501 160.369 336.74 162.131C335.979 163.881 335.598 165.835 335.598 167.994C335.598 170.153 335.973 172.114 336.723 173.875C337.484 175.636 338.547 177.034 339.911 178.068C341.286 179.102 342.888 179.619 344.717 179.619ZM363.062 181V154.818H365.091V158.909H365.278C365.847 157.568 366.807 156.494 368.159 155.688C369.511 154.869 371.051 154.46 372.778 154.46C372.96 154.46 373.142 154.46 373.324 154.46C373.506 154.46 373.676 154.466 373.835 154.477V156.574C373.699 156.562 373.534 156.545 373.341 156.523C373.159 156.489 372.932 156.472 372.659 156.472C371.205 156.472 369.909 156.784 368.773 157.409C367.648 158.034 366.761 158.898 366.114 160C365.466 161.091 365.142 162.341 365.142 163.75V181H363.062ZM390.318 154.818V156.676H378.881V154.818H390.318ZM382.75 148.545H384.812V174.812C384.812 175.881 385.017 176.756 385.426 177.438C385.847 178.108 386.392 178.608 387.062 178.938C387.744 179.256 388.472 179.415 389.244 179.415C389.619 179.415 389.943 179.386 390.216 179.33C390.5 179.273 390.767 179.199 391.017 179.108L391.528 181C391.21 181.114 390.858 181.21 390.472 181.29C390.085 181.381 389.631 181.426 389.108 181.426C388.017 181.426 386.983 181.182 386.006 180.693C385.04 180.205 384.256 179.494 383.653 178.562C383.051 177.631 382.75 176.506 382.75 175.188V148.545Z" fill="#343434"/>
</svg>
