<svg width="1439" height="190" viewBox="0 0 1439 190" fill="none" xmlns="http://www.w3.org/2000/svg">
<line x1="509.75" y1="13" x2="573.75" y2="13" stroke="white"/>
<path d="M598.803 0.295998C599.187 0.295998 599.595 0.319999 600.027 0.368C600.483 0.415999 600.915 0.487999 601.323 0.583999C601.755 0.655999 602.139 0.739999 602.475 0.835998C602.835 0.907998 603.111 0.991999 603.303 1.088V5.084H602.979C602.979 3.932 602.583 3.032 601.791 2.384C600.999 1.712 600.039 1.376 598.911 1.376C597.591 1.376 596.523 1.796 595.707 2.636C594.891 3.452 594.483 4.412 594.483 5.516C594.483 5.972 594.579 6.512 594.771 7.136C594.987 7.736 595.371 8.3 595.923 8.828L603.015 15.38C603.735 16.052 604.215 16.772 604.455 17.54C604.695 18.308 604.815 19.052 604.815 19.772C604.815 21.764 604.203 23.384 602.979 24.632C601.779 25.88 600.147 26.504 598.083 26.504C597.507 26.504 596.823 26.444 596.031 26.324C595.263 26.204 594.507 26 593.763 25.712C593.043 25.4 592.443 25.004 591.963 24.524C591.891 24.14 591.855 23.66 591.855 23.084C591.855 22.508 591.903 21.908 591.999 21.284C592.095 20.636 592.227 20.048 592.395 19.52H592.719C592.599 20.744 592.755 21.812 593.187 22.724C593.619 23.636 594.243 24.332 595.059 24.812C595.899 25.268 596.847 25.472 597.903 25.424C599.223 25.352 600.351 24.896 601.287 24.056C602.247 23.192 602.727 22.04 602.727 20.6C602.727 19.904 602.607 19.28 602.367 18.728C602.127 18.152 601.779 17.66 601.323 17.252L594.411 10.844C593.691 10.172 593.187 9.44 592.899 8.648C592.611 7.832 592.467 7.076 592.467 6.38C592.467 5.372 592.707 4.4 593.187 3.464C593.667 2.528 594.375 1.772 595.311 1.196C596.271 0.595999 597.435 0.295998 598.803 0.295998ZM603.303 0.655998V1.412H600.567V0.655998H603.303ZM615.077 0.799998V16.64C615.077 18.368 615.389 19.892 616.013 21.212C616.661 22.532 617.561 23.564 618.713 24.308C619.865 25.028 621.197 25.388 622.709 25.388C624.317 25.388 625.721 25.04 626.921 24.344C628.121 23.648 629.057 22.688 629.729 21.464C630.401 20.216 630.737 18.764 630.737 17.108V0.799998H632.429V17.108C632.429 18.98 632.021 20.624 631.205 22.04C630.413 23.432 629.285 24.524 627.821 25.316C626.357 26.108 624.653 26.504 622.709 26.504C620.717 26.504 618.965 26.12 617.453 25.352C615.965 24.56 614.801 23.468 613.961 22.076C613.145 20.66 612.737 19.016 612.737 17.144V0.799998H615.077ZM612.845 0.799998V2.96H612.737C612.737 2.432 612.545 2 612.161 1.664C611.801 1.328 611.357 1.16 610.829 1.16C610.829 1.16 610.733 1.16 610.541 1.16C610.349 1.16 610.253 1.16 610.253 1.16V0.799998H612.845ZM617.561 0.799998V1.16C617.561 1.16 617.465 1.16 617.273 1.16C617.081 1.16 616.985 1.16 616.985 1.16C616.457 1.16 616.001 1.328 615.617 1.664C615.257 2 615.077 2.432 615.077 2.96H615.005V0.799998H617.561ZM630.845 0.799998V2.96H630.737C630.737 2.432 630.545 2 630.161 1.664C629.801 1.328 629.357 1.16 628.829 1.16C628.829 1.16 628.733 1.16 628.541 1.16C628.349 1.16 628.253 1.16 628.253 1.16V0.799998H630.845ZM634.913 0.799998V1.16C634.913 1.16 634.817 1.16 634.625 1.16C634.433 1.16 634.337 1.16 634.337 1.16C633.809 1.16 633.353 1.328 632.969 1.664C632.609 2 632.429 2.432 632.429 2.96H632.357V0.799998H634.913ZM642.397 0.259999L663.313 22.58L663.637 26.504L642.721 4.22L642.397 0.259999ZM642.469 23.444V26H639.481V25.64C639.481 25.64 639.589 25.64 639.805 25.64C640.021 25.64 640.141 25.64 640.165 25.64C640.765 25.64 641.281 25.424 641.713 24.992C642.145 24.56 642.361 24.044 642.361 23.444H642.469ZM644.017 23.444C644.017 24.044 644.233 24.56 644.665 24.992C645.097 25.424 645.613 25.64 646.213 25.64C646.237 25.64 646.357 25.64 646.573 25.64C646.789 25.64 646.897 25.64 646.897 25.64V26H643.909V23.444H644.017ZM642.397 0.259999L643.981 2.276L644.017 26H642.361V4.76C642.361 3.536 642.301 2.48 642.181 1.592C642.085 0.703999 642.037 0.259999 642.037 0.259999H642.397ZM663.637 0.799998V21.896C663.637 22.664 663.661 23.408 663.709 24.128C663.757 24.824 663.805 25.4 663.853 25.856C663.925 26.288 663.961 26.504 663.961 26.504H663.637L662.017 24.596V0.799998H663.637ZM666.517 0.799998V1.16C666.517 1.16 666.409 1.16 666.193 1.16C665.977 1.16 665.869 1.16 665.869 1.16C665.269 1.16 664.753 1.376 664.321 1.808C663.889 2.216 663.661 2.732 663.637 3.356H663.529V0.799998H666.517ZM659.101 0.799998H662.089V3.356H662.017C661.993 2.732 661.765 2.216 661.333 1.808C660.925 1.376 660.409 1.16 659.785 1.16C659.785 1.16 659.677 1.16 659.461 1.16C659.245 1.16 659.125 1.16 659.101 1.16V0.799998ZM683.743 0.799998C686.311 0.799998 688.555 1.328 690.475 2.384C692.419 3.416 693.931 4.88 695.011 6.776C696.115 8.672 696.667 10.88 696.667 13.4C696.667 15.92 696.115 18.128 695.011 20.024C693.931 21.896 692.419 23.36 690.475 24.416C688.555 25.472 686.311 26 683.743 26H676.039L676.003 24.92C676.003 24.92 676.255 24.92 676.759 24.92C677.287 24.92 677.935 24.92 678.703 24.92C679.495 24.92 680.275 24.92 681.043 24.92C681.811 24.92 682.447 24.92 682.951 24.92C683.479 24.92 683.743 24.92 683.743 24.92C685.807 24.92 687.595 24.44 689.107 23.48C690.643 22.52 691.831 21.176 692.671 19.448C693.535 17.72 693.967 15.704 693.967 13.4C693.967 11.096 693.535 9.08 692.671 7.352C691.831 5.624 690.643 4.28 689.107 3.32C687.571 2.36 685.783 1.88 683.743 1.88C683.743 1.88 683.467 1.88 682.915 1.88C682.387 1.88 681.715 1.88 680.899 1.88C680.107 1.88 679.303 1.88 678.487 1.88C677.695 1.88 677.023 1.88 676.471 1.88C675.919 1.88 675.643 1.88 675.643 1.88V0.799998H683.743ZM676.651 0.799998V26H674.311V0.799998H676.651ZM674.419 23.372V26H671.539V25.64C671.539 25.64 671.611 25.64 671.755 25.64C671.923 25.64 672.007 25.64 672.007 25.64C672.631 25.64 673.159 25.424 673.591 24.992C674.047 24.536 674.287 23.996 674.311 23.372H674.419ZM674.419 3.428H674.311C674.311 2.804 674.083 2.276 673.627 1.844C673.171 1.388 672.631 1.16 672.007 1.16C672.007 1.16 671.935 1.16 671.791 1.16C671.647 1.16 671.575 1.16 671.575 1.16L671.539 0.799998H674.419V3.428ZM711.677 0.295998L722.333 25.784H719.273L710.957 3.716L711.677 0.295998ZM703.937 23.372C703.769 23.852 703.745 24.26 703.865 24.596C703.985 24.932 704.177 25.196 704.441 25.388C704.729 25.556 705.017 25.64 705.305 25.64H705.629V26H698.393V25.64C698.393 25.64 698.453 25.64 698.573 25.64C698.669 25.64 698.717 25.64 698.717 25.64C699.269 25.64 699.833 25.472 700.409 25.136C701.009 24.776 701.501 24.188 701.885 23.372H703.937ZM711.677 0.295998L712.001 2.816L702.965 25.892H700.805L710.021 4.004C710.021 4.004 710.081 3.86 710.201 3.572C710.345 3.26 710.501 2.888 710.669 2.456C710.861 2.024 711.017 1.604 711.137 1.196C711.281 0.787999 711.353 0.487999 711.353 0.295998H711.677ZM716.753 16.172V17.252H705.485V16.172H716.753ZM718.373 23.372H721.325C721.685 24.188 722.165 24.776 722.765 25.136C723.365 25.472 723.941 25.64 724.493 25.64C724.493 25.64 724.541 25.64 724.637 25.64C724.733 25.64 724.781 25.64 724.781 25.64V26H716.681V25.64H717.005C717.461 25.64 717.869 25.448 718.229 25.064C718.589 24.656 718.637 24.092 718.373 23.372ZM732.786 0.799998H737.862C738.942 0.799998 739.914 0.955998 740.778 1.268C741.666 1.58 742.41 2.036 743.01 2.636C743.61 3.212 744.066 3.92 744.378 4.76C744.714 5.576 744.882 6.512 744.882 7.568C744.882 8.72 744.606 9.824 744.054 10.88C743.526 11.936 742.794 12.8 741.858 13.472C740.946 14.12 739.914 14.444 738.762 14.444C739.17 14.612 739.614 14.96 740.094 15.488C740.574 15.992 740.994 16.484 741.354 16.964C741.354 16.964 741.51 17.204 741.822 17.684C742.158 18.14 742.566 18.704 743.046 19.376C743.55 20.048 744.054 20.708 744.558 21.356C745.062 22.004 745.494 22.52 745.854 22.904C746.334 23.432 746.814 23.9 747.294 24.308C747.774 24.716 748.29 25.04 748.842 25.28C749.418 25.52 750.054 25.64 750.75 25.64V26H748.77C747.666 26 746.706 25.832 745.89 25.496C745.098 25.16 744.426 24.752 743.874 24.272C743.322 23.768 742.854 23.288 742.47 22.832C742.398 22.736 742.194 22.46 741.858 22.004C741.546 21.548 741.162 21.008 740.706 20.384C740.274 19.736 739.842 19.1 739.41 18.476C738.978 17.852 738.606 17.324 738.294 16.892C737.982 16.436 737.802 16.172 737.754 16.1C737.298 15.5 736.794 14.948 736.242 14.444C735.69 13.94 735.09 13.688 734.442 13.688V13.328C734.442 13.328 734.622 13.34 734.982 13.364C735.366 13.364 735.822 13.352 736.35 13.328C736.974 13.304 737.658 13.208 738.402 13.04C739.146 12.872 739.842 12.524 740.49 11.996C741.138 11.468 741.63 10.664 741.966 9.584C742.038 9.32 742.098 8.996 742.146 8.612C742.194 8.204 742.206 7.808 742.182 7.424C742.158 5.792 741.738 4.496 740.922 3.536C740.13 2.552 739.062 2.024 737.718 1.952C737.046 1.904 736.35 1.892 735.63 1.916C734.934 1.916 734.346 1.916 733.866 1.916C733.386 1.916 733.146 1.916 733.146 1.916C733.146 1.892 733.11 1.796 733.038 1.628C732.99 1.436 732.93 1.256 732.858 1.088C732.81 0.895998 732.786 0.799998 732.786 0.799998ZM733.254 0.799998V26H730.914V0.799998H733.254ZM731.022 23.372V26H728.142V25.64C728.142 25.64 728.214 25.64 728.358 25.64C728.526 25.64 728.61 25.64 728.61 25.64C729.234 25.64 729.762 25.424 730.194 24.992C730.65 24.536 730.89 23.996 730.914 23.372H731.022ZM731.022 3.428H730.914C730.89 2.804 730.65 2.276 730.194 1.844C729.762 1.388 729.234 1.16 728.61 1.16C728.61 1.16 728.526 1.16 728.358 1.16C728.214 1.16 728.142 1.16 728.142 1.16V0.799998H731.022V3.428ZM733.146 23.372H733.254C733.254 23.996 733.482 24.536 733.938 24.992C734.394 25.424 734.934 25.64 735.558 25.64C735.558 25.64 735.63 25.64 735.774 25.64C735.918 25.64 735.99 25.64 735.99 25.64V26H733.146V23.372ZM756.363 0.799998H760.179C761.859 0.799998 763.275 1.052 764.427 1.556C765.603 2.06 766.491 2.768 767.091 3.68C767.691 4.568 767.991 5.612 767.991 6.812C767.991 7.82 767.799 8.708 767.415 9.476C767.031 10.22 766.539 10.832 765.939 11.312C765.339 11.768 764.703 12.092 764.031 12.284C765.303 12.476 766.395 12.896 767.307 13.544C768.243 14.192 768.951 15.008 769.431 15.992C769.935 16.952 770.187 18.032 770.187 19.232C770.187 20.576 769.863 21.764 769.215 22.796C768.567 23.804 767.607 24.596 766.335 25.172C765.087 25.724 763.575 26 761.799 26H757.803C757.803 26 757.803 25.892 757.803 25.676C757.827 25.46 757.839 25.244 757.839 25.028C757.839 24.812 757.839 24.704 757.839 24.704H761.655C762.903 24.704 763.959 24.488 764.823 24.056C765.687 23.6 766.347 22.94 766.803 22.076C767.259 21.212 767.487 20.18 767.487 18.98C767.487 17.636 767.223 16.544 766.695 15.704C766.191 14.864 765.531 14.228 764.715 13.796C763.899 13.364 763.011 13.076 762.051 12.932C761.115 12.764 760.215 12.68 759.351 12.68V12.356C759.903 12.356 760.515 12.296 761.187 12.176C761.859 12.056 762.507 11.816 763.131 11.456C763.755 11.096 764.271 10.568 764.679 9.872C765.087 9.152 765.291 8.216 765.291 7.064C765.291 5.984 765.087 5.06 764.679 4.292C764.295 3.524 763.707 2.948 762.915 2.564C762.147 2.156 761.187 1.952 760.035 1.952H756.723C756.723 1.928 756.687 1.832 756.615 1.664C756.567 1.472 756.507 1.28 756.435 1.088C756.387 0.895998 756.363 0.799998 756.363 0.799998ZM758.127 0.799998V26H755.787V0.799998H758.127ZM755.895 23.372V26H753.015L753.051 25.64C753.099 25.64 753.171 25.64 753.267 25.64C753.387 25.64 753.459 25.64 753.483 25.64C754.107 25.64 754.647 25.424 755.103 24.992C755.559 24.536 755.787 23.996 755.787 23.372H755.895ZM755.895 3.428H755.787C755.787 2.804 755.559 2.276 755.103 1.844C754.647 1.388 754.107 1.16 753.483 1.16C753.459 1.16 753.387 1.16 753.267 1.16C753.171 1.16 753.099 1.16 753.051 1.16L753.015 0.799998H755.895V3.428ZM786.473 0.295998L797.129 25.784H794.069L785.753 3.716L786.473 0.295998ZM778.733 23.372C778.565 23.852 778.541 24.26 778.661 24.596C778.781 24.932 778.973 25.196 779.237 25.388C779.525 25.556 779.813 25.64 780.101 25.64H780.425V26H773.189V25.64C773.189 25.64 773.249 25.64 773.369 25.64C773.465 25.64 773.513 25.64 773.513 25.64C774.065 25.64 774.629 25.472 775.205 25.136C775.805 24.776 776.297 24.188 776.681 23.372H778.733ZM786.473 0.295998L786.797 2.816L777.761 25.892H775.601L784.817 4.004C784.817 4.004 784.877 3.86 784.997 3.572C785.141 3.26 785.297 2.888 785.465 2.456C785.657 2.024 785.813 1.604 785.933 1.196C786.077 0.787999 786.149 0.487999 786.149 0.295998H786.473ZM791.549 16.172V17.252H780.281V16.172H791.549ZM793.169 23.372H796.121C796.481 24.188 796.961 24.776 797.561 25.136C798.161 25.472 798.737 25.64 799.289 25.64C799.289 25.64 799.337 25.64 799.433 25.64C799.529 25.64 799.577 25.64 799.577 25.64V26H791.477V25.64H791.801C792.257 25.64 792.665 25.448 793.025 25.064C793.385 24.656 793.433 24.092 793.169 23.372ZM805.314 0.259999L826.23 22.58L826.554 26.504L805.638 4.22L805.314 0.259999ZM805.386 23.444V26H802.398V25.64C802.398 25.64 802.506 25.64 802.722 25.64C802.938 25.64 803.058 25.64 803.082 25.64C803.682 25.64 804.198 25.424 804.63 24.992C805.062 24.56 805.278 24.044 805.278 23.444H805.386ZM806.934 23.444C806.934 24.044 807.15 24.56 807.582 24.992C808.014 25.424 808.53 25.64 809.13 25.64C809.154 25.64 809.274 25.64 809.49 25.64C809.706 25.64 809.814 25.64 809.814 25.64V26H806.826V23.444H806.934ZM805.314 0.259999L806.898 2.276L806.934 26H805.278V4.76C805.278 3.536 805.218 2.48 805.098 1.592C805.002 0.703999 804.954 0.259999 804.954 0.259999H805.314ZM826.554 0.799998V21.896C826.554 22.664 826.578 23.408 826.626 24.128C826.674 24.824 826.722 25.4 826.77 25.856C826.842 26.288 826.878 26.504 826.878 26.504H826.554L824.934 24.596V0.799998H826.554ZM829.434 0.799998V1.16C829.434 1.16 829.326 1.16 829.11 1.16C828.894 1.16 828.786 1.16 828.786 1.16C828.186 1.16 827.67 1.376 827.238 1.808C826.806 2.216 826.578 2.732 826.554 3.356H826.446V0.799998H829.434ZM822.018 0.799998H825.006V3.356H824.934C824.91 2.732 824.682 2.216 824.25 1.808C823.842 1.376 823.326 1.16 822.702 1.16C822.702 1.16 822.594 1.16 822.378 1.16C822.162 1.16 822.042 1.16 822.018 1.16V0.799998ZM841.683 0.295998C842.067 0.295998 842.475 0.319999 842.907 0.368C843.363 0.415999 843.795 0.487999 844.203 0.583999C844.635 0.655999 845.019 0.739999 845.355 0.835998C845.715 0.907998 845.991 0.991999 846.183 1.088V5.084H845.859C845.859 3.932 845.463 3.032 844.671 2.384C843.879 1.712 842.919 1.376 841.791 1.376C840.471 1.376 839.403 1.796 838.587 2.636C837.771 3.452 837.363 4.412 837.363 5.516C837.363 5.972 837.459 6.512 837.651 7.136C837.867 7.736 838.251 8.3 838.803 8.828L845.895 15.38C846.615 16.052 847.095 16.772 847.335 17.54C847.575 18.308 847.695 19.052 847.695 19.772C847.695 21.764 847.083 23.384 845.859 24.632C844.659 25.88 843.027 26.504 840.963 26.504C840.387 26.504 839.703 26.444 838.911 26.324C838.143 26.204 837.387 26 836.643 25.712C835.923 25.4 835.323 25.004 834.843 24.524C834.771 24.14 834.735 23.66 834.735 23.084C834.735 22.508 834.783 21.908 834.879 21.284C834.975 20.636 835.107 20.048 835.275 19.52H835.599C835.479 20.744 835.635 21.812 836.067 22.724C836.499 23.636 837.123 24.332 837.939 24.812C838.779 25.268 839.727 25.472 840.783 25.424C842.103 25.352 843.231 24.896 844.167 24.056C845.127 23.192 845.607 22.04 845.607 20.6C845.607 19.904 845.487 19.28 845.247 18.728C845.007 18.152 844.659 17.66 844.203 17.252L837.291 10.844C836.571 10.172 836.067 9.44 835.779 8.648C835.491 7.832 835.347 7.076 835.347 6.38C835.347 5.372 835.587 4.4 836.067 3.464C836.547 2.528 837.255 1.772 838.191 1.196C839.151 0.595999 840.315 0.295998 841.683 0.295998ZM846.183 0.655998V1.412H843.447V0.655998H846.183Z" fill="white"/>
<line x1="865.75" y1="13" x2="929.75" y2="13" stroke="white"/>
<path d="M340.378 65.304C341.06 65.304 341.786 65.3467 342.554 65.432C343.364 65.5173 344.132 65.6453 344.858 65.816C345.626 65.944 346.308 66.0933 346.906 66.264C347.546 66.392 348.036 66.5413 348.378 66.712V73.816H347.802C347.802 71.768 347.098 70.168 345.69 69.016C344.282 67.8213 342.575 67.224 340.57 67.224C338.223 67.224 336.324 67.9707 334.874 69.464C333.423 70.9147 332.698 72.6213 332.698 74.584C332.698 75.3947 332.868 76.3547 333.21 77.464C333.594 78.5307 334.276 79.5333 335.258 80.472L347.866 92.12C349.146 93.3147 349.999 94.5947 350.426 95.96C350.852 97.3253 351.066 98.648 351.066 99.928C351.066 103.469 349.978 106.349 347.802 108.568C345.668 110.787 342.767 111.896 339.098 111.896C338.074 111.896 336.858 111.789 335.45 111.576C334.084 111.363 332.74 111 331.418 110.488C330.138 109.933 329.071 109.229 328.218 108.376C328.09 107.693 328.026 106.84 328.026 105.816C328.026 104.792 328.111 103.725 328.282 102.616C328.452 101.464 328.687 100.419 328.986 99.48H329.562C329.348 101.656 329.626 103.555 330.394 105.176C331.162 106.797 332.271 108.035 333.722 108.888C335.215 109.699 336.9 110.061 338.778 109.976C341.124 109.848 343.13 109.037 344.794 107.544C346.5 106.008 347.354 103.96 347.354 101.4C347.354 100.163 347.14 99.0533 346.714 98.072C346.287 97.048 345.668 96.1733 344.858 95.448L332.57 84.056C331.29 82.8613 330.394 81.56 329.882 80.152C329.37 78.7013 329.114 77.3573 329.114 76.12C329.114 74.328 329.54 72.6 330.394 70.936C331.247 69.272 332.506 67.928 334.17 66.904C335.876 65.8373 337.946 65.304 340.378 65.304ZM348.378 65.944V67.288H343.514V65.944H348.378ZM375.937 66.392V111H371.777V66.392H375.937ZM392.385 66.136V68.056H355.329V66.136H392.385ZM392.385 67.864V73.048L391.745 72.984V71.896C391.745 70.8293 391.361 69.9333 390.593 69.208C389.867 68.4827 388.993 68.0987 387.969 68.056V67.864H392.385ZM392.385 64.984V66.84L384.577 66.136C385.515 66.136 386.497 66.072 387.521 65.944C388.587 65.816 389.569 65.6667 390.465 65.496C391.361 65.3253 392.001 65.1547 392.385 64.984ZM371.969 106.328V111H366.849V110.36C366.849 110.36 366.977 110.36 367.233 110.36C367.531 110.36 367.681 110.36 367.681 110.36C368.79 110.36 369.729 109.976 370.497 109.208C371.307 108.397 371.734 107.437 371.777 106.328H371.969ZM375.745 106.328H375.937C375.979 107.437 376.385 108.397 377.153 109.208C377.963 109.976 378.923 110.36 380.033 110.36C380.033 110.36 380.161 110.36 380.417 110.36C380.715 110.36 380.865 110.36 380.865 110.36V111H375.745V106.328ZM359.745 67.864V68.056C358.678 68.0987 357.782 68.4827 357.057 69.208C356.331 69.9333 355.969 70.8293 355.969 71.896V72.984L355.329 73.048V67.864H359.745ZM355.329 64.984C355.755 65.1547 356.395 65.3253 357.249 65.496C358.145 65.6667 359.126 65.816 360.193 65.944C361.259 66.072 362.241 66.136 363.137 66.136L355.329 66.84V64.984ZM405.899 66.2V111H401.739V66.2H405.899ZM423.179 109.016V111H405.707V109.016H423.179ZM420.427 87.96V89.88H405.707V87.96H420.427ZM423.179 66.2V68.184H405.707V66.2H423.179ZM427.083 100.632L423.371 111H412.747L415.051 109.016C417.313 109.016 419.147 108.675 420.555 107.992C422.006 107.267 423.179 106.264 424.075 104.984C424.971 103.704 425.761 102.253 426.443 100.632H427.083ZM420.427 89.752V93.976H419.787V93.016C419.787 92.1627 419.489 91.4373 418.891 90.84C418.294 90.2 417.569 89.88 416.715 89.88V89.752H420.427ZM420.427 83.864V88.088H416.715V87.96C417.569 87.9173 418.294 87.5973 418.891 87C419.489 86.36 419.787 85.6133 419.787 84.76V83.864H420.427ZM423.179 67.992V73.112H422.539V71.96C422.539 70.936 422.177 70.0613 421.451 69.336C420.726 68.568 419.83 68.1627 418.763 68.12V67.992H423.179ZM423.179 65.048V66.904L415.371 66.2C416.31 66.2 417.291 66.136 418.315 66.008C419.382 65.88 420.363 65.7307 421.259 65.56C422.155 65.3893 422.795 65.2187 423.179 65.048ZM401.931 106.328V111H396.811V110.36C396.811 110.36 396.939 110.36 397.195 110.36C397.494 110.36 397.643 110.36 397.643 110.36C398.753 110.36 399.691 109.976 400.459 109.208C401.27 108.397 401.697 107.437 401.739 106.328H401.931ZM401.931 70.872H401.739C401.739 69.7627 401.334 68.824 400.523 68.056C399.713 67.2453 398.753 66.84 397.643 66.84C397.643 66.84 397.515 66.84 397.259 66.84C397.003 66.84 396.875 66.84 396.875 66.84L396.811 66.2H401.931V70.872ZM440.74 66.2H449.188C451.918 66.2 454.265 66.6907 456.228 67.672C458.19 68.6533 459.705 70.0827 460.772 71.96C461.838 73.7947 462.372 75.992 462.372 78.552C462.372 80.5147 461.988 82.2853 461.22 83.864C460.452 85.4 459.428 86.7013 458.148 87.768C456.868 88.8347 455.417 89.6453 453.796 90.2C452.174 90.712 450.489 90.904 448.74 90.776C447.033 90.648 445.369 90.1573 443.748 89.304V88.664C443.748 88.664 444.11 88.728 444.836 88.856C445.561 88.9413 446.478 88.9627 447.588 88.92C448.74 88.8347 449.934 88.6 451.172 88.216C452.452 87.7893 453.625 87.064 454.692 86.04C455.801 85.016 456.633 83.5867 457.188 81.752C457.316 81.2827 457.422 80.7067 457.508 80.024C457.593 79.2987 457.614 78.5947 457.572 77.912C457.529 74.968 456.761 72.6 455.268 70.808C453.774 69.016 451.662 68.12 448.932 68.12H441.38C441.38 68.12 441.316 67.9707 441.188 67.672C441.102 67.3307 440.996 67.0107 440.868 66.712C440.782 66.3707 440.74 66.2 440.74 66.2ZM441.572 66.2V111H437.412V66.2H441.572ZM437.604 106.328V111H432.484V110.36C432.484 110.36 432.612 110.36 432.868 110.36C433.166 110.36 433.316 110.36 433.316 110.36C434.425 110.36 435.364 109.976 436.132 109.208C436.942 108.397 437.369 107.437 437.412 106.328H437.604ZM437.604 70.872H437.412C437.412 69.7627 437.006 68.824 436.196 68.056C435.385 67.2453 434.425 66.84 433.316 66.84C433.316 66.84 433.188 66.84 432.932 66.84C432.676 66.84 432.548 66.84 432.548 66.84L432.484 66.2H437.604V70.872ZM441.38 106.328H441.572C441.614 107.437 442.02 108.397 442.788 109.208C443.598 109.976 444.558 110.36 445.668 110.36C445.668 110.36 445.796 110.36 446.052 110.36C446.35 110.36 446.5 110.36 446.5 110.36V111H441.38V106.328ZM493.229 66.2V111H489.069V66.2H493.229ZM489.261 106.328V111H484.141V110.36C484.141 110.36 484.269 110.36 484.525 110.36C484.824 110.36 484.973 110.36 484.973 110.36C486.083 110.36 487.021 109.976 487.789 109.208C488.6 108.397 489.027 107.437 489.069 106.328H489.261ZM489.261 70.872H489.069C489.027 69.7627 488.6 68.824 487.789 68.056C487.021 67.2453 486.083 66.84 484.973 66.84C484.973 66.84 484.824 66.84 484.525 66.84C484.269 66.84 484.141 66.84 484.141 66.84V66.2H489.261V70.872ZM493.037 106.328H493.229C493.272 107.437 493.677 108.397 494.445 109.208C495.256 109.976 496.216 110.36 497.325 110.36C497.325 110.36 497.453 110.36 497.709 110.36C497.965 110.36 498.115 110.36 498.157 110.36V111H493.037V106.328ZM493.037 70.872V66.2H498.157V66.84C498.115 66.84 497.965 66.84 497.709 66.84C497.453 66.84 497.325 66.84 497.325 66.84C496.216 66.84 495.256 67.2453 494.445 68.056C493.677 68.824 493.272 69.7627 493.229 70.872H493.037ZM509.35 65.24L546.534 104.92L547.11 111.896L509.926 72.28L509.35 65.24ZM509.478 106.456V111H504.166V110.36C504.166 110.36 504.358 110.36 504.742 110.36C505.126 110.36 505.34 110.36 505.382 110.36C506.449 110.36 507.366 109.976 508.134 109.208C508.902 108.44 509.286 107.523 509.286 106.456H509.478ZM512.23 106.456C512.23 107.523 512.614 108.44 513.382 109.208C514.15 109.976 515.068 110.36 516.134 110.36C516.177 110.36 516.39 110.36 516.774 110.36C517.158 110.36 517.35 110.36 517.35 110.36V111H512.038V106.456H512.23ZM509.35 65.24L512.166 68.824L512.23 111H509.286V73.24C509.286 71.064 509.18 69.1867 508.966 67.608C508.796 66.0293 508.71 65.24 508.71 65.24H509.35ZM547.11 66.2V103.704C547.11 105.069 547.153 106.392 547.238 107.672C547.324 108.909 547.409 109.933 547.494 110.744C547.622 111.512 547.686 111.896 547.686 111.896H547.11L544.23 108.504V66.2H547.11ZM552.23 66.2V66.84C552.23 66.84 552.038 66.84 551.654 66.84C551.27 66.84 551.078 66.84 551.078 66.84C550.012 66.84 549.094 67.224 548.326 67.992C547.558 68.7173 547.153 69.6347 547.11 70.744H546.918V66.2H552.23ZM539.046 66.2H544.358V70.744H544.23C544.188 69.6347 543.782 68.7173 543.014 67.992C542.289 67.224 541.372 66.84 540.262 66.84C540.262 66.84 540.07 66.84 539.686 66.84C539.302 66.84 539.089 66.84 539.046 66.84V66.2ZM576.347 66.392V111H572.187V66.392H576.347ZM592.795 66.136V68.056H555.739V66.136H592.795ZM592.795 67.864V73.048L592.155 72.984V71.896C592.155 70.8293 591.771 69.9333 591.003 69.208C590.277 68.4827 589.403 68.0987 588.379 68.056V67.864H592.795ZM592.795 64.984V66.84L584.987 66.136C585.925 66.136 586.907 66.072 587.931 65.944C588.997 65.816 589.979 65.6667 590.875 65.496C591.771 65.3253 592.411 65.1547 592.795 64.984ZM572.379 106.328V111H567.259V110.36C567.259 110.36 567.387 110.36 567.643 110.36C567.941 110.36 568.091 110.36 568.091 110.36C569.2 110.36 570.139 109.976 570.907 109.208C571.717 108.397 572.144 107.437 572.187 106.328H572.379ZM576.155 106.328H576.347C576.389 107.437 576.795 108.397 577.563 109.208C578.373 109.976 579.333 110.36 580.443 110.36C580.443 110.36 580.571 110.36 580.827 110.36C581.125 110.36 581.275 110.36 581.275 110.36V111H576.155V106.328ZM560.155 67.864V68.056C559.088 68.0987 558.192 68.4827 557.467 69.208C556.741 69.9333 556.379 70.8293 556.379 71.896V72.984L555.739 73.048V67.864H560.155ZM555.739 64.984C556.165 65.1547 556.805 65.3253 557.659 65.496C558.555 65.6667 559.536 65.816 560.603 65.944C561.669 66.072 562.651 66.136 563.547 66.136L555.739 66.84V64.984ZM619.212 65.304C623.778 65.304 627.788 66.2853 631.244 68.248C634.7 70.168 637.388 72.8773 639.308 76.376C641.271 79.8747 642.252 83.9493 642.252 88.6C642.252 93.2507 641.271 97.3253 639.308 100.824C637.388 104.323 634.7 107.053 631.244 109.016C627.788 110.936 623.778 111.896 619.212 111.896C614.69 111.896 610.7 110.936 607.244 109.016C603.788 107.053 601.079 104.323 599.116 100.824C597.196 97.3253 596.236 93.2507 596.236 88.6C596.236 83.9493 597.196 79.8747 599.116 76.376C601.079 72.8773 603.788 70.168 607.244 68.248C610.7 66.2853 614.69 65.304 619.212 65.304ZM619.212 109.976C622.839 109.976 625.996 109.08 628.684 107.288C631.415 105.496 633.527 103 635.02 99.8C636.556 96.6 637.324 92.8667 637.324 88.6C637.324 84.3333 636.556 80.6 635.02 77.4C633.527 74.2 631.415 71.704 628.684 69.912C625.996 68.12 622.839 67.224 619.212 67.224C615.628 67.224 612.471 68.12 609.74 69.912C607.052 71.704 604.94 74.2 603.404 77.4C601.911 80.6 601.164 84.3333 601.164 88.6C601.164 92.8667 601.911 96.6 603.404 99.8C604.94 103 607.052 105.496 609.74 107.288C612.471 109.08 615.628 109.976 619.212 109.976ZM682.614 66.392V111H678.454V66.392H682.614ZM699.062 66.136V68.056H662.006V66.136H699.062ZM699.062 67.864V73.048L698.422 72.984V71.896C698.422 70.8293 698.038 69.9333 697.27 69.208C696.545 68.4827 695.67 68.0987 694.646 68.056V67.864H699.062ZM699.062 64.984V66.84L691.254 66.136C692.193 66.136 693.174 66.072 694.198 65.944C695.265 65.816 696.246 65.6667 697.142 65.496C698.038 65.3253 698.678 65.1547 699.062 64.984ZM678.646 106.328V111H673.526V110.36C673.526 110.36 673.654 110.36 673.91 110.36C674.209 110.36 674.358 110.36 674.358 110.36C675.468 110.36 676.406 109.976 677.174 109.208C677.985 108.397 678.412 107.437 678.454 106.328H678.646ZM682.422 106.328H682.614C682.657 107.437 683.062 108.397 683.83 109.208C684.641 109.976 685.601 110.36 686.71 110.36C686.71 110.36 686.838 110.36 687.094 110.36C687.393 110.36 687.542 110.36 687.542 110.36V111H682.422V106.328ZM666.422 67.864V68.056C665.356 68.0987 664.46 68.4827 663.734 69.208C663.009 69.9333 662.646 70.8293 662.646 71.896V72.984L662.006 73.048V67.864H666.422ZM662.006 64.984C662.433 65.1547 663.073 65.3253 663.926 65.496C664.822 65.6667 665.804 65.816 666.87 65.944C667.937 66.072 668.918 66.136 669.814 66.136L662.006 66.84V64.984ZM742.913 66.2V111H738.753V66.2H742.913ZM712.577 66.2V111H708.417V66.2H712.577ZM739.329 87.896V89.816H711.937V87.896H739.329ZM708.609 106.328V111H703.489V110.36C703.489 110.36 703.617 110.36 703.873 110.36C704.171 110.36 704.321 110.36 704.321 110.36C705.43 110.36 706.369 109.976 707.137 109.208C707.947 108.397 708.374 107.437 708.417 106.328H708.609ZM708.609 70.872H708.417C708.374 69.7627 707.947 68.824 707.137 68.056C706.369 67.2453 705.43 66.84 704.321 66.84C704.321 66.84 704.171 66.84 703.873 66.84C703.617 66.84 703.489 66.84 703.489 66.84V66.2H708.609V70.872ZM712.385 106.328H712.577C712.619 107.437 713.025 108.397 713.793 109.208C714.603 109.976 715.563 110.36 716.673 110.36C716.673 110.36 716.801 110.36 717.057 110.36C717.313 110.36 717.462 110.36 717.505 110.36V111H712.385V106.328ZM712.385 70.872V66.2H717.505V66.84C717.462 66.84 717.313 66.84 717.057 66.84C716.801 66.84 716.673 66.84 716.673 66.84C715.563 66.84 714.603 67.2453 713.793 68.056C713.025 68.824 712.619 69.7627 712.577 70.872H712.385ZM738.945 106.328V111H733.825V110.36C733.867 110.36 734.017 110.36 734.273 110.36C734.529 110.36 734.657 110.36 734.657 110.36C735.766 110.36 736.726 109.976 737.537 109.208C738.347 108.397 738.753 107.437 738.753 106.328H738.945ZM738.945 70.872H738.753C738.753 69.7627 738.347 68.824 737.537 68.056C736.726 67.2453 735.766 66.84 734.657 66.84C734.657 66.84 734.529 66.84 734.273 66.84C734.017 66.84 733.867 66.84 733.825 66.84V66.2H738.945V70.872ZM742.721 106.328H742.913C742.955 107.437 743.361 108.397 744.129 109.208C744.939 109.976 745.899 110.36 747.009 110.36C747.009 110.36 747.137 110.36 747.393 110.36C747.691 110.36 747.841 110.36 747.841 110.36V111H742.721V106.328ZM742.721 70.872V66.2H747.841V66.84C747.841 66.84 747.691 66.84 747.393 66.84C747.137 66.84 747.009 66.84 747.009 66.84C745.899 66.84 744.939 67.2453 744.129 68.056C743.361 68.824 742.955 69.7627 742.913 70.872H742.721ZM763.999 66.2V111H759.839V66.2H763.999ZM781.279 109.016V111H763.807V109.016H781.279ZM778.527 87.96V89.88H763.807V87.96H778.527ZM781.279 66.2V68.184H763.807V66.2H781.279ZM785.183 100.632L781.471 111H770.847L773.151 109.016C775.413 109.016 777.247 108.675 778.655 107.992C780.106 107.267 781.279 106.264 782.175 104.984C783.071 103.704 783.861 102.253 784.543 100.632H785.183ZM778.527 89.752V93.976H777.887V93.016C777.887 92.1627 777.589 91.4373 776.991 90.84C776.394 90.2 775.669 89.88 774.815 89.88V89.752H778.527ZM778.527 83.864V88.088H774.815V87.96C775.669 87.9173 776.394 87.5973 776.991 87C777.589 86.36 777.887 85.6133 777.887 84.76V83.864H778.527ZM781.279 67.992V73.112H780.639V71.96C780.639 70.936 780.277 70.0613 779.551 69.336C778.826 68.568 777.93 68.1627 776.863 68.12V67.992H781.279ZM781.279 65.048V66.904L773.471 66.2C774.41 66.2 775.391 66.136 776.415 66.008C777.482 65.88 778.463 65.7307 779.359 65.56C780.255 65.3893 780.895 65.2187 781.279 65.048ZM760.031 106.328V111H754.911V110.36C754.911 110.36 755.039 110.36 755.295 110.36C755.594 110.36 755.743 110.36 755.743 110.36C756.853 110.36 757.791 109.976 758.559 109.208C759.37 108.397 759.797 107.437 759.839 106.328H760.031ZM760.031 70.872H759.839C759.839 69.7627 759.434 68.824 758.623 68.056C757.813 67.2453 756.853 66.84 755.743 66.84C755.743 66.84 755.615 66.84 755.359 66.84C755.103 66.84 754.975 66.84 754.975 66.84L754.911 66.2H760.031V70.872ZM845.993 66.2V111H841.833V66.2H845.993ZM815.657 66.2V111H811.497V66.2H815.657ZM842.409 87.896V89.816H815.017V87.896H842.409ZM811.689 106.328V111H806.569V110.36C806.569 110.36 806.697 110.36 806.953 110.36C807.251 110.36 807.401 110.36 807.401 110.36C808.51 110.36 809.449 109.976 810.217 109.208C811.027 108.397 811.454 107.437 811.497 106.328H811.689ZM811.689 70.872H811.497C811.454 69.7627 811.027 68.824 810.217 68.056C809.449 67.2453 808.51 66.84 807.401 66.84C807.401 66.84 807.251 66.84 806.953 66.84C806.697 66.84 806.569 66.84 806.569 66.84V66.2H811.689V70.872ZM815.465 106.328H815.657C815.699 107.437 816.105 108.397 816.873 109.208C817.683 109.976 818.643 110.36 819.753 110.36C819.753 110.36 819.881 110.36 820.137 110.36C820.393 110.36 820.542 110.36 820.585 110.36V111H815.465V106.328ZM815.465 70.872V66.2H820.585V66.84C820.542 66.84 820.393 66.84 820.137 66.84C819.881 66.84 819.753 66.84 819.753 66.84C818.643 66.84 817.683 67.2453 816.873 68.056C816.105 68.824 815.699 69.7627 815.657 70.872H815.465ZM842.025 106.328V111H836.905V110.36C836.947 110.36 837.097 110.36 837.353 110.36C837.609 110.36 837.737 110.36 837.737 110.36C838.846 110.36 839.806 109.976 840.617 109.208C841.427 108.397 841.833 107.437 841.833 106.328H842.025ZM842.025 70.872H841.833C841.833 69.7627 841.427 68.824 840.617 68.056C839.806 67.2453 838.846 66.84 837.737 66.84C837.737 66.84 837.609 66.84 837.353 66.84C837.097 66.84 836.947 66.84 836.905 66.84V66.2H842.025V70.872ZM845.801 106.328H845.993C846.035 107.437 846.441 108.397 847.209 109.208C848.019 109.976 848.979 110.36 850.089 110.36C850.089 110.36 850.217 110.36 850.473 110.36C850.771 110.36 850.921 110.36 850.921 110.36V111H845.801V106.328ZM845.801 70.872V66.2H850.921V66.84C850.921 66.84 850.771 66.84 850.473 66.84C850.217 66.84 850.089 66.84 850.089 66.84C848.979 66.84 848.019 67.2453 847.209 68.056C846.441 68.824 846.035 69.7627 845.993 70.872H845.801ZM867.079 66.2V111H862.919V66.2H867.079ZM884.359 109.016V111H866.887V109.016H884.359ZM881.607 87.96V89.88H866.887V87.96H881.607ZM884.359 66.2V68.184H866.887V66.2H884.359ZM888.263 100.632L884.551 111H873.927L876.231 109.016C878.493 109.016 880.327 108.675 881.735 107.992C883.186 107.267 884.359 106.264 885.255 104.984C886.151 103.704 886.941 102.253 887.623 100.632H888.263ZM881.607 89.752V93.976H880.967V93.016C880.967 92.1627 880.669 91.4373 880.071 90.84C879.474 90.2 878.749 89.88 877.895 89.88V89.752H881.607ZM881.607 83.864V88.088H877.895V87.96C878.749 87.9173 879.474 87.5973 880.071 87C880.669 86.36 880.967 85.6133 880.967 84.76V83.864H881.607ZM884.359 67.992V73.112H883.719V71.96C883.719 70.936 883.357 70.0613 882.631 69.336C881.906 68.568 881.01 68.1627 879.943 68.12V67.992H884.359ZM884.359 65.048V66.904L876.551 66.2C877.49 66.2 878.471 66.136 879.495 66.008C880.562 65.88 881.543 65.7307 882.439 65.56C883.335 65.3893 883.975 65.2187 884.359 65.048ZM863.111 106.328V111H857.991V110.36C857.991 110.36 858.119 110.36 858.375 110.36C858.674 110.36 858.823 110.36 858.823 110.36C859.933 110.36 860.871 109.976 861.639 109.208C862.45 108.397 862.877 107.437 862.919 106.328H863.111ZM863.111 70.872H862.919C862.919 69.7627 862.514 68.824 861.703 68.056C860.893 67.2453 859.933 66.84 858.823 66.84C858.823 66.84 858.695 66.84 858.439 66.84C858.183 66.84 858.055 66.84 858.055 66.84L857.991 66.2H863.111V70.872ZM913.425 65.304L932.369 110.616H926.929L912.145 71.384L913.425 65.304ZM899.665 106.328C899.366 107.181 899.323 107.907 899.537 108.504C899.75 109.101 900.091 109.571 900.561 109.912C901.073 110.211 901.585 110.36 902.097 110.36H902.673V111H889.809V110.36C889.809 110.36 889.915 110.36 890.129 110.36C890.299 110.36 890.385 110.36 890.385 110.36C891.366 110.36 892.369 110.061 893.393 109.464C894.459 108.824 895.334 107.779 896.017 106.328H899.665ZM913.425 65.304L914.001 69.784L897.937 110.808H894.097L910.481 71.896C910.481 71.896 910.587 71.64 910.801 71.128C911.057 70.5733 911.334 69.912 911.633 69.144C911.974 68.376 912.251 67.6293 912.465 66.904C912.721 66.1787 912.849 65.6453 912.849 65.304H913.425ZM922.449 93.528V95.448H902.417V93.528H922.449ZM925.329 106.328H930.577C931.217 107.779 932.07 108.824 933.137 109.464C934.203 110.061 935.227 110.36 936.209 110.36C936.209 110.36 936.294 110.36 936.465 110.36C936.635 110.36 936.721 110.36 936.721 110.36V111H922.321V110.36H922.897C923.707 110.36 924.433 110.019 925.073 109.336C925.713 108.611 925.798 107.608 925.329 106.328ZM947.467 66.2H956.491C958.411 66.2 960.139 66.4773 961.675 67.032C963.254 67.5867 964.577 68.3973 965.643 69.464C966.71 70.488 967.521 71.7467 968.075 73.24C968.673 74.6907 968.971 76.3547 968.971 78.232C968.971 80.28 968.481 82.2427 967.499 84.12C966.561 85.9973 965.259 87.5333 963.595 88.728C961.974 89.88 960.139 90.456 958.091 90.456C958.817 90.7547 959.606 91.3733 960.459 92.312C961.313 93.208 962.059 94.0827 962.699 94.936C962.699 94.936 962.977 95.3627 963.531 96.216C964.129 97.0267 964.854 98.0293 965.707 99.224C966.603 100.419 967.499 101.592 968.395 102.744C969.291 103.896 970.059 104.813 970.699 105.496C971.553 106.435 972.406 107.267 973.259 107.992C974.113 108.717 975.03 109.293 976.011 109.72C977.035 110.147 978.166 110.36 979.403 110.36V111H975.883C973.921 111 972.214 110.701 970.763 110.104C969.355 109.507 968.161 108.781 967.179 107.928C966.198 107.032 965.366 106.179 964.683 105.368C964.555 105.197 964.193 104.707 963.595 103.896C963.041 103.085 962.358 102.125 961.547 101.016C960.779 99.864 960.011 98.7333 959.243 97.624C958.475 96.5147 957.814 95.576 957.259 94.808C956.705 93.9973 956.385 93.528 956.299 93.4C955.489 92.3333 954.593 91.352 953.611 90.456C952.63 89.56 951.563 89.112 950.411 89.112V88.472C950.411 88.472 950.731 88.4933 951.371 88.536C952.054 88.536 952.865 88.5147 953.803 88.472C954.913 88.4293 956.129 88.2587 957.451 87.96C958.774 87.6613 960.011 87.0427 961.163 86.104C962.315 85.1653 963.19 83.736 963.787 81.816C963.915 81.3467 964.022 80.7707 964.107 80.088C964.193 79.3627 964.214 78.6587 964.171 77.976C964.129 75.0747 963.382 72.7707 961.931 71.064C960.523 69.3147 958.625 68.376 956.235 68.248C955.041 68.1627 953.803 68.1413 952.523 68.184C951.286 68.184 950.241 68.184 949.387 68.184C948.534 68.184 948.107 68.184 948.107 68.184C948.107 68.1413 948.043 67.9707 947.915 67.672C947.83 67.3307 947.723 67.0107 947.595 66.712C947.51 66.3707 947.467 66.2 947.467 66.2ZM948.299 66.2V111H944.139V66.2H948.299ZM944.331 106.328V111H939.211V110.36C939.211 110.36 939.339 110.36 939.595 110.36C939.894 110.36 940.043 110.36 940.043 110.36C941.153 110.36 942.091 109.976 942.859 109.208C943.67 108.397 944.097 107.437 944.139 106.328H944.331ZM944.331 70.872H944.139C944.097 69.7627 943.67 68.824 942.859 68.056C942.091 67.2453 941.153 66.84 940.043 66.84C940.043 66.84 939.894 66.84 939.595 66.84C939.339 66.84 939.211 66.84 939.211 66.84V66.2H944.331V70.872ZM948.107 106.328H948.299C948.299 107.437 948.705 108.397 949.515 109.208C950.326 109.976 951.286 110.36 952.395 110.36C952.395 110.36 952.523 110.36 952.779 110.36C953.035 110.36 953.163 110.36 953.163 110.36V111H948.107V106.328ZM996.432 66.392V111H992.272V66.392H996.432ZM1012.88 66.136V68.056H975.824V66.136H1012.88ZM1012.88 67.864V73.048L1012.24 72.984V71.896C1012.24 70.8293 1011.86 69.9333 1011.09 69.208C1010.36 68.4827 1009.49 68.0987 1008.46 68.056V67.864H1012.88ZM1012.88 64.984V66.84L1005.07 66.136C1006.01 66.136 1006.99 66.072 1008.02 65.944C1009.08 65.816 1010.06 65.6667 1010.96 65.496C1011.86 65.3253 1012.5 65.1547 1012.88 64.984ZM992.464 106.328V111H987.344V110.36C987.344 110.36 987.472 110.36 987.728 110.36C988.026 110.36 988.176 110.36 988.176 110.36C989.285 110.36 990.224 109.976 990.992 109.208C991.802 108.397 992.229 107.437 992.272 106.328H992.464ZM996.24 106.328H996.432C996.474 107.437 996.88 108.397 997.648 109.208C998.458 109.976 999.418 110.36 1000.53 110.36C1000.53 110.36 1000.66 110.36 1000.91 110.36C1001.21 110.36 1001.36 110.36 1001.36 110.36V111H996.24V106.328ZM980.24 67.864V68.056C979.173 68.0987 978.277 68.4827 977.552 69.208C976.826 69.9333 976.464 70.8293 976.464 71.896V72.984L975.824 73.048V67.864H980.24ZM975.824 64.984C976.25 65.1547 976.89 65.3253 977.744 65.496C978.64 65.6667 979.621 65.816 980.688 65.944C981.754 66.072 982.736 66.136 983.632 66.136L975.824 66.84V64.984ZM1056.28 65.304C1060.85 65.304 1064.86 66.2853 1068.31 68.248C1071.77 70.168 1074.46 72.8773 1076.38 76.376C1078.34 79.8747 1079.32 83.9493 1079.32 88.6C1079.32 93.2507 1078.34 97.3253 1076.38 100.824C1074.46 104.323 1071.77 107.053 1068.31 109.016C1064.86 110.936 1060.85 111.896 1056.28 111.896C1051.76 111.896 1047.77 110.936 1044.31 109.016C1040.86 107.053 1038.15 104.323 1036.19 100.824C1034.27 97.3253 1033.31 93.2507 1033.31 88.6C1033.31 83.9493 1034.27 79.8747 1036.19 76.376C1038.15 72.8773 1040.86 70.168 1044.31 68.248C1047.77 66.2853 1051.76 65.304 1056.28 65.304ZM1056.28 109.976C1059.91 109.976 1063.07 109.08 1065.75 107.288C1068.48 105.496 1070.6 103 1072.09 99.8C1073.63 96.6 1074.39 92.8667 1074.39 88.6C1074.39 84.3333 1073.63 80.6 1072.09 77.4C1070.6 74.2 1068.48 71.704 1065.75 69.912C1063.07 68.12 1059.91 67.224 1056.28 67.224C1052.7 67.224 1049.54 68.12 1046.81 69.912C1044.12 71.704 1042.01 74.2 1040.47 77.4C1038.98 80.6 1038.23 84.3333 1038.23 88.6C1038.23 92.8667 1038.98 96.6 1040.47 99.8C1042.01 103 1044.12 105.496 1046.81 107.288C1049.54 109.08 1052.7 109.976 1056.28 109.976ZM1093.49 66.2V111H1089.33V66.2H1093.49ZM1108.02 87.96V89.88H1093.3V87.96H1108.02ZM1110.77 66.2V68.184H1093.3V66.2H1110.77ZM1108.02 89.752V93.976H1107.38V93.016C1107.38 92.1627 1107.08 91.4373 1106.48 90.84C1105.88 90.2 1105.16 89.88 1104.31 89.88V89.752H1108.02ZM1108.02 83.864V88.088H1104.31V87.96C1105.16 87.9173 1105.88 87.5973 1106.48 87C1107.08 86.36 1107.38 85.6133 1107.38 84.76V83.864H1108.02ZM1110.77 67.992V72.28H1110.13V71.32C1110.13 70.4667 1109.81 69.7413 1109.17 69.144C1108.57 68.504 1107.85 68.184 1106.99 68.184V67.992H1110.77ZM1110.77 65.048V66.904L1102.96 66.2C1103.9 66.2 1104.88 66.136 1105.91 66.008C1106.97 65.88 1107.95 65.7307 1108.85 65.56C1109.75 65.3893 1110.39 65.2187 1110.77 65.048ZM1089.52 106.328V111H1084.4V110.36C1084.4 110.36 1084.53 110.36 1084.79 110.36C1085.08 110.36 1085.23 110.36 1085.23 110.36C1086.34 110.36 1087.28 109.976 1088.05 109.208C1088.86 108.397 1089.29 107.437 1089.33 106.328H1089.52ZM1089.52 70.872H1089.33C1089.33 69.7627 1088.92 68.824 1088.11 68.056C1087.3 67.2453 1086.34 66.84 1085.23 66.84C1085.23 66.84 1085.11 66.84 1084.85 66.84C1084.59 66.84 1084.47 66.84 1084.47 66.84L1084.4 66.2H1089.52V70.872ZM1093.3 106.328H1093.49C1093.53 107.437 1093.94 108.397 1094.71 109.208C1095.52 109.976 1096.48 110.36 1097.59 110.36C1097.59 110.36 1097.71 110.36 1097.97 110.36C1098.23 110.36 1098.37 110.36 1098.42 110.36V111H1093.3V106.328Z" fill="#F0FAFD"/>
<path d="M403.154 170.312L402.386 180.36C401.276 182.195 399.868 183.837 398.162 185.288C396.498 186.696 394.514 187.827 392.21 188.68C389.948 189.491 387.346 189.896 384.402 189.896C379.964 189.853 376.018 188.872 372.562 186.952C369.106 185.032 366.396 182.344 364.434 178.888C362.514 175.389 361.554 171.272 361.554 166.536C361.554 161.885 362.514 157.832 364.434 154.376C366.354 150.877 369.042 148.168 372.498 146.248C375.996 144.285 380.092 143.304 384.786 143.304C387.943 143.304 390.78 143.731 393.298 144.584C395.858 145.395 398.076 146.419 399.954 147.656L401.234 156.68H400.658C399.719 152.925 397.799 150.088 394.898 148.168C391.996 146.205 388.626 145.224 384.786 145.224C381.031 145.224 377.767 146.12 374.994 147.912C372.263 149.661 370.13 152.136 368.594 155.336C367.1 158.493 366.354 162.205 366.354 166.472C366.354 170.739 367.1 174.472 368.594 177.672C370.13 180.872 372.242 183.368 374.93 185.16C377.66 186.952 380.818 187.891 384.402 187.976C387.431 187.976 390.226 187.421 392.786 186.312C395.388 185.16 397.564 183.304 399.314 180.744C401.063 178.141 402.172 174.664 402.642 170.312H403.154ZM433.155 143.304C437.72 143.304 441.731 144.285 445.187 146.248C448.643 148.168 451.331 150.877 453.251 154.376C455.213 157.875 456.195 161.949 456.195 166.6C456.195 171.251 455.213 175.325 453.251 178.824C451.331 182.323 448.643 185.053 445.187 187.016C441.731 188.936 437.72 189.896 433.155 189.896C428.632 189.896 424.643 188.936 421.187 187.016C417.731 185.053 415.021 182.323 413.059 178.824C411.139 175.325 410.179 171.251 410.179 166.6C410.179 161.949 411.139 157.875 413.059 154.376C415.021 150.877 417.731 148.168 421.187 146.248C424.643 144.285 428.632 143.304 433.155 143.304ZM433.155 187.976C436.781 187.976 439.939 187.08 442.627 185.288C445.357 183.496 447.469 181 448.963 177.8C450.499 174.6 451.267 170.867 451.267 166.6C451.267 162.333 450.499 158.6 448.963 155.4C447.469 152.2 445.357 149.704 442.627 147.912C439.939 146.12 436.781 145.224 433.155 145.224C429.571 145.224 426.413 146.12 423.683 147.912C420.995 149.704 418.883 152.2 417.347 155.4C415.853 158.6 415.107 162.333 415.107 166.6C415.107 170.867 415.853 174.6 417.347 177.8C418.883 181 420.995 183.496 423.683 185.288C426.413 187.08 429.571 187.976 433.155 187.976ZM505.17 143.304L505.682 147.592L489.618 183.368C489.618 183.368 489.448 183.731 489.106 184.456C488.808 185.181 488.488 186.056 488.146 187.08C487.805 188.061 487.57 189 487.442 189.896H486.802L485.906 185.864L505.17 143.304ZM465.81 184.328V189H458.706V188.36C458.749 188.36 458.92 188.36 459.218 188.36C459.56 188.36 459.73 188.36 459.73 188.36C460.882 188.36 461.906 188.019 462.802 187.336C463.698 186.611 464.232 185.608 464.402 184.328H465.81ZM467.666 185.352C467.666 185.395 467.666 185.437 467.666 185.48C467.666 185.523 467.666 185.587 467.666 185.672C467.666 186.355 467.901 186.995 468.37 187.592C468.882 188.147 469.48 188.424 470.162 188.424H471.122V189H467.218V185.352H467.666ZM469.202 143.304H469.842L471.122 147.08L467.346 189H463.89L469.202 143.304ZM469.842 143.304L488.274 183.176L486.802 189.896L468.626 150.472L469.842 143.304ZM505.746 143.304L511.25 189H506.258L502.738 150.216L505.17 143.304H505.746ZM509.33 184.328H510.674C510.888 185.608 511.442 186.611 512.338 187.336C513.234 188.019 514.237 188.36 515.346 188.36C515.346 188.36 515.517 188.36 515.858 188.36C516.2 188.36 516.37 188.36 516.37 188.36V189H509.33V184.328ZM505.938 185.352H506.386V189H502.482V188.424H503.442C504.168 188.424 504.765 188.147 505.234 187.592C505.704 186.995 505.938 186.355 505.938 185.672C505.938 185.587 505.938 185.523 505.938 185.48C505.938 185.437 505.938 185.395 505.938 185.352ZM564.093 143.304L564.605 147.592L548.541 183.368C548.541 183.368 548.37 183.731 548.029 184.456C547.73 185.181 547.41 186.056 547.069 187.08C546.727 188.061 546.493 189 546.365 189.896H545.725L544.829 185.864L564.093 143.304ZM524.733 184.328V189H517.629V188.36C517.671 188.36 517.842 188.36 518.141 188.36C518.482 188.36 518.653 188.36 518.653 188.36C519.805 188.36 520.829 188.019 521.725 187.336C522.621 186.611 523.154 185.608 523.325 184.328H524.733ZM526.589 185.352C526.589 185.395 526.589 185.437 526.589 185.48C526.589 185.523 526.589 185.587 526.589 185.672C526.589 186.355 526.823 186.995 527.293 187.592C527.805 188.147 528.402 188.424 529.085 188.424H530.045V189H526.141V185.352H526.589ZM528.125 143.304H528.765L530.045 147.08L526.269 189H522.813L528.125 143.304ZM528.765 143.304L547.197 183.176L545.725 189.896L527.549 150.472L528.765 143.304ZM564.669 143.304L570.173 189H565.181L561.661 150.216L564.093 143.304H564.669ZM568.253 184.328H569.597C569.81 185.608 570.365 186.611 571.261 187.336C572.157 188.019 573.159 188.36 574.269 188.36C574.269 188.36 574.439 188.36 574.781 188.36C575.122 188.36 575.293 188.36 575.293 188.36V189H568.253V184.328ZM564.861 185.352H565.309V189H561.405V188.424H562.365C563.09 188.424 563.687 188.147 564.157 187.592C564.626 186.995 564.861 186.355 564.861 185.672C564.861 185.587 564.861 185.523 564.861 185.48C564.861 185.437 564.861 185.395 564.861 185.352ZM586.117 144.2V172.36C586.117 175.432 586.672 178.141 587.781 180.488C588.933 182.835 590.533 184.669 592.581 185.992C594.629 187.272 596.997 187.912 599.685 187.912C602.544 187.912 605.04 187.293 607.173 186.056C609.307 184.819 610.971 183.112 612.165 180.936C613.36 178.717 613.957 176.136 613.957 173.192V144.2H616.965V173.192C616.965 176.52 616.24 179.443 614.789 181.96C613.381 184.435 611.376 186.376 608.773 187.784C606.171 189.192 603.141 189.896 599.685 189.896C596.144 189.896 593.029 189.213 590.341 187.848C587.696 186.44 585.627 184.499 584.133 182.024C582.683 179.507 581.957 176.584 581.957 173.256V144.2H586.117ZM582.149 144.2V148.04H581.957C581.957 147.101 581.616 146.333 580.933 145.736C580.293 145.139 579.504 144.84 578.565 144.84C578.565 144.84 578.395 144.84 578.053 144.84C577.712 144.84 577.541 144.84 577.541 144.84V144.2H582.149ZM590.533 144.2V144.84C590.533 144.84 590.363 144.84 590.021 144.84C589.68 144.84 589.509 144.84 589.509 144.84C588.571 144.84 587.76 145.139 587.077 145.736C586.437 146.333 586.117 147.101 586.117 148.04H585.989V144.2H590.533ZM614.149 144.2V148.04H613.957C613.957 147.101 613.616 146.333 612.933 145.736C612.293 145.139 611.504 144.84 610.565 144.84C610.565 144.84 610.395 144.84 610.053 144.84C609.712 144.84 609.541 144.84 609.541 144.84V144.2H614.149ZM621.381 144.2V144.84C621.381 144.84 621.211 144.84 620.869 144.84C620.528 144.84 620.357 144.84 620.357 144.84C619.419 144.84 618.608 145.139 617.925 145.736C617.285 146.333 616.965 147.101 616.965 148.04H616.837V144.2H621.381ZM631.203 143.24L668.387 182.92L668.963 189.896L631.779 150.28L631.203 143.24ZM631.331 184.456V189H626.019V188.36C626.019 188.36 626.211 188.36 626.595 188.36C626.979 188.36 627.192 188.36 627.235 188.36C628.301 188.36 629.219 187.976 629.987 187.208C630.755 186.44 631.139 185.523 631.139 184.456H631.331ZM634.083 184.456C634.083 185.523 634.467 186.44 635.235 187.208C636.003 187.976 636.92 188.36 637.987 188.36C638.029 188.36 638.243 188.36 638.627 188.36C639.011 188.36 639.203 188.36 639.203 188.36V189H633.891V184.456H634.083ZM631.203 143.24L634.019 146.824L634.083 189H631.139V151.24C631.139 149.064 631.032 147.187 630.819 145.608C630.648 144.029 630.563 143.24 630.563 143.24H631.203ZM668.963 144.2V181.704C668.963 183.069 669.005 184.392 669.091 185.672C669.176 186.909 669.261 187.933 669.347 188.744C669.475 189.512 669.539 189.896 669.539 189.896H668.963L666.083 186.504V144.2H668.963ZM674.083 144.2V144.84C674.083 144.84 673.891 144.84 673.507 144.84C673.123 144.84 672.931 144.84 672.931 144.84C671.864 144.84 670.947 145.224 670.179 145.992C669.411 146.717 669.005 147.635 668.963 148.744H668.771V144.2H674.083ZM660.899 144.2H666.211V148.744H666.083C666.04 147.635 665.635 146.717 664.867 145.992C664.141 145.224 663.224 144.84 662.115 144.84C662.115 144.84 661.923 144.84 661.539 144.84C661.155 144.84 660.941 144.84 660.899 144.84V144.2ZM688.614 144.2V189H684.454V144.2H688.614ZM684.646 184.328V189H679.526V188.36C679.526 188.36 679.654 188.36 679.91 188.36C680.209 188.36 680.358 188.36 680.358 188.36C681.468 188.36 682.406 187.976 683.174 187.208C683.985 186.397 684.412 185.437 684.454 184.328H684.646ZM684.646 148.872H684.454C684.412 147.763 683.985 146.824 683.174 146.056C682.406 145.245 681.468 144.84 680.358 144.84C680.358 144.84 680.209 144.84 679.91 144.84C679.654 144.84 679.526 144.84 679.526 144.84V144.2H684.646V148.872ZM688.422 184.328H688.614C688.657 185.437 689.062 186.397 689.83 187.208C690.641 187.976 691.601 188.36 692.71 188.36C692.71 188.36 692.838 188.36 693.094 188.36C693.35 188.36 693.5 188.36 693.542 188.36V189H688.422V184.328ZM688.422 148.872V144.2H693.542V144.84C693.5 144.84 693.35 144.84 693.094 144.84C692.838 144.84 692.71 144.84 692.71 144.84C691.601 144.84 690.641 145.245 689.83 146.056C689.062 146.824 688.657 147.763 688.614 148.872H688.422ZM718.559 144.392V189H714.399V144.392H718.559ZM735.007 144.136V146.056H697.951V144.136H735.007ZM735.007 145.864V151.048L734.367 150.984V149.896C734.367 148.829 733.983 147.933 733.215 147.208C732.49 146.483 731.615 146.099 730.591 146.056V145.864H735.007ZM735.007 142.984V144.84L727.199 144.136C728.138 144.136 729.119 144.072 730.143 143.944C731.21 143.816 732.191 143.667 733.087 143.496C733.983 143.325 734.623 143.155 735.007 142.984ZM714.591 184.328V189H709.471V188.36C709.471 188.36 709.599 188.36 709.855 188.36C710.154 188.36 710.303 188.36 710.303 188.36C711.413 188.36 712.351 187.976 713.119 187.208C713.93 186.397 714.357 185.437 714.399 184.328H714.591ZM718.367 184.328H718.559C718.602 185.437 719.007 186.397 719.775 187.208C720.586 187.976 721.546 188.36 722.655 188.36C722.655 188.36 722.783 188.36 723.039 188.36C723.338 188.36 723.487 188.36 723.487 188.36V189H718.367V184.328ZM702.367 145.864V146.056C701.301 146.099 700.405 146.483 699.679 147.208C698.954 147.933 698.591 148.829 698.591 149.896V150.984L697.951 151.048V145.864H702.367ZM697.951 142.984C698.378 143.155 699.018 143.325 699.871 143.496C700.767 143.667 701.749 143.816 702.815 143.944C703.882 144.072 704.863 144.136 705.759 144.136L697.951 144.84V142.984ZM745.194 144.264L757.738 167.624L754.986 169.864L739.69 144.264H745.194ZM758.634 168.392V189H754.474V168.392H758.634ZM770.026 144.264H773.93L758.186 169.736L755.882 169.032L770.026 144.264ZM767.402 148.808C767.786 148.211 767.892 147.613 767.722 147.016C767.551 146.376 767.231 145.864 766.762 145.48C766.292 145.053 765.759 144.84 765.162 144.84C765.162 144.84 765.034 144.84 764.778 144.84C764.522 144.84 764.394 144.84 764.394 144.84V144.2H778.602V144.84H777.706C776.383 144.84 775.146 145.224 773.994 145.992C772.842 146.76 771.924 147.635 771.242 148.616L767.402 148.808ZM747.626 148.808L742.25 148.616C741.652 147.635 740.778 146.76 739.626 145.992C738.474 145.224 737.215 144.84 735.85 144.84H734.954V144.2H750.698V144.84C750.698 144.84 750.548 144.84 750.25 144.84C749.994 144.84 749.866 144.84 749.866 144.84C748.927 144.84 748.202 145.288 747.69 146.184C747.22 147.037 747.199 147.912 747.626 148.808ZM754.602 184.328V189H749.546V188.36C749.546 188.36 749.674 188.36 749.93 188.36C750.186 188.36 750.335 188.36 750.378 188.36C751.487 188.36 752.426 187.976 753.194 187.208C754.004 186.397 754.431 185.437 754.474 184.328H754.602ZM758.442 184.328H758.634C758.634 185.437 759.039 186.397 759.85 187.208C760.66 187.976 761.62 188.36 762.73 188.36C762.73 188.36 762.858 188.36 763.114 188.36C763.37 188.36 763.498 188.36 763.498 188.36V189H758.442V184.328ZM814.514 144.392V189H810.354V144.392H814.514ZM830.962 144.136V146.056H793.906V144.136H830.962ZM830.962 145.864V151.048L830.322 150.984V149.896C830.322 148.829 829.938 147.933 829.17 147.208C828.445 146.483 827.57 146.099 826.546 146.056V145.864H830.962ZM830.962 142.984V144.84L823.154 144.136C824.093 144.136 825.074 144.072 826.098 143.944C827.165 143.816 828.146 143.667 829.042 143.496C829.938 143.325 830.578 143.155 830.962 142.984ZM810.546 184.328V189H805.426V188.36C805.426 188.36 805.554 188.36 805.81 188.36C806.109 188.36 806.258 188.36 806.258 188.36C807.368 188.36 808.306 187.976 809.074 187.208C809.885 186.397 810.312 185.437 810.354 184.328H810.546ZM814.322 184.328H814.514C814.557 185.437 814.962 186.397 815.73 187.208C816.541 187.976 817.501 188.36 818.61 188.36C818.61 188.36 818.738 188.36 818.994 188.36C819.293 188.36 819.442 188.36 819.442 188.36V189H814.322V184.328ZM798.322 145.864V146.056C797.256 146.099 796.36 146.483 795.634 147.208C794.909 147.933 794.546 148.829 794.546 149.896V150.984L793.906 151.048V145.864H798.322ZM793.906 142.984C794.333 143.155 794.973 143.325 795.826 143.496C796.722 143.667 797.704 143.816 798.77 143.944C799.837 144.072 800.818 144.136 801.714 144.136L793.906 144.84V142.984ZM857.38 143.304C861.945 143.304 865.956 144.285 869.412 146.248C872.868 148.168 875.556 150.877 877.476 154.376C879.438 157.875 880.42 161.949 880.42 166.6C880.42 171.251 879.438 175.325 877.476 178.824C875.556 182.323 872.868 185.053 869.412 187.016C865.956 188.936 861.945 189.896 857.38 189.896C852.857 189.896 848.868 188.936 845.412 187.016C841.956 185.053 839.246 182.323 837.284 178.824C835.364 175.325 834.404 171.251 834.404 166.6C834.404 161.949 835.364 157.875 837.284 154.376C839.246 150.877 841.956 148.168 845.412 146.248C848.868 144.285 852.857 143.304 857.38 143.304ZM857.38 187.976C861.006 187.976 864.164 187.08 866.852 185.288C869.582 183.496 871.694 181 873.188 177.8C874.724 174.6 875.492 170.867 875.492 166.6C875.492 162.333 874.724 158.6 873.188 155.4C871.694 152.2 869.582 149.704 866.852 147.912C864.164 146.12 861.006 145.224 857.38 145.224C853.796 145.224 850.638 146.12 847.908 147.912C845.22 149.704 843.108 152.2 841.572 155.4C840.078 158.6 839.332 162.333 839.332 166.6C839.332 170.867 840.078 174.6 841.572 177.8C843.108 181 845.22 183.496 847.908 185.288C850.638 187.08 853.796 187.976 857.38 187.976ZM893.747 144.2V172.36C893.747 175.432 894.302 178.141 895.411 180.488C896.563 182.835 898.163 184.669 900.211 185.992C902.259 187.272 904.627 187.912 907.315 187.912C910.174 187.912 912.67 187.293 914.803 186.056C916.937 184.819 918.601 183.112 919.795 180.936C920.99 178.717 921.587 176.136 921.587 173.192V144.2H924.595V173.192C924.595 176.52 923.87 179.443 922.419 181.96C921.011 184.435 919.006 186.376 916.403 187.784C913.801 189.192 910.771 189.896 907.315 189.896C903.774 189.896 900.659 189.213 897.971 187.848C895.326 186.44 893.257 184.499 891.763 182.024C890.313 179.507 889.587 176.584 889.587 173.256V144.2H893.747ZM889.779 144.2V148.04H889.587C889.587 147.101 889.246 146.333 888.563 145.736C887.923 145.139 887.134 144.84 886.195 144.84C886.195 144.84 886.025 144.84 885.683 144.84C885.342 144.84 885.171 144.84 885.171 144.84V144.2H889.779ZM898.163 144.2V144.84C898.163 144.84 897.993 144.84 897.651 144.84C897.31 144.84 897.139 144.84 897.139 144.84C896.201 144.84 895.39 145.139 894.707 145.736C894.067 146.333 893.747 147.101 893.747 148.04H893.619V144.2H898.163ZM921.779 144.2V148.04H921.587C921.587 147.101 921.246 146.333 920.563 145.736C919.923 145.139 919.134 144.84 918.195 144.84C918.195 144.84 918.025 144.84 917.683 144.84C917.342 144.84 917.171 144.84 917.171 144.84V144.2H921.779ZM929.011 144.2V144.84C929.011 144.84 928.841 144.84 928.499 144.84C928.158 144.84 927.987 144.84 927.987 144.84C927.049 144.84 926.238 145.139 925.555 145.736C924.915 146.333 924.595 147.101 924.595 148.04H924.467V144.2H929.011ZM942.865 144.2H951.889C953.809 144.2 955.537 144.477 957.073 145.032C958.651 145.587 959.974 146.397 961.041 147.464C962.107 148.488 962.918 149.747 963.473 151.24C964.07 152.691 964.369 154.355 964.369 156.232C964.369 158.28 963.878 160.243 962.897 162.12C961.958 163.997 960.657 165.533 958.993 166.728C957.371 167.88 955.537 168.456 953.489 168.456C954.214 168.755 955.003 169.373 955.857 170.312C956.71 171.208 957.457 172.083 958.097 172.936C958.097 172.936 958.374 173.363 958.929 174.216C959.526 175.027 960.251 176.029 961.105 177.224C962.001 178.419 962.897 179.592 963.793 180.744C964.689 181.896 965.457 182.813 966.097 183.496C966.95 184.435 967.803 185.267 968.657 185.992C969.51 186.717 970.427 187.293 971.409 187.72C972.433 188.147 973.563 188.36 974.801 188.36V189H971.281C969.318 189 967.611 188.701 966.161 188.104C964.753 187.507 963.558 186.781 962.577 185.928C961.595 185.032 960.763 184.179 960.081 183.368C959.953 183.197 959.59 182.707 958.993 181.896C958.438 181.085 957.755 180.125 956.945 179.016C956.177 177.864 955.409 176.733 954.641 175.624C953.873 174.515 953.211 173.576 952.657 172.808C952.102 171.997 951.782 171.528 951.697 171.4C950.886 170.333 949.99 169.352 949.009 168.456C948.027 167.56 946.961 167.112 945.809 167.112V166.472C945.809 166.472 946.129 166.493 946.769 166.536C947.451 166.536 948.262 166.515 949.201 166.472C950.31 166.429 951.526 166.259 952.849 165.96C954.171 165.661 955.409 165.043 956.561 164.104C957.713 163.165 958.587 161.736 959.185 159.816C959.313 159.347 959.419 158.771 959.505 158.088C959.59 157.363 959.611 156.659 959.569 155.976C959.526 153.075 958.779 150.771 957.329 149.064C955.921 147.315 954.022 146.376 951.633 146.248C950.438 146.163 949.201 146.141 947.921 146.184C946.683 146.184 945.638 146.184 944.785 146.184C943.931 146.184 943.505 146.184 943.505 146.184C943.505 146.141 943.441 145.971 943.313 145.672C943.227 145.331 943.121 145.011 942.993 144.712C942.907 144.371 942.865 144.2 942.865 144.2ZM943.697 144.2V189H939.537V144.2H943.697ZM939.729 184.328V189H934.609V188.36C934.609 188.36 934.737 188.36 934.993 188.36C935.291 188.36 935.441 188.36 935.441 188.36C936.55 188.36 937.489 187.976 938.257 187.208C939.067 186.397 939.494 185.437 939.537 184.328H939.729ZM939.729 148.872H939.537C939.494 147.763 939.067 146.824 938.257 146.056C937.489 145.245 936.55 144.84 935.441 144.84C935.441 144.84 935.291 144.84 934.993 144.84C934.737 144.84 934.609 144.84 934.609 144.84V144.2H939.729V148.872ZM943.505 184.328H943.697C943.697 185.437 944.102 186.397 944.913 187.208C945.723 187.976 946.683 188.36 947.793 188.36C947.793 188.36 947.921 188.36 948.177 188.36C948.433 188.36 948.561 188.36 948.561 188.36V189H943.505V184.328ZM984.432 144.2V189H980.272V144.2H984.432ZM980.464 184.328V189H975.344V188.36C975.344 188.36 975.472 188.36 975.728 188.36C976.026 188.36 976.176 188.36 976.176 188.36C977.285 188.36 978.224 187.976 978.992 187.208C979.802 186.397 980.229 185.437 980.272 184.328H980.464ZM980.464 148.872H980.272C980.229 147.763 979.802 146.824 978.992 146.056C978.224 145.245 977.285 144.84 976.176 144.84C976.176 144.84 976.026 144.84 975.728 144.84C975.472 144.84 975.344 144.84 975.344 144.84V144.2H980.464V148.872ZM984.24 184.328H984.432C984.474 185.437 984.88 186.397 985.648 187.208C986.458 187.976 987.418 188.36 988.528 188.36C988.528 188.36 988.656 188.36 988.912 188.36C989.168 188.36 989.317 188.36 989.36 188.36V189H984.24V184.328ZM984.24 148.872V144.2H989.36V144.84C989.317 144.84 989.168 144.84 988.912 144.84C988.656 144.84 988.528 144.84 988.528 144.84C987.418 144.84 986.458 145.245 985.648 146.056C984.88 146.824 984.474 147.763 984.432 148.872H984.24ZM1008.55 143.304C1009.24 143.304 1009.96 143.347 1010.73 143.432C1011.54 143.517 1012.31 143.645 1013.03 143.816C1013.8 143.944 1014.48 144.093 1015.08 144.264C1015.72 144.392 1016.21 144.541 1016.55 144.712V151.816H1015.98C1015.98 149.768 1015.27 148.168 1013.86 147.016C1012.46 145.821 1010.75 145.224 1008.74 145.224C1006.4 145.224 1004.5 145.971 1003.05 147.464C1001.6 148.915 1000.87 150.621 1000.87 152.584C1000.87 153.395 1001.04 154.355 1001.38 155.464C1001.77 156.531 1002.45 157.533 1003.43 158.472L1016.04 170.12C1017.32 171.315 1018.17 172.595 1018.6 173.96C1019.03 175.325 1019.24 176.648 1019.24 177.928C1019.24 181.469 1018.15 184.349 1015.98 186.568C1013.84 188.787 1010.94 189.896 1007.27 189.896C1006.25 189.896 1005.03 189.789 1003.62 189.576C1002.26 189.363 1000.92 189 999.593 188.488C998.313 187.933 997.246 187.229 996.393 186.376C996.265 185.693 996.201 184.84 996.201 183.816C996.201 182.792 996.286 181.725 996.457 180.616C996.627 179.464 996.862 178.419 997.161 177.48H997.737C997.523 179.656 997.801 181.555 998.569 183.176C999.337 184.797 1000.45 186.035 1001.9 186.888C1003.39 187.699 1005.08 188.061 1006.95 187.976C1009.3 187.848 1011.3 187.037 1012.97 185.544C1014.68 184.008 1015.53 181.96 1015.53 179.4C1015.53 178.163 1015.32 177.053 1014.89 176.072C1014.46 175.048 1013.84 174.173 1013.03 173.448L1000.74 162.056C999.465 160.861 998.569 159.56 998.057 158.152C997.545 156.701 997.289 155.357 997.289 154.12C997.289 152.328 997.715 150.6 998.569 148.936C999.422 147.272 1000.68 145.928 1002.34 144.904C1004.05 143.837 1006.12 143.304 1008.55 143.304ZM1016.55 143.944V145.288H1011.69V143.944H1016.55ZM1069.65 143.304L1070.16 147.592L1054.1 183.368C1054.1 183.368 1053.93 183.731 1053.58 184.456C1053.29 185.181 1052.97 186.056 1052.62 187.08C1052.28 188.061 1052.05 189 1051.92 189.896H1051.28L1050.38 185.864L1069.65 143.304ZM1030.29 184.328V189H1023.18V188.36C1023.23 188.36 1023.4 188.36 1023.7 188.36C1024.04 188.36 1024.21 188.36 1024.21 188.36C1025.36 188.36 1026.38 188.019 1027.28 187.336C1028.18 186.611 1028.71 185.608 1028.88 184.328H1030.29ZM1032.14 185.352C1032.14 185.395 1032.14 185.437 1032.14 185.48C1032.14 185.523 1032.14 185.587 1032.14 185.672C1032.14 186.355 1032.38 186.995 1032.85 187.592C1033.36 188.147 1033.96 188.424 1034.64 188.424H1035.6V189H1031.7V185.352H1032.14ZM1033.68 143.304H1034.32L1035.6 147.08L1031.82 189H1028.37L1033.68 143.304ZM1034.32 143.304L1052.75 183.176L1051.28 189.896L1033.1 150.472L1034.32 143.304ZM1070.22 143.304L1075.73 189H1070.74L1067.22 150.216L1069.65 143.304H1070.22ZM1073.81 184.328H1075.15C1075.37 185.608 1075.92 186.611 1076.82 187.336C1077.71 188.019 1078.71 188.36 1079.82 188.36C1079.82 188.36 1079.99 188.36 1080.34 188.36C1080.68 188.36 1080.85 188.36 1080.85 188.36V189H1073.81V184.328ZM1070.42 185.352H1070.86V189H1066.96V188.424H1067.92C1068.65 188.424 1069.24 188.147 1069.71 187.592C1070.18 186.995 1070.42 186.355 1070.42 185.672C1070.42 185.587 1070.42 185.523 1070.42 185.48C1070.42 185.437 1070.42 185.395 1070.42 185.352Z" fill="#F0FAFD"/>
</svg>
