<svg width="791" height="190" viewBox="0 0 791 190" fill="none" xmlns="http://www.w3.org/2000/svg">
<line x1="185.5" y1="13" x2="249.5" y2="13" stroke="white"/>
<path d="M274.553 0.295998C274.937 0.295998 275.345 0.319999 275.777 0.368C276.233 0.415999 276.665 0.487999 277.073 0.583999C277.505 0.655999 277.889 0.739999 278.225 0.835998C278.585 0.907998 278.861 0.991999 279.053 1.088V5.084H278.729C278.729 3.932 278.333 3.032 277.541 2.384C276.749 1.712 275.789 1.376 274.661 1.376C273.341 1.376 272.273 1.796 271.457 2.636C270.641 3.452 270.233 4.412 270.233 5.516C270.233 5.972 270.329 6.512 270.521 7.136C270.737 7.736 271.121 8.3 271.673 8.828L278.765 15.38C279.485 16.052 279.965 16.772 280.205 17.54C280.445 18.308 280.565 19.052 280.565 19.772C280.565 21.764 279.953 23.384 278.729 24.632C277.529 25.88 275.897 26.504 273.833 26.504C273.257 26.504 272.573 26.444 271.781 26.324C271.013 26.204 270.257 26 269.513 25.712C268.793 25.4 268.193 25.004 267.713 24.524C267.641 24.14 267.605 23.66 267.605 23.084C267.605 22.508 267.653 21.908 267.749 21.284C267.845 20.636 267.977 20.048 268.145 19.52H268.469C268.349 20.744 268.505 21.812 268.937 22.724C269.369 23.636 269.993 24.332 270.809 24.812C271.649 25.268 272.597 25.472 273.653 25.424C274.973 25.352 276.101 24.896 277.037 24.056C277.997 23.192 278.477 22.04 278.477 20.6C278.477 19.904 278.357 19.28 278.117 18.728C277.877 18.152 277.529 17.66 277.073 17.252L270.161 10.844C269.441 10.172 268.937 9.44 268.649 8.648C268.361 7.832 268.217 7.076 268.217 6.38C268.217 5.372 268.457 4.4 268.937 3.464C269.417 2.528 270.125 1.772 271.061 1.196C272.021 0.595999 273.185 0.295998 274.553 0.295998ZM279.053 0.655998V1.412H276.317V0.655998H279.053ZM290.827 0.799998V16.64C290.827 18.368 291.139 19.892 291.763 21.212C292.411 22.532 293.311 23.564 294.463 24.308C295.615 25.028 296.947 25.388 298.459 25.388C300.067 25.388 301.471 25.04 302.671 24.344C303.871 23.648 304.807 22.688 305.479 21.464C306.151 20.216 306.487 18.764 306.487 17.108V0.799998H308.179V17.108C308.179 18.98 307.771 20.624 306.955 22.04C306.163 23.432 305.035 24.524 303.571 25.316C302.107 26.108 300.403 26.504 298.459 26.504C296.467 26.504 294.715 26.12 293.203 25.352C291.715 24.56 290.551 23.468 289.711 22.076C288.895 20.66 288.487 19.016 288.487 17.144V0.799998H290.827ZM288.595 0.799998V2.96H288.487C288.487 2.432 288.295 2 287.911 1.664C287.551 1.328 287.107 1.16 286.579 1.16C286.579 1.16 286.483 1.16 286.291 1.16C286.099 1.16 286.003 1.16 286.003 1.16V0.799998H288.595ZM293.311 0.799998V1.16C293.311 1.16 293.215 1.16 293.023 1.16C292.831 1.16 292.735 1.16 292.735 1.16C292.207 1.16 291.751 1.328 291.367 1.664C291.007 2 290.827 2.432 290.827 2.96H290.755V0.799998H293.311ZM306.595 0.799998V2.96H306.487C306.487 2.432 306.295 2 305.911 1.664C305.551 1.328 305.107 1.16 304.579 1.16C304.579 1.16 304.483 1.16 304.291 1.16C304.099 1.16 304.003 1.16 304.003 1.16V0.799998H306.595ZM310.663 0.799998V1.16C310.663 1.16 310.567 1.16 310.375 1.16C310.183 1.16 310.087 1.16 310.087 1.16C309.559 1.16 309.103 1.328 308.719 1.664C308.359 2 308.179 2.432 308.179 2.96H308.107V0.799998H310.663ZM318.147 0.259999L339.063 22.58L339.387 26.504L318.471 4.22L318.147 0.259999ZM318.219 23.444V26H315.231V25.64C315.231 25.64 315.339 25.64 315.555 25.64C315.771 25.64 315.891 25.64 315.915 25.64C316.515 25.64 317.031 25.424 317.463 24.992C317.895 24.56 318.111 24.044 318.111 23.444H318.219ZM319.767 23.444C319.767 24.044 319.983 24.56 320.415 24.992C320.847 25.424 321.363 25.64 321.963 25.64C321.987 25.64 322.107 25.64 322.323 25.64C322.539 25.64 322.647 25.64 322.647 25.64V26H319.659V23.444H319.767ZM318.147 0.259999L319.731 2.276L319.767 26H318.111V4.76C318.111 3.536 318.051 2.48 317.931 1.592C317.835 0.703999 317.787 0.259999 317.787 0.259999H318.147ZM339.387 0.799998V21.896C339.387 22.664 339.411 23.408 339.459 24.128C339.507 24.824 339.555 25.4 339.603 25.856C339.675 26.288 339.711 26.504 339.711 26.504H339.387L337.767 24.596V0.799998H339.387ZM342.267 0.799998V1.16C342.267 1.16 342.159 1.16 341.943 1.16C341.727 1.16 341.619 1.16 341.619 1.16C341.019 1.16 340.503 1.376 340.071 1.808C339.639 2.216 339.411 2.732 339.387 3.356H339.279V0.799998H342.267ZM334.851 0.799998H337.839V3.356H337.767C337.743 2.732 337.515 2.216 337.083 1.808C336.675 1.376 336.159 1.16 335.535 1.16C335.535 1.16 335.427 1.16 335.211 1.16C334.995 1.16 334.875 1.16 334.851 1.16V0.799998ZM359.493 0.799998C362.061 0.799998 364.305 1.328 366.225 2.384C368.169 3.416 369.681 4.88 370.761 6.776C371.865 8.672 372.417 10.88 372.417 13.4C372.417 15.92 371.865 18.128 370.761 20.024C369.681 21.896 368.169 23.36 366.225 24.416C364.305 25.472 362.061 26 359.493 26H351.789L351.753 24.92C351.753 24.92 352.005 24.92 352.509 24.92C353.037 24.92 353.685 24.92 354.453 24.92C355.245 24.92 356.025 24.92 356.793 24.92C357.561 24.92 358.197 24.92 358.701 24.92C359.229 24.92 359.493 24.92 359.493 24.92C361.557 24.92 363.345 24.44 364.857 23.48C366.393 22.52 367.581 21.176 368.421 19.448C369.285 17.72 369.717 15.704 369.717 13.4C369.717 11.096 369.285 9.08 368.421 7.352C367.581 5.624 366.393 4.28 364.857 3.32C363.321 2.36 361.533 1.88 359.493 1.88C359.493 1.88 359.217 1.88 358.665 1.88C358.137 1.88 357.465 1.88 356.649 1.88C355.857 1.88 355.053 1.88 354.237 1.88C353.445 1.88 352.773 1.88 352.221 1.88C351.669 1.88 351.393 1.88 351.393 1.88V0.799998H359.493ZM352.401 0.799998V26H350.061V0.799998H352.401ZM350.169 23.372V26H347.289V25.64C347.289 25.64 347.361 25.64 347.505 25.64C347.673 25.64 347.757 25.64 347.757 25.64C348.381 25.64 348.909 25.424 349.341 24.992C349.797 24.536 350.037 23.996 350.061 23.372H350.169ZM350.169 3.428H350.061C350.061 2.804 349.833 2.276 349.377 1.844C348.921 1.388 348.381 1.16 347.757 1.16C347.757 1.16 347.685 1.16 347.541 1.16C347.397 1.16 347.325 1.16 347.325 1.16L347.289 0.799998H350.169V3.428ZM387.427 0.295998L398.083 25.784H395.023L386.707 3.716L387.427 0.295998ZM379.687 23.372C379.519 23.852 379.495 24.26 379.615 24.596C379.735 24.932 379.927 25.196 380.191 25.388C380.479 25.556 380.767 25.64 381.055 25.64H381.379V26H374.143V25.64C374.143 25.64 374.203 25.64 374.323 25.64C374.419 25.64 374.467 25.64 374.467 25.64C375.019 25.64 375.583 25.472 376.159 25.136C376.759 24.776 377.251 24.188 377.635 23.372H379.687ZM387.427 0.295998L387.751 2.816L378.715 25.892H376.555L385.771 4.004C385.771 4.004 385.831 3.86 385.951 3.572C386.095 3.26 386.251 2.888 386.419 2.456C386.611 2.024 386.767 1.604 386.887 1.196C387.031 0.787999 387.103 0.487999 387.103 0.295998H387.427ZM392.503 16.172V17.252H381.235V16.172H392.503ZM394.123 23.372H397.075C397.435 24.188 397.915 24.776 398.515 25.136C399.115 25.472 399.691 25.64 400.243 25.64C400.243 25.64 400.291 25.64 400.387 25.64C400.483 25.64 400.531 25.64 400.531 25.64V26H392.431V25.64H392.755C393.211 25.64 393.619 25.448 393.979 25.064C394.339 24.656 394.387 24.092 394.123 23.372ZM408.536 0.799998H413.612C414.692 0.799998 415.664 0.955998 416.528 1.268C417.416 1.58 418.16 2.036 418.76 2.636C419.36 3.212 419.816 3.92 420.128 4.76C420.464 5.576 420.632 6.512 420.632 7.568C420.632 8.72 420.356 9.824 419.804 10.88C419.276 11.936 418.544 12.8 417.608 13.472C416.696 14.12 415.664 14.444 414.512 14.444C414.92 14.612 415.364 14.96 415.844 15.488C416.324 15.992 416.744 16.484 417.104 16.964C417.104 16.964 417.26 17.204 417.572 17.684C417.908 18.14 418.316 18.704 418.796 19.376C419.3 20.048 419.804 20.708 420.308 21.356C420.812 22.004 421.244 22.52 421.604 22.904C422.084 23.432 422.564 23.9 423.044 24.308C423.524 24.716 424.04 25.04 424.592 25.28C425.168 25.52 425.804 25.64 426.5 25.64V26H424.52C423.416 26 422.456 25.832 421.64 25.496C420.848 25.16 420.176 24.752 419.624 24.272C419.072 23.768 418.604 23.288 418.22 22.832C418.148 22.736 417.944 22.46 417.608 22.004C417.296 21.548 416.912 21.008 416.456 20.384C416.024 19.736 415.592 19.1 415.16 18.476C414.728 17.852 414.356 17.324 414.044 16.892C413.732 16.436 413.552 16.172 413.504 16.1C413.048 15.5 412.544 14.948 411.992 14.444C411.44 13.94 410.84 13.688 410.192 13.688V13.328C410.192 13.328 410.372 13.34 410.732 13.364C411.116 13.364 411.572 13.352 412.1 13.328C412.724 13.304 413.408 13.208 414.152 13.04C414.896 12.872 415.592 12.524 416.24 11.996C416.888 11.468 417.38 10.664 417.716 9.584C417.788 9.32 417.848 8.996 417.896 8.612C417.944 8.204 417.956 7.808 417.932 7.424C417.908 5.792 417.488 4.496 416.672 3.536C415.88 2.552 414.812 2.024 413.468 1.952C412.796 1.904 412.1 1.892 411.38 1.916C410.684 1.916 410.096 1.916 409.616 1.916C409.136 1.916 408.896 1.916 408.896 1.916C408.896 1.892 408.86 1.796 408.788 1.628C408.74 1.436 408.68 1.256 408.608 1.088C408.56 0.895998 408.536 0.799998 408.536 0.799998ZM409.004 0.799998V26H406.664V0.799998H409.004ZM406.772 23.372V26H403.892V25.64C403.892 25.64 403.964 25.64 404.108 25.64C404.276 25.64 404.36 25.64 404.36 25.64C404.984 25.64 405.512 25.424 405.944 24.992C406.4 24.536 406.64 23.996 406.664 23.372H406.772ZM406.772 3.428H406.664C406.64 2.804 406.4 2.276 405.944 1.844C405.512 1.388 404.984 1.16 404.36 1.16C404.36 1.16 404.276 1.16 404.108 1.16C403.964 1.16 403.892 1.16 403.892 1.16V0.799998H406.772V3.428ZM408.896 23.372H409.004C409.004 23.996 409.232 24.536 409.688 24.992C410.144 25.424 410.684 25.64 411.308 25.64C411.308 25.64 411.38 25.64 411.524 25.64C411.668 25.64 411.74 25.64 411.74 25.64V26H408.896V23.372ZM432.113 0.799998H435.929C437.609 0.799998 439.025 1.052 440.177 1.556C441.353 2.06 442.241 2.768 442.841 3.68C443.441 4.568 443.741 5.612 443.741 6.812C443.741 7.82 443.549 8.708 443.165 9.476C442.781 10.22 442.289 10.832 441.689 11.312C441.089 11.768 440.453 12.092 439.781 12.284C441.053 12.476 442.145 12.896 443.057 13.544C443.993 14.192 444.701 15.008 445.181 15.992C445.685 16.952 445.937 18.032 445.937 19.232C445.937 20.576 445.613 21.764 444.965 22.796C444.317 23.804 443.357 24.596 442.085 25.172C440.837 25.724 439.325 26 437.549 26H433.553C433.553 26 433.553 25.892 433.553 25.676C433.577 25.46 433.589 25.244 433.589 25.028C433.589 24.812 433.589 24.704 433.589 24.704H437.405C438.653 24.704 439.709 24.488 440.573 24.056C441.437 23.6 442.097 22.94 442.553 22.076C443.009 21.212 443.237 20.18 443.237 18.98C443.237 17.636 442.973 16.544 442.445 15.704C441.941 14.864 441.281 14.228 440.465 13.796C439.649 13.364 438.761 13.076 437.801 12.932C436.865 12.764 435.965 12.68 435.101 12.68V12.356C435.653 12.356 436.265 12.296 436.937 12.176C437.609 12.056 438.257 11.816 438.881 11.456C439.505 11.096 440.021 10.568 440.429 9.872C440.837 9.152 441.041 8.216 441.041 7.064C441.041 5.984 440.837 5.06 440.429 4.292C440.045 3.524 439.457 2.948 438.665 2.564C437.897 2.156 436.937 1.952 435.785 1.952H432.473C432.473 1.928 432.437 1.832 432.365 1.664C432.317 1.472 432.257 1.28 432.185 1.088C432.137 0.895998 432.113 0.799998 432.113 0.799998ZM433.877 0.799998V26H431.537V0.799998H433.877ZM431.645 23.372V26H428.765L428.801 25.64C428.849 25.64 428.921 25.64 429.017 25.64C429.137 25.64 429.209 25.64 429.233 25.64C429.857 25.64 430.397 25.424 430.853 24.992C431.309 24.536 431.537 23.996 431.537 23.372H431.645ZM431.645 3.428H431.537C431.537 2.804 431.309 2.276 430.853 1.844C430.397 1.388 429.857 1.16 429.233 1.16C429.209 1.16 429.137 1.16 429.017 1.16C428.921 1.16 428.849 1.16 428.801 1.16L428.765 0.799998H431.645V3.428ZM462.223 0.295998L472.879 25.784H469.819L461.503 3.716L462.223 0.295998ZM454.483 23.372C454.315 23.852 454.291 24.26 454.411 24.596C454.531 24.932 454.723 25.196 454.987 25.388C455.275 25.556 455.563 25.64 455.851 25.64H456.175V26H448.939V25.64C448.939 25.64 448.999 25.64 449.119 25.64C449.215 25.64 449.263 25.64 449.263 25.64C449.815 25.64 450.379 25.472 450.955 25.136C451.555 24.776 452.047 24.188 452.431 23.372H454.483ZM462.223 0.295998L462.547 2.816L453.511 25.892H451.351L460.567 4.004C460.567 4.004 460.627 3.86 460.747 3.572C460.891 3.26 461.047 2.888 461.215 2.456C461.407 2.024 461.563 1.604 461.683 1.196C461.827 0.787999 461.899 0.487999 461.899 0.295998H462.223ZM467.299 16.172V17.252H456.031V16.172H467.299ZM468.919 23.372H471.871C472.231 24.188 472.711 24.776 473.311 25.136C473.911 25.472 474.487 25.64 475.039 25.64C475.039 25.64 475.087 25.64 475.183 25.64C475.279 25.64 475.327 25.64 475.327 25.64V26H467.227V25.64H467.551C468.007 25.64 468.415 25.448 468.775 25.064C469.135 24.656 469.183 24.092 468.919 23.372ZM481.064 0.259999L501.98 22.58L502.304 26.504L481.388 4.22L481.064 0.259999ZM481.136 23.444V26H478.148V25.64C478.148 25.64 478.256 25.64 478.472 25.64C478.688 25.64 478.808 25.64 478.832 25.64C479.432 25.64 479.948 25.424 480.38 24.992C480.812 24.56 481.028 24.044 481.028 23.444H481.136ZM482.684 23.444C482.684 24.044 482.9 24.56 483.332 24.992C483.764 25.424 484.28 25.64 484.88 25.64C484.904 25.64 485.024 25.64 485.24 25.64C485.456 25.64 485.564 25.64 485.564 25.64V26H482.576V23.444H482.684ZM481.064 0.259999L482.648 2.276L482.684 26H481.028V4.76C481.028 3.536 480.968 2.48 480.848 1.592C480.752 0.703999 480.704 0.259999 480.704 0.259999H481.064ZM502.304 0.799998V21.896C502.304 22.664 502.328 23.408 502.376 24.128C502.424 24.824 502.472 25.4 502.52 25.856C502.592 26.288 502.628 26.504 502.628 26.504H502.304L500.684 24.596V0.799998H502.304ZM505.184 0.799998V1.16C505.184 1.16 505.076 1.16 504.86 1.16C504.644 1.16 504.536 1.16 504.536 1.16C503.936 1.16 503.42 1.376 502.988 1.808C502.556 2.216 502.328 2.732 502.304 3.356H502.196V0.799998H505.184ZM497.768 0.799998H500.756V3.356H500.684C500.66 2.732 500.432 2.216 500 1.808C499.592 1.376 499.076 1.16 498.452 1.16C498.452 1.16 498.344 1.16 498.128 1.16C497.912 1.16 497.792 1.16 497.768 1.16V0.799998ZM517.433 0.295998C517.817 0.295998 518.225 0.319999 518.657 0.368C519.113 0.415999 519.545 0.487999 519.953 0.583999C520.385 0.655999 520.769 0.739999 521.105 0.835998C521.465 0.907998 521.741 0.991999 521.933 1.088V5.084H521.609C521.609 3.932 521.213 3.032 520.421 2.384C519.629 1.712 518.669 1.376 517.541 1.376C516.221 1.376 515.153 1.796 514.337 2.636C513.521 3.452 513.113 4.412 513.113 5.516C513.113 5.972 513.209 6.512 513.401 7.136C513.617 7.736 514.001 8.3 514.553 8.828L521.645 15.38C522.365 16.052 522.845 16.772 523.085 17.54C523.325 18.308 523.445 19.052 523.445 19.772C523.445 21.764 522.833 23.384 521.609 24.632C520.409 25.88 518.777 26.504 516.713 26.504C516.137 26.504 515.453 26.444 514.661 26.324C513.893 26.204 513.137 26 512.393 25.712C511.673 25.4 511.073 25.004 510.593 24.524C510.521 24.14 510.485 23.66 510.485 23.084C510.485 22.508 510.533 21.908 510.629 21.284C510.725 20.636 510.857 20.048 511.025 19.52H511.349C511.229 20.744 511.385 21.812 511.817 22.724C512.249 23.636 512.873 24.332 513.689 24.812C514.529 25.268 515.477 25.472 516.533 25.424C517.853 25.352 518.981 24.896 519.917 24.056C520.877 23.192 521.357 22.04 521.357 20.6C521.357 19.904 521.237 19.28 520.997 18.728C520.757 18.152 520.409 17.66 519.953 17.252L513.041 10.844C512.321 10.172 511.817 9.44 511.529 8.648C511.241 7.832 511.097 7.076 511.097 6.38C511.097 5.372 511.337 4.4 511.817 3.464C512.297 2.528 513.005 1.772 513.941 1.196C514.901 0.595999 516.065 0.295998 517.433 0.295998ZM521.933 0.655998V1.412H519.197V0.655998H521.933Z" fill="white"/>
<line x1="541.5" y1="13" x2="605.5" y2="13" stroke="white"/>
<path d="M16.1278 65.304C16.8104 65.304 17.5358 65.3467 18.3038 65.432C19.1144 65.5173 19.8824 65.6453 20.6078 65.816C21.3758 65.944 22.0584 66.0933 22.6558 66.264C23.2958 66.392 23.7864 66.5413 24.1278 66.712V73.816H23.5518C23.5518 71.768 22.8478 70.168 21.4398 69.016C20.0318 67.8213 18.3251 67.224 16.3198 67.224C13.9731 67.224 12.0744 67.9707 10.6238 69.464C9.17309 70.9147 8.44775 72.6213 8.44775 74.584C8.44775 75.3947 8.61842 76.3547 8.95975 77.464C9.34375 78.5307 10.0264 79.5333 11.0078 80.472L23.6158 92.12C24.8958 93.3147 25.7491 94.5947 26.1758 95.96C26.6024 97.3253 26.8158 98.648 26.8158 99.928C26.8158 103.469 25.7278 106.349 23.5518 108.568C21.4184 110.787 18.5171 111.896 14.8478 111.896C13.8238 111.896 12.6078 111.789 11.1998 111.576C9.83442 111.363 8.49042 111 7.16775 110.488C5.88775 109.933 4.82108 109.229 3.96775 108.376C3.83975 107.693 3.77575 106.84 3.77575 105.816C3.77575 104.792 3.86108 103.725 4.03175 102.616C4.20242 101.464 4.43708 100.419 4.73575 99.48H5.31175C5.09842 101.656 5.37575 103.555 6.14375 105.176C6.91175 106.797 8.02108 108.035 9.47175 108.888C10.9651 109.699 12.6504 110.061 14.5278 109.976C16.8744 109.848 18.8798 109.037 20.5438 107.544C22.2504 106.008 23.1038 103.96 23.1038 101.4C23.1038 100.163 22.8904 99.0533 22.4638 98.072C22.0371 97.048 21.4184 96.1733 20.6078 95.448L8.31975 84.056C7.03975 82.8613 6.14375 81.56 5.63175 80.152C5.11975 78.7013 4.86375 77.3573 4.86375 76.12C4.86375 74.328 5.29042 72.6 6.14375 70.936C6.99708 69.272 8.25575 67.928 9.91975 66.904C11.6264 65.8373 13.6958 65.304 16.1278 65.304ZM24.1278 65.944V67.288H19.2638V65.944H24.1278ZM51.6868 66.392V111H47.5268V66.392H51.6868ZM68.1348 66.136V68.056H31.0788V66.136H68.1348ZM68.1348 67.864V73.048L67.4948 72.984V71.896C67.4948 70.8293 67.1108 69.9333 66.3428 69.208C65.6174 68.4827 64.7428 68.0987 63.7188 68.056V67.864H68.1348ZM68.1348 64.984V66.84L60.3268 66.136C61.2654 66.136 62.2468 66.072 63.2708 65.944C64.3374 65.816 65.3188 65.6667 66.2148 65.496C67.1108 65.3253 67.7508 65.1547 68.1348 64.984ZM47.7188 106.328V111H42.5988V110.36C42.5988 110.36 42.7268 110.36 42.9828 110.36C43.2814 110.36 43.4308 110.36 43.4308 110.36C44.5401 110.36 45.4788 109.976 46.2468 109.208C47.0574 108.397 47.4841 107.437 47.5268 106.328H47.7188ZM51.4948 106.328H51.6868C51.7294 107.437 52.1348 108.397 52.9028 109.208C53.7134 109.976 54.6734 110.36 55.7828 110.36C55.7828 110.36 55.9108 110.36 56.1668 110.36C56.4654 110.36 56.6148 110.36 56.6148 110.36V111H51.4948V106.328ZM35.4948 67.864V68.056C34.4281 68.0987 33.5321 68.4827 32.8068 69.208C32.0814 69.9333 31.7188 70.8293 31.7188 71.896V72.984L31.0788 73.048V67.864H35.4948ZM31.0788 64.984C31.5054 65.1547 32.1454 65.3253 32.9988 65.496C33.8948 65.6667 34.8761 65.816 35.9428 65.944C37.0094 66.072 37.9908 66.136 38.8868 66.136L31.0788 66.84V64.984ZM81.6493 66.2V111H77.4893V66.2H81.6493ZM98.9293 109.016V111H81.4573V109.016H98.9293ZM96.1773 87.96V89.88H81.4573V87.96H96.1773ZM98.9293 66.2V68.184H81.4573V66.2H98.9293ZM102.833 100.632L99.1213 111H88.4973L90.8013 109.016C93.0626 109.016 94.8973 108.675 96.3053 107.992C97.7559 107.267 98.9293 106.264 99.8253 104.984C100.721 103.704 101.511 102.253 102.193 100.632H102.833ZM96.1773 89.752V93.976H95.5373V93.016C95.5373 92.1627 95.2386 91.4373 94.6413 90.84C94.0439 90.2 93.3186 89.88 92.4653 89.88V89.752H96.1773ZM96.1773 83.864V88.088H92.4653V87.96C93.3186 87.9173 94.0439 87.5973 94.6413 87C95.2386 86.36 95.5373 85.6133 95.5373 84.76V83.864H96.1773ZM98.9293 67.992V73.112H98.2893V71.96C98.2893 70.936 97.9266 70.0613 97.2013 69.336C96.4759 68.568 95.5799 68.1627 94.5133 68.12V67.992H98.9293ZM98.9293 65.048V66.904L91.1213 66.2C92.0599 66.2 93.0413 66.136 94.0653 66.008C95.1319 65.88 96.1133 65.7307 97.0093 65.56C97.9053 65.3893 98.5453 65.2187 98.9293 65.048ZM77.6813 106.328V111H72.5613V110.36C72.5613 110.36 72.6893 110.36 72.9453 110.36C73.2439 110.36 73.3933 110.36 73.3933 110.36C74.5026 110.36 75.4413 109.976 76.2093 109.208C77.0199 108.397 77.4466 107.437 77.4893 106.328H77.6813ZM77.6813 70.872H77.4893C77.4893 69.7627 77.0839 68.824 76.2733 68.056C75.4626 67.2453 74.5026 66.84 73.3933 66.84C73.3933 66.84 73.2653 66.84 73.0093 66.84C72.7533 66.84 72.6253 66.84 72.6253 66.84L72.5613 66.2H77.6813V70.872ZM116.49 66.2H124.938C127.668 66.2 130.015 66.6907 131.978 67.672C133.94 68.6533 135.455 70.0827 136.522 71.96C137.588 73.7947 138.122 75.992 138.122 78.552C138.122 80.5147 137.738 82.2853 136.97 83.864C136.202 85.4 135.178 86.7013 133.898 87.768C132.618 88.8347 131.167 89.6453 129.546 90.2C127.924 90.712 126.239 90.904 124.49 90.776C122.783 90.648 121.119 90.1573 119.498 89.304V88.664C119.498 88.664 119.86 88.728 120.586 88.856C121.311 88.9413 122.228 88.9627 123.338 88.92C124.49 88.8347 125.684 88.6 126.922 88.216C128.202 87.7893 129.375 87.064 130.442 86.04C131.551 85.016 132.383 83.5867 132.938 81.752C133.066 81.2827 133.172 80.7067 133.258 80.024C133.343 79.2987 133.364 78.5947 133.322 77.912C133.279 74.968 132.511 72.6 131.018 70.808C129.524 69.016 127.412 68.12 124.682 68.12H117.13C117.13 68.12 117.066 67.9707 116.938 67.672C116.852 67.3307 116.746 67.0107 116.618 66.712C116.532 66.3707 116.49 66.2 116.49 66.2ZM117.322 66.2V111H113.162V66.2H117.322ZM113.354 106.328V111H108.234V110.36C108.234 110.36 108.362 110.36 108.618 110.36C108.916 110.36 109.066 110.36 109.066 110.36C110.175 110.36 111.114 109.976 111.882 109.208C112.692 108.397 113.119 107.437 113.162 106.328H113.354ZM113.354 70.872H113.162C113.162 69.7627 112.756 68.824 111.946 68.056C111.135 67.2453 110.175 66.84 109.066 66.84C109.066 66.84 108.938 66.84 108.682 66.84C108.426 66.84 108.298 66.84 108.298 66.84L108.234 66.2H113.354V70.872ZM117.13 106.328H117.322C117.364 107.437 117.77 108.397 118.538 109.208C119.348 109.976 120.308 110.36 121.418 110.36C121.418 110.36 121.546 110.36 121.802 110.36C122.1 110.36 122.25 110.36 122.25 110.36V111H117.13V106.328ZM168.979 66.2V111H164.819V66.2H168.979ZM165.011 106.328V111H159.891V110.36C159.891 110.36 160.019 110.36 160.275 110.36C160.574 110.36 160.723 110.36 160.723 110.36C161.833 110.36 162.771 109.976 163.539 109.208C164.35 108.397 164.777 107.437 164.819 106.328H165.011ZM165.011 70.872H164.819C164.777 69.7627 164.35 68.824 163.539 68.056C162.771 67.2453 161.833 66.84 160.723 66.84C160.723 66.84 160.574 66.84 160.275 66.84C160.019 66.84 159.891 66.84 159.891 66.84V66.2H165.011V70.872ZM168.787 106.328H168.979C169.022 107.437 169.427 108.397 170.195 109.208C171.006 109.976 171.966 110.36 173.075 110.36C173.075 110.36 173.203 110.36 173.459 110.36C173.715 110.36 173.865 110.36 173.907 110.36V111H168.787V106.328ZM168.787 70.872V66.2H173.907V66.84C173.865 66.84 173.715 66.84 173.459 66.84C173.203 66.84 173.075 66.84 173.075 66.84C171.966 66.84 171.006 67.2453 170.195 68.056C169.427 68.824 169.022 69.7627 168.979 70.872H168.787ZM185.1 65.24L222.284 104.92L222.86 111.896L185.676 72.28L185.1 65.24ZM185.228 106.456V111H179.916V110.36C179.916 110.36 180.108 110.36 180.492 110.36C180.876 110.36 181.09 110.36 181.132 110.36C182.199 110.36 183.116 109.976 183.884 109.208C184.652 108.44 185.036 107.523 185.036 106.456H185.228ZM187.98 106.456C187.98 107.523 188.364 108.44 189.132 109.208C189.9 109.976 190.818 110.36 191.884 110.36C191.927 110.36 192.14 110.36 192.524 110.36C192.908 110.36 193.1 110.36 193.1 110.36V111H187.788V106.456H187.98ZM185.1 65.24L187.916 68.824L187.98 111H185.036V73.24C185.036 71.064 184.93 69.1867 184.716 67.608C184.546 66.0293 184.46 65.24 184.46 65.24H185.1ZM222.86 66.2V103.704C222.86 105.069 222.903 106.392 222.988 107.672C223.074 108.909 223.159 109.933 223.244 110.744C223.372 111.512 223.436 111.896 223.436 111.896H222.86L219.98 108.504V66.2H222.86ZM227.98 66.2V66.84C227.98 66.84 227.788 66.84 227.404 66.84C227.02 66.84 226.828 66.84 226.828 66.84C225.762 66.84 224.844 67.224 224.076 67.992C223.308 68.7173 222.903 69.6347 222.86 70.744H222.668V66.2H227.98ZM214.796 66.2H220.108V70.744H219.98C219.938 69.6347 219.532 68.7173 218.764 67.992C218.039 67.224 217.122 66.84 216.012 66.84C216.012 66.84 215.82 66.84 215.436 66.84C215.052 66.84 214.839 66.84 214.796 66.84V66.2ZM252.097 66.392V111H247.937V66.392H252.097ZM268.545 66.136V68.056H231.489V66.136H268.545ZM268.545 67.864V73.048L267.905 72.984V71.896C267.905 70.8293 267.521 69.9333 266.753 69.208C266.027 68.4827 265.153 68.0987 264.129 68.056V67.864H268.545ZM268.545 64.984V66.84L260.737 66.136C261.675 66.136 262.657 66.072 263.681 65.944C264.747 65.816 265.729 65.6667 266.625 65.496C267.521 65.3253 268.161 65.1547 268.545 64.984ZM248.129 106.328V111H243.009V110.36C243.009 110.36 243.137 110.36 243.393 110.36C243.691 110.36 243.841 110.36 243.841 110.36C244.95 110.36 245.889 109.976 246.657 109.208C247.467 108.397 247.894 107.437 247.937 106.328H248.129ZM251.905 106.328H252.097C252.139 107.437 252.545 108.397 253.313 109.208C254.123 109.976 255.083 110.36 256.193 110.36C256.193 110.36 256.321 110.36 256.577 110.36C256.875 110.36 257.025 110.36 257.025 110.36V111H251.905V106.328ZM235.905 67.864V68.056C234.838 68.0987 233.942 68.4827 233.217 69.208C232.491 69.9333 232.129 70.8293 232.129 71.896V72.984L231.489 73.048V67.864H235.905ZM231.489 64.984C231.915 65.1547 232.555 65.3253 233.409 65.496C234.305 65.6667 235.286 65.816 236.353 65.944C237.419 66.072 238.401 66.136 239.297 66.136L231.489 66.84V64.984ZM294.962 65.304C299.528 65.304 303.538 66.2853 306.994 68.248C310.45 70.168 313.138 72.8773 315.058 76.376C317.021 79.8747 318.002 83.9493 318.002 88.6C318.002 93.2507 317.021 97.3253 315.058 100.824C313.138 104.323 310.45 107.053 306.994 109.016C303.538 110.936 299.528 111.896 294.962 111.896C290.44 111.896 286.45 110.936 282.994 109.016C279.538 107.053 276.829 104.323 274.866 100.824C272.946 97.3253 271.986 93.2507 271.986 88.6C271.986 83.9493 272.946 79.8747 274.866 76.376C276.829 72.8773 279.538 70.168 282.994 68.248C286.45 66.2853 290.44 65.304 294.962 65.304ZM294.962 109.976C298.589 109.976 301.746 109.08 304.434 107.288C307.165 105.496 309.277 103 310.77 99.8C312.306 96.6 313.074 92.8667 313.074 88.6C313.074 84.3333 312.306 80.6 310.77 77.4C309.277 74.2 307.165 71.704 304.434 69.912C301.746 68.12 298.589 67.224 294.962 67.224C291.378 67.224 288.221 68.12 285.49 69.912C282.802 71.704 280.69 74.2 279.154 77.4C277.661 80.6 276.914 84.3333 276.914 88.6C276.914 92.8667 277.661 96.6 279.154 99.8C280.69 103 282.802 105.496 285.49 107.288C288.221 109.08 291.378 109.976 294.962 109.976ZM358.364 66.392V111H354.204V66.392H358.364ZM374.812 66.136V68.056H337.756V66.136H374.812ZM374.812 67.864V73.048L374.172 72.984V71.896C374.172 70.8293 373.788 69.9333 373.02 69.208C372.295 68.4827 371.42 68.0987 370.396 68.056V67.864H374.812ZM374.812 64.984V66.84L367.004 66.136C367.943 66.136 368.924 66.072 369.948 65.944C371.015 65.816 371.996 65.6667 372.892 65.496C373.788 65.3253 374.428 65.1547 374.812 64.984ZM354.396 106.328V111H349.276V110.36C349.276 110.36 349.404 110.36 349.66 110.36C349.959 110.36 350.108 110.36 350.108 110.36C351.218 110.36 352.156 109.976 352.924 109.208C353.735 108.397 354.162 107.437 354.204 106.328H354.396ZM358.172 106.328H358.364C358.407 107.437 358.812 108.397 359.58 109.208C360.391 109.976 361.351 110.36 362.46 110.36C362.46 110.36 362.588 110.36 362.844 110.36C363.143 110.36 363.292 110.36 363.292 110.36V111H358.172V106.328ZM342.172 67.864V68.056C341.106 68.0987 340.21 68.4827 339.484 69.208C338.759 69.9333 338.396 70.8293 338.396 71.896V72.984L337.756 73.048V67.864H342.172ZM337.756 64.984C338.183 65.1547 338.823 65.3253 339.676 65.496C340.572 65.6667 341.554 65.816 342.62 65.944C343.687 66.072 344.668 66.136 345.564 66.136L337.756 66.84V64.984ZM418.663 66.2V111H414.503V66.2H418.663ZM388.327 66.2V111H384.167V66.2H388.327ZM415.079 87.896V89.816H387.687V87.896H415.079ZM384.359 106.328V111H379.239V110.36C379.239 110.36 379.367 110.36 379.623 110.36C379.921 110.36 380.071 110.36 380.071 110.36C381.18 110.36 382.119 109.976 382.887 109.208C383.697 108.397 384.124 107.437 384.167 106.328H384.359ZM384.359 70.872H384.167C384.124 69.7627 383.697 68.824 382.887 68.056C382.119 67.2453 381.18 66.84 380.071 66.84C380.071 66.84 379.921 66.84 379.623 66.84C379.367 66.84 379.239 66.84 379.239 66.84V66.2H384.359V70.872ZM388.135 106.328H388.327C388.369 107.437 388.775 108.397 389.543 109.208C390.353 109.976 391.313 110.36 392.423 110.36C392.423 110.36 392.551 110.36 392.807 110.36C393.063 110.36 393.212 110.36 393.255 110.36V111H388.135V106.328ZM388.135 70.872V66.2H393.255V66.84C393.212 66.84 393.063 66.84 392.807 66.84C392.551 66.84 392.423 66.84 392.423 66.84C391.313 66.84 390.353 67.2453 389.543 68.056C388.775 68.824 388.369 69.7627 388.327 70.872H388.135ZM414.695 106.328V111H409.575V110.36C409.617 110.36 409.767 110.36 410.023 110.36C410.279 110.36 410.407 110.36 410.407 110.36C411.516 110.36 412.476 109.976 413.287 109.208C414.097 108.397 414.503 107.437 414.503 106.328H414.695ZM414.695 70.872H414.503C414.503 69.7627 414.097 68.824 413.287 68.056C412.476 67.2453 411.516 66.84 410.407 66.84C410.407 66.84 410.279 66.84 410.023 66.84C409.767 66.84 409.617 66.84 409.575 66.84V66.2H414.695V70.872ZM418.471 106.328H418.663C418.705 107.437 419.111 108.397 419.879 109.208C420.689 109.976 421.649 110.36 422.759 110.36C422.759 110.36 422.887 110.36 423.143 110.36C423.441 110.36 423.591 110.36 423.591 110.36V111H418.471V106.328ZM418.471 70.872V66.2H423.591V66.84C423.591 66.84 423.441 66.84 423.143 66.84C422.887 66.84 422.759 66.84 422.759 66.84C421.649 66.84 420.689 67.2453 419.879 68.056C419.111 68.824 418.705 69.7627 418.663 70.872H418.471ZM439.749 66.2V111H435.589V66.2H439.749ZM457.029 109.016V111H439.557V109.016H457.029ZM454.277 87.96V89.88H439.557V87.96H454.277ZM457.029 66.2V68.184H439.557V66.2H457.029ZM460.933 100.632L457.221 111H446.597L448.901 109.016C451.163 109.016 452.997 108.675 454.405 107.992C455.856 107.267 457.029 106.264 457.925 104.984C458.821 103.704 459.611 102.253 460.293 100.632H460.933ZM454.277 89.752V93.976H453.637V93.016C453.637 92.1627 453.339 91.4373 452.741 90.84C452.144 90.2 451.419 89.88 450.565 89.88V89.752H454.277ZM454.277 83.864V88.088H450.565V87.96C451.419 87.9173 452.144 87.5973 452.741 87C453.339 86.36 453.637 85.6133 453.637 84.76V83.864H454.277ZM457.029 67.992V73.112H456.389V71.96C456.389 70.936 456.027 70.0613 455.301 69.336C454.576 68.568 453.68 68.1627 452.613 68.12V67.992H457.029ZM457.029 65.048V66.904L449.221 66.2C450.16 66.2 451.141 66.136 452.165 66.008C453.232 65.88 454.213 65.7307 455.109 65.56C456.005 65.3893 456.645 65.2187 457.029 65.048ZM435.781 106.328V111H430.661V110.36C430.661 110.36 430.789 110.36 431.045 110.36C431.344 110.36 431.493 110.36 431.493 110.36C432.603 110.36 433.541 109.976 434.309 109.208C435.12 108.397 435.547 107.437 435.589 106.328H435.781ZM435.781 70.872H435.589C435.589 69.7627 435.184 68.824 434.373 68.056C433.563 67.2453 432.603 66.84 431.493 66.84C431.493 66.84 431.365 66.84 431.109 66.84C430.853 66.84 430.725 66.84 430.725 66.84L430.661 66.2H435.781V70.872ZM521.743 66.2V111H517.583V66.2H521.743ZM491.407 66.2V111H487.247V66.2H491.407ZM518.159 87.896V89.816H490.767V87.896H518.159ZM487.439 106.328V111H482.319V110.36C482.319 110.36 482.447 110.36 482.703 110.36C483.001 110.36 483.151 110.36 483.151 110.36C484.26 110.36 485.199 109.976 485.967 109.208C486.777 108.397 487.204 107.437 487.247 106.328H487.439ZM487.439 70.872H487.247C487.204 69.7627 486.777 68.824 485.967 68.056C485.199 67.2453 484.26 66.84 483.151 66.84C483.151 66.84 483.001 66.84 482.703 66.84C482.447 66.84 482.319 66.84 482.319 66.84V66.2H487.439V70.872ZM491.215 106.328H491.407C491.449 107.437 491.855 108.397 492.623 109.208C493.433 109.976 494.393 110.36 495.503 110.36C495.503 110.36 495.631 110.36 495.887 110.36C496.143 110.36 496.292 110.36 496.335 110.36V111H491.215V106.328ZM491.215 70.872V66.2H496.335V66.84C496.292 66.84 496.143 66.84 495.887 66.84C495.631 66.84 495.503 66.84 495.503 66.84C494.393 66.84 493.433 67.2453 492.623 68.056C491.855 68.824 491.449 69.7627 491.407 70.872H491.215ZM517.775 106.328V111H512.655V110.36C512.697 110.36 512.847 110.36 513.103 110.36C513.359 110.36 513.487 110.36 513.487 110.36C514.596 110.36 515.556 109.976 516.367 109.208C517.177 108.397 517.583 107.437 517.583 106.328H517.775ZM517.775 70.872H517.583C517.583 69.7627 517.177 68.824 516.367 68.056C515.556 67.2453 514.596 66.84 513.487 66.84C513.487 66.84 513.359 66.84 513.103 66.84C512.847 66.84 512.697 66.84 512.655 66.84V66.2H517.775V70.872ZM521.551 106.328H521.743C521.785 107.437 522.191 108.397 522.959 109.208C523.769 109.976 524.729 110.36 525.839 110.36C525.839 110.36 525.967 110.36 526.223 110.36C526.521 110.36 526.671 110.36 526.671 110.36V111H521.551V106.328ZM521.551 70.872V66.2H526.671V66.84C526.671 66.84 526.521 66.84 526.223 66.84C525.967 66.84 525.839 66.84 525.839 66.84C524.729 66.84 523.769 67.2453 522.959 68.056C522.191 68.824 521.785 69.7627 521.743 70.872H521.551ZM542.829 66.2V111H538.669V66.2H542.829ZM560.109 109.016V111H542.637V109.016H560.109ZM557.357 87.96V89.88H542.637V87.96H557.357ZM560.109 66.2V68.184H542.637V66.2H560.109ZM564.013 100.632L560.301 111H549.677L551.981 109.016C554.243 109.016 556.077 108.675 557.485 107.992C558.936 107.267 560.109 106.264 561.005 104.984C561.901 103.704 562.691 102.253 563.373 100.632H564.013ZM557.357 89.752V93.976H556.717V93.016C556.717 92.1627 556.419 91.4373 555.821 90.84C555.224 90.2 554.499 89.88 553.645 89.88V89.752H557.357ZM557.357 83.864V88.088H553.645V87.96C554.499 87.9173 555.224 87.5973 555.821 87C556.419 86.36 556.717 85.6133 556.717 84.76V83.864H557.357ZM560.109 67.992V73.112H559.469V71.96C559.469 70.936 559.107 70.0613 558.381 69.336C557.656 68.568 556.76 68.1627 555.693 68.12V67.992H560.109ZM560.109 65.048V66.904L552.301 66.2C553.24 66.2 554.221 66.136 555.245 66.008C556.312 65.88 557.293 65.7307 558.189 65.56C559.085 65.3893 559.725 65.2187 560.109 65.048ZM538.861 106.328V111H533.741V110.36C533.741 110.36 533.869 110.36 534.125 110.36C534.424 110.36 534.573 110.36 534.573 110.36C535.683 110.36 536.621 109.976 537.389 109.208C538.2 108.397 538.627 107.437 538.669 106.328H538.861ZM538.861 70.872H538.669C538.669 69.7627 538.264 68.824 537.453 68.056C536.643 67.2453 535.683 66.84 534.573 66.84C534.573 66.84 534.445 66.84 534.189 66.84C533.933 66.84 533.805 66.84 533.805 66.84L533.741 66.2H538.861V70.872ZM589.175 65.304L608.119 110.616H602.679L587.895 71.384L589.175 65.304ZM575.415 106.328C575.116 107.181 575.073 107.907 575.287 108.504C575.5 109.101 575.841 109.571 576.311 109.912C576.823 110.211 577.335 110.36 577.847 110.36H578.423V111H565.559V110.36C565.559 110.36 565.665 110.36 565.879 110.36C566.049 110.36 566.135 110.36 566.135 110.36C567.116 110.36 568.119 110.061 569.143 109.464C570.209 108.824 571.084 107.779 571.767 106.328H575.415ZM589.175 65.304L589.751 69.784L573.687 110.808H569.847L586.231 71.896C586.231 71.896 586.337 71.64 586.551 71.128C586.807 70.5733 587.084 69.912 587.383 69.144C587.724 68.376 588.001 67.6293 588.215 66.904C588.471 66.1787 588.599 65.6453 588.599 65.304H589.175ZM598.199 93.528V95.448H578.167V93.528H598.199ZM601.079 106.328H606.327C606.967 107.779 607.82 108.824 608.887 109.464C609.953 110.061 610.977 110.36 611.959 110.36C611.959 110.36 612.044 110.36 612.215 110.36C612.385 110.36 612.471 110.36 612.471 110.36V111H598.071V110.36H598.647C599.457 110.36 600.183 110.019 600.823 109.336C601.463 108.611 601.548 107.608 601.079 106.328ZM623.217 66.2H632.241C634.161 66.2 635.889 66.4773 637.425 67.032C639.004 67.5867 640.327 68.3973 641.393 69.464C642.46 70.488 643.271 71.7467 643.825 73.24C644.423 74.6907 644.721 76.3547 644.721 78.232C644.721 80.28 644.231 82.2427 643.249 84.12C642.311 85.9973 641.009 87.5333 639.345 88.728C637.724 89.88 635.889 90.456 633.841 90.456C634.567 90.7547 635.356 91.3733 636.209 92.312C637.063 93.208 637.809 94.0827 638.449 94.936C638.449 94.936 638.727 95.3627 639.281 96.216C639.879 97.0267 640.604 98.0293 641.457 99.224C642.353 100.419 643.249 101.592 644.145 102.744C645.041 103.896 645.809 104.813 646.449 105.496C647.303 106.435 648.156 107.267 649.009 107.992C649.863 108.717 650.78 109.293 651.761 109.72C652.785 110.147 653.916 110.36 655.153 110.36V111H651.633C649.671 111 647.964 110.701 646.513 110.104C645.105 109.507 643.911 108.781 642.929 107.928C641.948 107.032 641.116 106.179 640.433 105.368C640.305 105.197 639.943 104.707 639.345 103.896C638.791 103.085 638.108 102.125 637.297 101.016C636.529 99.864 635.761 98.7333 634.993 97.624C634.225 96.5147 633.564 95.576 633.009 94.808C632.455 93.9973 632.135 93.528 632.049 93.4C631.239 92.3333 630.343 91.352 629.361 90.456C628.38 89.56 627.313 89.112 626.161 89.112V88.472C626.161 88.472 626.481 88.4933 627.121 88.536C627.804 88.536 628.615 88.5147 629.553 88.472C630.663 88.4293 631.879 88.2587 633.201 87.96C634.524 87.6613 635.761 87.0427 636.913 86.104C638.065 85.1653 638.94 83.736 639.537 81.816C639.665 81.3467 639.772 80.7707 639.857 80.088C639.943 79.3627 639.964 78.6587 639.921 77.976C639.879 75.0747 639.132 72.7707 637.681 71.064C636.273 69.3147 634.375 68.376 631.985 68.248C630.791 68.1627 629.553 68.1413 628.273 68.184C627.036 68.184 625.991 68.184 625.137 68.184C624.284 68.184 623.857 68.184 623.857 68.184C623.857 68.1413 623.793 67.9707 623.665 67.672C623.58 67.3307 623.473 67.0107 623.345 66.712C623.26 66.3707 623.217 66.2 623.217 66.2ZM624.049 66.2V111H619.889V66.2H624.049ZM620.081 106.328V111H614.961V110.36C614.961 110.36 615.089 110.36 615.345 110.36C615.644 110.36 615.793 110.36 615.793 110.36C616.903 110.36 617.841 109.976 618.609 109.208C619.42 108.397 619.847 107.437 619.889 106.328H620.081ZM620.081 70.872H619.889C619.847 69.7627 619.42 68.824 618.609 68.056C617.841 67.2453 616.903 66.84 615.793 66.84C615.793 66.84 615.644 66.84 615.345 66.84C615.089 66.84 614.961 66.84 614.961 66.84V66.2H620.081V70.872ZM623.857 106.328H624.049C624.049 107.437 624.455 108.397 625.265 109.208C626.076 109.976 627.036 110.36 628.145 110.36C628.145 110.36 628.273 110.36 628.529 110.36C628.785 110.36 628.913 110.36 628.913 110.36V111H623.857V106.328ZM672.182 66.392V111H668.022V66.392H672.182ZM688.63 66.136V68.056H651.574V66.136H688.63ZM688.63 67.864V73.048L687.99 72.984V71.896C687.99 70.8293 687.606 69.9333 686.838 69.208C686.112 68.4827 685.238 68.0987 684.214 68.056V67.864H688.63ZM688.63 64.984V66.84L680.822 66.136C681.76 66.136 682.742 66.072 683.766 65.944C684.832 65.816 685.814 65.6667 686.71 65.496C687.606 65.3253 688.246 65.1547 688.63 64.984ZM668.214 106.328V111H663.094V110.36C663.094 110.36 663.222 110.36 663.478 110.36C663.776 110.36 663.926 110.36 663.926 110.36C665.035 110.36 665.974 109.976 666.742 109.208C667.552 108.397 667.979 107.437 668.022 106.328H668.214ZM671.99 106.328H672.182C672.224 107.437 672.63 108.397 673.398 109.208C674.208 109.976 675.168 110.36 676.278 110.36C676.278 110.36 676.406 110.36 676.662 110.36C676.96 110.36 677.11 110.36 677.11 110.36V111H671.99V106.328ZM655.99 67.864V68.056C654.923 68.0987 654.027 68.4827 653.302 69.208C652.576 69.9333 652.214 70.8293 652.214 71.896V72.984L651.574 73.048V67.864H655.99ZM651.574 64.984C652 65.1547 652.64 65.3253 653.494 65.496C654.39 65.6667 655.371 65.816 656.438 65.944C657.504 66.072 658.486 66.136 659.382 66.136L651.574 66.84V64.984ZM732.032 65.304C736.598 65.304 740.608 66.2853 744.064 68.248C747.52 70.168 750.208 72.8773 752.128 76.376C754.091 79.8747 755.072 83.9493 755.072 88.6C755.072 93.2507 754.091 97.3253 752.128 100.824C750.208 104.323 747.52 107.053 744.064 109.016C740.608 110.936 736.598 111.896 732.032 111.896C727.51 111.896 723.52 110.936 720.064 109.016C716.608 107.053 713.899 104.323 711.936 100.824C710.016 97.3253 709.056 93.2507 709.056 88.6C709.056 83.9493 710.016 79.8747 711.936 76.376C713.899 72.8773 716.608 70.168 720.064 68.248C723.52 66.2853 727.51 65.304 732.032 65.304ZM732.032 109.976C735.659 109.976 738.816 109.08 741.504 107.288C744.235 105.496 746.347 103 747.84 99.8C749.376 96.6 750.144 92.8667 750.144 88.6C750.144 84.3333 749.376 80.6 747.84 77.4C746.347 74.2 744.235 71.704 741.504 69.912C738.816 68.12 735.659 67.224 732.032 67.224C728.448 67.224 725.291 68.12 722.56 69.912C719.872 71.704 717.76 74.2 716.224 77.4C714.731 80.6 713.984 84.3333 713.984 88.6C713.984 92.8667 714.731 96.6 716.224 99.8C717.76 103 719.872 105.496 722.56 107.288C725.291 109.08 728.448 109.976 732.032 109.976ZM769.239 66.2V111H765.079V66.2H769.239ZM783.767 87.96V89.88H769.047V87.96H783.767ZM786.519 66.2V68.184H769.047V66.2H786.519ZM783.767 89.752V93.976H783.127V93.016C783.127 92.1627 782.829 91.4373 782.231 90.84C781.634 90.2 780.909 89.88 780.055 89.88V89.752H783.767ZM783.767 83.864V88.088H780.055V87.96C780.909 87.9173 781.634 87.5973 782.231 87C782.829 86.36 783.127 85.6133 783.127 84.76V83.864H783.767ZM786.519 67.992V72.28H785.879V71.32C785.879 70.4667 785.559 69.7413 784.919 69.144C784.322 68.504 783.597 68.184 782.743 68.184V67.992H786.519ZM786.519 65.048V66.904L778.711 66.2C779.65 66.2 780.631 66.136 781.655 66.008C782.722 65.88 783.703 65.7307 784.599 65.56C785.495 65.3893 786.135 65.2187 786.519 65.048ZM765.271 106.328V111H760.151V110.36C760.151 110.36 760.279 110.36 760.535 110.36C760.834 110.36 760.983 110.36 760.983 110.36C762.093 110.36 763.031 109.976 763.799 109.208C764.61 108.397 765.037 107.437 765.079 106.328H765.271ZM765.271 70.872H765.079C765.079 69.7627 764.674 68.824 763.863 68.056C763.053 67.2453 762.093 66.84 760.983 66.84C760.983 66.84 760.855 66.84 760.599 66.84C760.343 66.84 760.215 66.84 760.215 66.84L760.151 66.2H765.271V70.872ZM769.047 106.328H769.239C769.282 107.437 769.687 108.397 770.455 109.208C771.266 109.976 772.226 110.36 773.335 110.36C773.335 110.36 773.463 110.36 773.719 110.36C773.975 110.36 774.125 110.36 774.167 110.36V111H769.047V106.328Z" fill="#F0FAFD"/>
<path d="M78.9037 170.312L78.1357 180.36C77.0264 182.195 75.6184 183.837 73.9117 185.288C72.2477 186.696 70.2637 187.827 67.9597 188.68C65.6984 189.491 63.0957 189.896 60.1517 189.896C55.7144 189.853 51.7677 188.872 48.3117 186.952C44.8557 185.032 42.1464 182.344 40.1837 178.888C38.2637 175.389 37.3037 171.272 37.3037 166.536C37.3037 161.885 38.2637 157.832 40.1837 154.376C42.1037 150.877 44.7917 148.168 48.2477 146.248C51.7464 144.285 55.8424 143.304 60.5357 143.304C63.6931 143.304 66.5304 143.731 69.0477 144.584C71.6077 145.395 73.8264 146.419 75.7037 147.656L76.9837 156.68H76.4077C75.4691 152.925 73.5491 150.088 70.6477 148.168C67.7464 146.205 64.3757 145.224 60.5357 145.224C56.7811 145.224 53.5171 146.12 50.7437 147.912C48.0131 149.661 45.8797 152.136 44.3437 155.336C42.8504 158.493 42.1037 162.205 42.1037 166.472C42.1037 170.739 42.8504 174.472 44.3437 177.672C45.8797 180.872 47.9917 183.368 50.6797 185.16C53.4104 186.952 56.5677 187.891 60.1517 187.976C63.1811 187.976 65.9757 187.421 68.5357 186.312C71.1384 185.16 73.3144 183.304 75.0637 180.744C76.8131 178.141 77.9224 174.664 78.3917 170.312H78.9037ZM108.905 143.304C113.47 143.304 117.481 144.285 120.937 146.248C124.393 148.168 127.081 150.877 129.001 154.376C130.963 157.875 131.945 161.949 131.945 166.6C131.945 171.251 130.963 175.325 129.001 178.824C127.081 182.323 124.393 185.053 120.937 187.016C117.481 188.936 113.47 189.896 108.905 189.896C104.382 189.896 100.393 188.936 96.9367 187.016C93.4807 185.053 90.7714 182.323 88.8087 178.824C86.8887 175.325 85.9287 171.251 85.9287 166.6C85.9287 161.949 86.8887 157.875 88.8087 154.376C90.7714 150.877 93.4807 148.168 96.9367 146.248C100.393 144.285 104.382 143.304 108.905 143.304ZM108.905 187.976C112.531 187.976 115.689 187.08 118.377 185.288C121.107 183.496 123.219 181 124.713 177.8C126.249 174.6 127.017 170.867 127.017 166.6C127.017 162.333 126.249 158.6 124.713 155.4C123.219 152.2 121.107 149.704 118.377 147.912C115.689 146.12 112.531 145.224 108.905 145.224C105.321 145.224 102.163 146.12 99.4327 147.912C96.7447 149.704 94.6327 152.2 93.0967 155.4C91.6034 158.6 90.8567 162.333 90.8567 166.6C90.8567 170.867 91.6034 174.6 93.0967 177.8C94.6327 181 96.7447 183.496 99.4327 185.288C102.163 187.08 105.321 187.976 108.905 187.976ZM180.92 143.304L181.432 147.592L165.368 183.368C165.368 183.368 165.198 183.731 164.856 184.456C164.558 185.181 164.238 186.056 163.896 187.08C163.555 188.061 163.32 189 163.192 189.896H162.552L161.656 185.864L180.92 143.304ZM141.56 184.328V189H134.456V188.36C134.499 188.36 134.67 188.36 134.968 188.36C135.31 188.36 135.48 188.36 135.48 188.36C136.632 188.36 137.656 188.019 138.552 187.336C139.448 186.611 139.982 185.608 140.152 184.328H141.56ZM143.416 185.352C143.416 185.395 143.416 185.437 143.416 185.48C143.416 185.523 143.416 185.587 143.416 185.672C143.416 186.355 143.651 186.995 144.12 187.592C144.632 188.147 145.23 188.424 145.912 188.424H146.872V189H142.968V185.352H143.416ZM144.952 143.304H145.592L146.872 147.08L143.096 189H139.64L144.952 143.304ZM145.592 143.304L164.024 183.176L162.552 189.896L144.376 150.472L145.592 143.304ZM181.496 143.304L187 189H182.008L178.488 150.216L180.92 143.304H181.496ZM185.08 184.328H186.424C186.638 185.608 187.192 186.611 188.088 187.336C188.984 188.019 189.987 188.36 191.096 188.36C191.096 188.36 191.267 188.36 191.608 188.36C191.95 188.36 192.12 188.36 192.12 188.36V189H185.08V184.328ZM181.688 185.352H182.136V189H178.232V188.424H179.192C179.918 188.424 180.515 188.147 180.984 187.592C181.454 186.995 181.688 186.355 181.688 185.672C181.688 185.587 181.688 185.523 181.688 185.48C181.688 185.437 181.688 185.395 181.688 185.352ZM239.843 143.304L240.355 147.592L224.291 183.368C224.291 183.368 224.12 183.731 223.779 184.456C223.48 185.181 223.16 186.056 222.819 187.08C222.477 188.061 222.243 189 222.115 189.896H221.475L220.579 185.864L239.843 143.304ZM200.483 184.328V189H193.379V188.36C193.421 188.36 193.592 188.36 193.891 188.36C194.232 188.36 194.403 188.36 194.403 188.36C195.555 188.36 196.579 188.019 197.475 187.336C198.371 186.611 198.904 185.608 199.075 184.328H200.483ZM202.339 185.352C202.339 185.395 202.339 185.437 202.339 185.48C202.339 185.523 202.339 185.587 202.339 185.672C202.339 186.355 202.573 186.995 203.043 187.592C203.555 188.147 204.152 188.424 204.835 188.424H205.795V189H201.891V185.352H202.339ZM203.875 143.304H204.515L205.795 147.08L202.019 189H198.563L203.875 143.304ZM204.515 143.304L222.947 183.176L221.475 189.896L203.299 150.472L204.515 143.304ZM240.419 143.304L245.923 189H240.931L237.411 150.216L239.843 143.304H240.419ZM244.003 184.328H245.347C245.56 185.608 246.115 186.611 247.011 187.336C247.907 188.019 248.909 188.36 250.019 188.36C250.019 188.36 250.189 188.36 250.531 188.36C250.872 188.36 251.043 188.36 251.043 188.36V189H244.003V184.328ZM240.611 185.352H241.059V189H237.155V188.424H238.115C238.84 188.424 239.437 188.147 239.907 187.592C240.376 186.995 240.611 186.355 240.611 185.672C240.611 185.587 240.611 185.523 240.611 185.48C240.611 185.437 240.611 185.395 240.611 185.352ZM261.867 144.2V172.36C261.867 175.432 262.422 178.141 263.531 180.488C264.683 182.835 266.283 184.669 268.331 185.992C270.379 187.272 272.747 187.912 275.435 187.912C278.294 187.912 280.79 187.293 282.923 186.056C285.057 184.819 286.721 183.112 287.915 180.936C289.11 178.717 289.707 176.136 289.707 173.192V144.2H292.715V173.192C292.715 176.52 291.99 179.443 290.539 181.96C289.131 184.435 287.126 186.376 284.523 187.784C281.921 189.192 278.891 189.896 275.435 189.896C271.894 189.896 268.779 189.213 266.091 187.848C263.446 186.44 261.377 184.499 259.883 182.024C258.433 179.507 257.707 176.584 257.707 173.256V144.2H261.867ZM257.899 144.2V148.04H257.707C257.707 147.101 257.366 146.333 256.683 145.736C256.043 145.139 255.254 144.84 254.315 144.84C254.315 144.84 254.145 144.84 253.803 144.84C253.462 144.84 253.291 144.84 253.291 144.84V144.2H257.899ZM266.283 144.2V144.84C266.283 144.84 266.113 144.84 265.771 144.84C265.43 144.84 265.259 144.84 265.259 144.84C264.321 144.84 263.51 145.139 262.827 145.736C262.187 146.333 261.867 147.101 261.867 148.04H261.739V144.2H266.283ZM289.899 144.2V148.04H289.707C289.707 147.101 289.366 146.333 288.683 145.736C288.043 145.139 287.254 144.84 286.315 144.84C286.315 144.84 286.145 144.84 285.803 144.84C285.462 144.84 285.291 144.84 285.291 144.84V144.2H289.899ZM297.131 144.2V144.84C297.131 144.84 296.961 144.84 296.619 144.84C296.278 144.84 296.107 144.84 296.107 144.84C295.169 144.84 294.358 145.139 293.675 145.736C293.035 146.333 292.715 147.101 292.715 148.04H292.587V144.2H297.131ZM306.953 143.24L344.137 182.92L344.713 189.896L307.529 150.28L306.953 143.24ZM307.081 184.456V189H301.769V188.36C301.769 188.36 301.961 188.36 302.345 188.36C302.729 188.36 302.942 188.36 302.985 188.36C304.051 188.36 304.969 187.976 305.737 187.208C306.505 186.44 306.889 185.523 306.889 184.456H307.081ZM309.833 184.456C309.833 185.523 310.217 186.44 310.985 187.208C311.753 187.976 312.67 188.36 313.737 188.36C313.779 188.36 313.993 188.36 314.377 188.36C314.761 188.36 314.953 188.36 314.953 188.36V189H309.641V184.456H309.833ZM306.953 143.24L309.769 146.824L309.833 189H306.889V151.24C306.889 149.064 306.782 147.187 306.569 145.608C306.398 144.029 306.313 143.24 306.313 143.24H306.953ZM344.713 144.2V181.704C344.713 183.069 344.755 184.392 344.841 185.672C344.926 186.909 345.011 187.933 345.097 188.744C345.225 189.512 345.289 189.896 345.289 189.896H344.713L341.833 186.504V144.2H344.713ZM349.833 144.2V144.84C349.833 144.84 349.641 144.84 349.257 144.84C348.873 144.84 348.681 144.84 348.681 144.84C347.614 144.84 346.697 145.224 345.929 145.992C345.161 146.717 344.755 147.635 344.713 148.744H344.521V144.2H349.833ZM336.649 144.2H341.961V148.744H341.833C341.79 147.635 341.385 146.717 340.617 145.992C339.891 145.224 338.974 144.84 337.865 144.84C337.865 144.84 337.673 144.84 337.289 144.84C336.905 144.84 336.691 144.84 336.649 144.84V144.2ZM364.364 144.2V189H360.204V144.2H364.364ZM360.396 184.328V189H355.276V188.36C355.276 188.36 355.404 188.36 355.66 188.36C355.959 188.36 356.108 188.36 356.108 188.36C357.218 188.36 358.156 187.976 358.924 187.208C359.735 186.397 360.162 185.437 360.204 184.328H360.396ZM360.396 148.872H360.204C360.162 147.763 359.735 146.824 358.924 146.056C358.156 145.245 357.218 144.84 356.108 144.84C356.108 144.84 355.959 144.84 355.66 144.84C355.404 144.84 355.276 144.84 355.276 144.84V144.2H360.396V148.872ZM364.172 184.328H364.364C364.407 185.437 364.812 186.397 365.58 187.208C366.391 187.976 367.351 188.36 368.46 188.36C368.46 188.36 368.588 188.36 368.844 188.36C369.1 188.36 369.25 188.36 369.292 188.36V189H364.172V184.328ZM364.172 148.872V144.2H369.292V144.84C369.25 144.84 369.1 144.84 368.844 144.84C368.588 144.84 368.46 144.84 368.46 144.84C367.351 144.84 366.391 145.245 365.58 146.056C364.812 146.824 364.407 147.763 364.364 148.872H364.172ZM394.309 144.392V189H390.149V144.392H394.309ZM410.757 144.136V146.056H373.701V144.136H410.757ZM410.757 145.864V151.048L410.117 150.984V149.896C410.117 148.829 409.733 147.933 408.965 147.208C408.24 146.483 407.365 146.099 406.341 146.056V145.864H410.757ZM410.757 142.984V144.84L402.949 144.136C403.888 144.136 404.869 144.072 405.893 143.944C406.96 143.816 407.941 143.667 408.837 143.496C409.733 143.325 410.373 143.155 410.757 142.984ZM390.341 184.328V189H385.221V188.36C385.221 188.36 385.349 188.36 385.605 188.36C385.904 188.36 386.053 188.36 386.053 188.36C387.163 188.36 388.101 187.976 388.869 187.208C389.68 186.397 390.107 185.437 390.149 184.328H390.341ZM394.117 184.328H394.309C394.352 185.437 394.757 186.397 395.525 187.208C396.336 187.976 397.296 188.36 398.405 188.36C398.405 188.36 398.533 188.36 398.789 188.36C399.088 188.36 399.237 188.36 399.237 188.36V189H394.117V184.328ZM378.117 145.864V146.056C377.051 146.099 376.155 146.483 375.429 147.208C374.704 147.933 374.341 148.829 374.341 149.896V150.984L373.701 151.048V145.864H378.117ZM373.701 142.984C374.128 143.155 374.768 143.325 375.621 143.496C376.517 143.667 377.499 143.816 378.565 143.944C379.632 144.072 380.613 144.136 381.509 144.136L373.701 144.84V142.984ZM420.944 144.264L433.488 167.624L430.736 169.864L415.44 144.264H420.944ZM434.384 168.392V189H430.224V168.392H434.384ZM445.776 144.264H449.68L433.936 169.736L431.632 169.032L445.776 144.264ZM443.152 148.808C443.536 148.211 443.642 147.613 443.472 147.016C443.301 146.376 442.981 145.864 442.512 145.48C442.042 145.053 441.509 144.84 440.912 144.84C440.912 144.84 440.784 144.84 440.528 144.84C440.272 144.84 440.144 144.84 440.144 144.84V144.2H454.352V144.84H453.456C452.133 144.84 450.896 145.224 449.744 145.992C448.592 146.76 447.674 147.635 446.992 148.616L443.152 148.808ZM423.376 148.808L418 148.616C417.402 147.635 416.528 146.76 415.376 145.992C414.224 145.224 412.965 144.84 411.6 144.84H410.704V144.2H426.448V144.84C426.448 144.84 426.298 144.84 426 144.84C425.744 144.84 425.616 144.84 425.616 144.84C424.677 144.84 423.952 145.288 423.44 146.184C422.97 147.037 422.949 147.912 423.376 148.808ZM430.352 184.328V189H425.296V188.36C425.296 188.36 425.424 188.36 425.68 188.36C425.936 188.36 426.085 188.36 426.128 188.36C427.237 188.36 428.176 187.976 428.944 187.208C429.754 186.397 430.181 185.437 430.224 184.328H430.352ZM434.192 184.328H434.384C434.384 185.437 434.789 186.397 435.6 187.208C436.41 187.976 437.37 188.36 438.48 188.36C438.48 188.36 438.608 188.36 438.864 188.36C439.12 188.36 439.248 188.36 439.248 188.36V189H434.192V184.328ZM490.264 144.392V189H486.104V144.392H490.264ZM506.712 144.136V146.056H469.656V144.136H506.712ZM506.712 145.864V151.048L506.072 150.984V149.896C506.072 148.829 505.688 147.933 504.92 147.208C504.195 146.483 503.32 146.099 502.296 146.056V145.864H506.712ZM506.712 142.984V144.84L498.904 144.136C499.843 144.136 500.824 144.072 501.848 143.944C502.915 143.816 503.896 143.667 504.792 143.496C505.688 143.325 506.328 143.155 506.712 142.984ZM486.296 184.328V189H481.176V188.36C481.176 188.36 481.304 188.36 481.56 188.36C481.859 188.36 482.008 188.36 482.008 188.36C483.118 188.36 484.056 187.976 484.824 187.208C485.635 186.397 486.062 185.437 486.104 184.328H486.296ZM490.072 184.328H490.264C490.307 185.437 490.712 186.397 491.48 187.208C492.291 187.976 493.251 188.36 494.36 188.36C494.36 188.36 494.488 188.36 494.744 188.36C495.043 188.36 495.192 188.36 495.192 188.36V189H490.072V184.328ZM474.072 145.864V146.056C473.006 146.099 472.11 146.483 471.384 147.208C470.659 147.933 470.296 148.829 470.296 149.896V150.984L469.656 151.048V145.864H474.072ZM469.656 142.984C470.083 143.155 470.723 143.325 471.576 143.496C472.472 143.667 473.454 143.816 474.52 143.944C475.587 144.072 476.568 144.136 477.464 144.136L469.656 144.84V142.984ZM533.13 143.304C537.695 143.304 541.706 144.285 545.162 146.248C548.618 148.168 551.306 150.877 553.226 154.376C555.188 157.875 556.17 161.949 556.17 166.6C556.17 171.251 555.188 175.325 553.226 178.824C551.306 182.323 548.618 185.053 545.162 187.016C541.706 188.936 537.695 189.896 533.13 189.896C528.607 189.896 524.618 188.936 521.162 187.016C517.706 185.053 514.996 182.323 513.034 178.824C511.114 175.325 510.154 171.251 510.154 166.6C510.154 161.949 511.114 157.875 513.034 154.376C514.996 150.877 517.706 148.168 521.162 146.248C524.618 144.285 528.607 143.304 533.13 143.304ZM533.13 187.976C536.756 187.976 539.914 187.08 542.602 185.288C545.332 183.496 547.444 181 548.938 177.8C550.474 174.6 551.242 170.867 551.242 166.6C551.242 162.333 550.474 158.6 548.938 155.4C547.444 152.2 545.332 149.704 542.602 147.912C539.914 146.12 536.756 145.224 533.13 145.224C529.546 145.224 526.388 146.12 523.658 147.912C520.97 149.704 518.858 152.2 517.322 155.4C515.828 158.6 515.082 162.333 515.082 166.6C515.082 170.867 515.828 174.6 517.322 177.8C518.858 181 520.97 183.496 523.658 185.288C526.388 187.08 529.546 187.976 533.13 187.976ZM569.497 144.2V172.36C569.497 175.432 570.052 178.141 571.161 180.488C572.313 182.835 573.913 184.669 575.961 185.992C578.009 187.272 580.377 187.912 583.065 187.912C585.924 187.912 588.42 187.293 590.553 186.056C592.687 184.819 594.351 183.112 595.545 180.936C596.74 178.717 597.337 176.136 597.337 173.192V144.2H600.345V173.192C600.345 176.52 599.62 179.443 598.169 181.96C596.761 184.435 594.756 186.376 592.153 187.784C589.551 189.192 586.521 189.896 583.065 189.896C579.524 189.896 576.409 189.213 573.721 187.848C571.076 186.44 569.007 184.499 567.513 182.024C566.063 179.507 565.337 176.584 565.337 173.256V144.2H569.497ZM565.529 144.2V148.04H565.337C565.337 147.101 564.996 146.333 564.313 145.736C563.673 145.139 562.884 144.84 561.945 144.84C561.945 144.84 561.775 144.84 561.433 144.84C561.092 144.84 560.921 144.84 560.921 144.84V144.2H565.529ZM573.913 144.2V144.84C573.913 144.84 573.743 144.84 573.401 144.84C573.06 144.84 572.889 144.84 572.889 144.84C571.951 144.84 571.14 145.139 570.457 145.736C569.817 146.333 569.497 147.101 569.497 148.04H569.369V144.2H573.913ZM597.529 144.2V148.04H597.337C597.337 147.101 596.996 146.333 596.313 145.736C595.673 145.139 594.884 144.84 593.945 144.84C593.945 144.84 593.775 144.84 593.433 144.84C593.092 144.84 592.921 144.84 592.921 144.84V144.2H597.529ZM604.761 144.2V144.84C604.761 144.84 604.591 144.84 604.249 144.84C603.908 144.84 603.737 144.84 603.737 144.84C602.799 144.84 601.988 145.139 601.305 145.736C600.665 146.333 600.345 147.101 600.345 148.04H600.217V144.2H604.761ZM618.615 144.2H627.639C629.559 144.2 631.287 144.477 632.823 145.032C634.401 145.587 635.724 146.397 636.791 147.464C637.857 148.488 638.668 149.747 639.223 151.24C639.82 152.691 640.119 154.355 640.119 156.232C640.119 158.28 639.628 160.243 638.647 162.12C637.708 163.997 636.407 165.533 634.743 166.728C633.121 167.88 631.287 168.456 629.239 168.456C629.964 168.755 630.753 169.373 631.607 170.312C632.46 171.208 633.207 172.083 633.847 172.936C633.847 172.936 634.124 173.363 634.679 174.216C635.276 175.027 636.001 176.029 636.855 177.224C637.751 178.419 638.647 179.592 639.543 180.744C640.439 181.896 641.207 182.813 641.847 183.496C642.7 184.435 643.553 185.267 644.407 185.992C645.26 186.717 646.177 187.293 647.159 187.72C648.183 188.147 649.313 188.36 650.551 188.36V189H647.031C645.068 189 643.361 188.701 641.911 188.104C640.503 187.507 639.308 186.781 638.327 185.928C637.345 185.032 636.513 184.179 635.831 183.368C635.703 183.197 635.34 182.707 634.743 181.896C634.188 181.085 633.505 180.125 632.695 179.016C631.927 177.864 631.159 176.733 630.391 175.624C629.623 174.515 628.961 173.576 628.407 172.808C627.852 171.997 627.532 171.528 627.447 171.4C626.636 170.333 625.74 169.352 624.759 168.456C623.777 167.56 622.711 167.112 621.559 167.112V166.472C621.559 166.472 621.879 166.493 622.519 166.536C623.201 166.536 624.012 166.515 624.951 166.472C626.06 166.429 627.276 166.259 628.599 165.96C629.921 165.661 631.159 165.043 632.311 164.104C633.463 163.165 634.337 161.736 634.935 159.816C635.063 159.347 635.169 158.771 635.255 158.088C635.34 157.363 635.361 156.659 635.319 155.976C635.276 153.075 634.529 150.771 633.079 149.064C631.671 147.315 629.772 146.376 627.383 146.248C626.188 146.163 624.951 146.141 623.671 146.184C622.433 146.184 621.388 146.184 620.535 146.184C619.681 146.184 619.255 146.184 619.255 146.184C619.255 146.141 619.191 145.971 619.063 145.672C618.977 145.331 618.871 145.011 618.743 144.712C618.657 144.371 618.615 144.2 618.615 144.2ZM619.447 144.2V189H615.287V144.2H619.447ZM615.479 184.328V189H610.359V188.36C610.359 188.36 610.487 188.36 610.743 188.36C611.041 188.36 611.191 188.36 611.191 188.36C612.3 188.36 613.239 187.976 614.007 187.208C614.817 186.397 615.244 185.437 615.287 184.328H615.479ZM615.479 148.872H615.287C615.244 147.763 614.817 146.824 614.007 146.056C613.239 145.245 612.3 144.84 611.191 144.84C611.191 144.84 611.041 144.84 610.743 144.84C610.487 144.84 610.359 144.84 610.359 144.84V144.2H615.479V148.872ZM619.255 184.328H619.447C619.447 185.437 619.852 186.397 620.663 187.208C621.473 187.976 622.433 188.36 623.543 188.36C623.543 188.36 623.671 188.36 623.927 188.36C624.183 188.36 624.311 188.36 624.311 188.36V189H619.255V184.328ZM660.182 144.2V189H656.022V144.2H660.182ZM656.214 184.328V189H651.094V188.36C651.094 188.36 651.222 188.36 651.478 188.36C651.776 188.36 651.926 188.36 651.926 188.36C653.035 188.36 653.974 187.976 654.742 187.208C655.552 186.397 655.979 185.437 656.022 184.328H656.214ZM656.214 148.872H656.022C655.979 147.763 655.552 146.824 654.742 146.056C653.974 145.245 653.035 144.84 651.926 144.84C651.926 144.84 651.776 144.84 651.478 144.84C651.222 144.84 651.094 144.84 651.094 144.84V144.2H656.214V148.872ZM659.99 184.328H660.182C660.224 185.437 660.63 186.397 661.398 187.208C662.208 187.976 663.168 188.36 664.278 188.36C664.278 188.36 664.406 188.36 664.662 188.36C664.918 188.36 665.067 188.36 665.11 188.36V189H659.99V184.328ZM659.99 148.872V144.2H665.11V144.84C665.067 144.84 664.918 144.84 664.662 144.84C664.406 144.84 664.278 144.84 664.278 144.84C663.168 144.84 662.208 145.245 661.398 146.056C660.63 146.824 660.224 147.763 660.182 148.872H659.99ZM684.303 143.304C684.985 143.304 685.711 143.347 686.479 143.432C687.289 143.517 688.057 143.645 688.783 143.816C689.551 143.944 690.233 144.093 690.831 144.264C691.471 144.392 691.961 144.541 692.303 144.712V151.816H691.727C691.727 149.768 691.023 148.168 689.615 147.016C688.207 145.821 686.5 145.224 684.495 145.224C682.148 145.224 680.249 145.971 678.799 147.464C677.348 148.915 676.623 150.621 676.623 152.584C676.623 153.395 676.793 154.355 677.135 155.464C677.519 156.531 678.201 157.533 679.183 158.472L691.791 170.12C693.071 171.315 693.924 172.595 694.351 173.96C694.777 175.325 694.991 176.648 694.991 177.928C694.991 181.469 693.903 184.349 691.727 186.568C689.593 188.787 686.692 189.896 683.023 189.896C681.999 189.896 680.783 189.789 679.375 189.576C678.009 189.363 676.665 189 675.343 188.488C674.063 187.933 672.996 187.229 672.143 186.376C672.015 185.693 671.951 184.84 671.951 183.816C671.951 182.792 672.036 181.725 672.207 180.616C672.377 179.464 672.612 178.419 672.911 177.48H673.487C673.273 179.656 673.551 181.555 674.319 183.176C675.087 184.797 676.196 186.035 677.647 186.888C679.14 187.699 680.825 188.061 682.703 187.976C685.049 187.848 687.055 187.037 688.719 185.544C690.425 184.008 691.279 181.96 691.279 179.4C691.279 178.163 691.065 177.053 690.639 176.072C690.212 175.048 689.593 174.173 688.783 173.448L676.495 162.056C675.215 160.861 674.319 159.56 673.807 158.152C673.295 156.701 673.039 155.357 673.039 154.12C673.039 152.328 673.465 150.6 674.319 148.936C675.172 147.272 676.431 145.928 678.095 144.904C679.801 143.837 681.871 143.304 684.303 143.304ZM692.303 143.944V145.288H687.439V143.944H692.303ZM745.398 143.304L745.91 147.592L729.846 183.368C729.846 183.368 729.675 183.731 729.334 184.456C729.035 185.181 728.715 186.056 728.374 187.08C728.032 188.061 727.798 189 727.67 189.896H727.03L726.134 185.864L745.398 143.304ZM706.038 184.328V189H698.934V188.36C698.976 188.36 699.147 188.36 699.446 188.36C699.787 188.36 699.958 188.36 699.958 188.36C701.11 188.36 702.134 188.019 703.03 187.336C703.926 186.611 704.459 185.608 704.63 184.328H706.038ZM707.894 185.352C707.894 185.395 707.894 185.437 707.894 185.48C707.894 185.523 707.894 185.587 707.894 185.672C707.894 186.355 708.128 186.995 708.598 187.592C709.11 188.147 709.707 188.424 710.39 188.424H711.35V189H707.446V185.352H707.894ZM709.43 143.304H710.07L711.35 147.08L707.574 189H704.118L709.43 143.304ZM710.07 143.304L728.502 183.176L727.03 189.896L708.854 150.472L710.07 143.304ZM745.974 143.304L751.478 189H746.486L742.966 150.216L745.398 143.304H745.974ZM749.558 184.328H750.902C751.115 185.608 751.67 186.611 752.566 187.336C753.462 188.019 754.464 188.36 755.574 188.36C755.574 188.36 755.744 188.36 756.086 188.36C756.427 188.36 756.598 188.36 756.598 188.36V189H749.558V184.328ZM746.166 185.352H746.614V189H742.71V188.424H743.67C744.395 188.424 744.992 188.147 745.462 187.592C745.931 186.995 746.166 186.355 746.166 185.672C746.166 185.587 746.166 185.523 746.166 185.48C746.166 185.437 746.166 185.395 746.166 185.352Z" fill="#F0FAFD"/>
</svg>
