<svg width="665" height="115" viewBox="0 0 665 115" fill="none" xmlns="http://www.w3.org/2000/svg">
<path d="M28.178 98.23C28.178 101.743 28.518 104.293 29.198 105.88C29.878 107.467 31.1814 108.543 33.108 109.11C35.0347 109.677 38.0947 109.96 42.288 109.96C42.5147 109.96 42.628 110.3 42.628 110.98C42.628 111.66 42.5147 112 42.288 112C38.7747 112 35.998 111.943 33.958 111.83L21.718 111.66L9.98805 111.83C7.83471 111.943 4.94471 112 1.31805 112C0.978047 112 0.808047 111.66 0.808047 110.98C0.808047 110.3 0.978047 109.96 1.31805 109.96C5.51138 109.96 8.57138 109.677 10.498 109.11C12.4247 108.543 13.728 107.467 14.408 105.88C15.2014 104.18 15.598 101.63 15.598 98.23V19.52C15.598 16.12 15.2014 13.6267 14.408 12.04C13.728 10.4533 12.4247 9.37666 10.498 8.80999C8.57138 8.12999 5.51138 7.78999 1.31805 7.78999C0.978047 7.78999 0.808047 7.45 0.808047 6.77C0.808047 6.09 0.978047 5.75 1.31805 5.75L9.98805 5.92C14.748 6.14666 18.658 6.25999 21.718 6.25999C25.0047 6.25999 29.1414 6.14666 34.128 5.92L42.288 5.75C42.5147 5.75 42.628 6.09 42.628 6.77C42.628 7.45 42.5147 7.78999 42.288 7.78999C38.208 7.78999 35.148 8.12999 33.108 8.80999C31.1814 9.49 29.878 10.68 29.198 12.38C28.518 13.9667 28.178 16.46 28.178 19.86V98.23ZM167.065 109.96C167.405 109.96 167.575 110.3 167.575 110.98C167.575 111.66 167.405 112 167.065 112H143.775C141.055 112 135.899 107.41 128.305 98.23C120.825 88.9367 111.645 76.0167 100.765 59.47C97.7054 60.0367 94.8721 60.32 92.2654 60.32C91.6987 60.32 89.0354 60.15 84.2754 59.81V98.23C84.2754 101.743 84.6154 104.293 85.2954 105.88C85.9754 107.467 87.2787 108.543 89.2054 109.11C91.1321 109.677 94.1921 109.96 98.3854 109.96C98.7254 109.96 98.8954 110.3 98.8954 110.98C98.8954 111.66 98.7254 112 98.3854 112C94.7587 112 91.9821 111.943 90.0554 111.83L77.9854 111.66L66.2554 111.83C64.1021 111.943 61.2121 112 57.5854 112C57.3587 112 57.2454 111.66 57.2454 110.98C57.2454 110.3 57.3587 109.96 57.5854 109.96C61.7787 109.96 64.8387 109.677 66.7654 109.11C68.6921 108.543 69.9954 107.467 70.6754 105.88C71.4687 104.18 71.8654 101.63 71.8654 98.23V19.52C71.8654 16.12 71.5254 13.6267 70.8454 12.04C70.1654 10.4533 68.8621 9.37666 66.9354 8.80999C65.0087 8.12999 62.0054 7.78999 57.9254 7.78999C57.5854 7.78999 57.4154 7.45 57.4154 6.77C57.4154 6.09 57.5854 5.75 57.9254 5.75L66.2554 5.92C71.0154 6.14666 74.9254 6.25999 77.9854 6.25999C80.3654 6.25999 82.6321 6.20333 84.7854 6.09C86.9387 5.97666 88.8087 5.86333 90.3954 5.75C94.5887 5.41 98.4987 5.24 102.125 5.24C111.192 5.24 118.219 7.28 123.205 11.36C128.305 15.3267 130.855 20.71 130.855 27.51C130.855 33.63 129.042 39.1833 125.415 44.17C121.902 49.1567 117.199 53.0667 111.305 55.9C120.825 69.6133 128.759 80.3233 135.105 88.03C141.565 95.7367 147.289 101.347 152.275 104.86C157.375 108.26 162.305 109.96 167.065 109.96ZM84.2754 55.73C87.4487 56.07 90.7921 56.24 94.3054 56.24C102.805 56.24 108.869 54.37 112.495 50.63C116.122 46.7767 117.935 40.8267 117.935 32.78C117.935 23.8267 116.065 17.48 112.325 13.74C108.585 9.88666 103.202 7.95999 96.1754 7.95999C91.7554 7.95999 88.6387 8.80999 86.8254 10.51C85.1254 12.0967 84.2754 15.2133 84.2754 19.86V55.73ZM284.83 109.96C285.284 109.96 285.51 110.3 285.51 110.98C285.51 111.66 285.284 112 284.83 112C282.677 112 279.334 111.887 274.8 111.66C270.267 111.433 266.924 111.32 264.77 111.32C262.164 111.32 258.934 111.433 255.08 111.66C251.454 111.887 248.62 112 246.58 112C246.127 112 245.9 111.66 245.9 110.98C245.9 110.3 246.127 109.96 246.58 109.96C250.66 109.96 253.55 109.62 255.25 108.94C257.064 108.147 257.97 106.787 257.97 104.86C257.97 103.16 257.177 100.61 255.59 97.21L240.97 66.61H200.34L190.31 89.9C188.837 93.3 188.1 96.4167 188.1 99.25C188.1 106.39 193.597 109.96 204.59 109.96C205.157 109.96 205.44 110.3 205.44 110.98C205.44 111.66 205.157 112 204.59 112C202.55 112 199.604 111.887 195.75 111.66C191.444 111.433 187.704 111.32 184.53 111.32C181.697 111.32 178.24 111.433 174.16 111.66C170.76 111.887 167.87 112 165.49 112C164.924 112 164.64 111.66 164.64 110.98C164.64 110.3 164.924 109.96 165.49 109.96C168.664 109.96 171.327 109.393 173.48 108.26C175.747 107.013 177.9 104.86 179.94 101.8C181.98 98.74 184.247 94.2633 186.74 88.37L222.61 4.39C222.837 4.04999 223.29 3.87999 223.97 3.87999C224.65 3.87999 225.047 4.04999 225.16 4.39L265.62 88.71C269.474 96.9833 272.76 102.593 275.48 105.54C278.2 108.487 281.317 109.96 284.83 109.96ZM201.87 63.04H239.27L219.55 21.9L201.87 63.04ZM342.478 52.16C351.544 52.9533 358.798 56.0133 364.238 61.34C369.791 66.5533 372.567 73.0133 372.567 80.72C372.567 86.7267 371.038 92.1667 367.978 97.04C364.918 101.913 360.724 105.767 355.398 108.6C350.184 111.32 344.291 112.68 337.718 112.68C334.091 112.68 330.124 112.51 325.818 112.17C324.231 112.057 322.361 111.943 320.208 111.83C318.054 111.717 315.618 111.66 312.898 111.66L301.168 111.83C299.014 111.943 296.124 112 292.498 112C292.271 112 292.158 111.66 292.158 110.98C292.158 110.3 292.271 109.96 292.498 109.96C296.578 109.96 299.581 109.677 301.508 109.11C303.548 108.43 304.908 107.297 305.588 105.71C306.381 104.123 306.778 101.63 306.778 98.23V19.52C306.778 16.12 306.438 13.6267 305.758 12.04C305.078 10.4533 303.774 9.37666 301.848 8.80999C299.921 8.12999 296.918 7.78999 292.838 7.78999C292.498 7.78999 292.328 7.45 292.328 6.77C292.328 6.09 292.498 5.75 292.838 5.75L301.168 5.92C305.928 6.14666 309.838 6.25999 312.898 6.25999C314.938 6.25999 316.808 6.20333 318.508 6.09C320.321 5.97666 321.851 5.86333 323.098 5.75C326.611 5.41 329.954 5.24 333.128 5.24C342.874 5.24 350.184 7.28 355.058 11.36C359.931 15.44 362.368 20.88 362.368 27.68C362.368 33.12 360.611 37.9933 357.098 42.3C353.584 46.4933 348.711 49.78 342.478 52.16ZM329.728 7.95999C326.894 7.95999 324.741 8.24332 323.268 8.80999C321.908 9.26333 320.888 10.34 320.208 12.04C319.528 13.74 319.188 16.3467 319.188 19.86V52.16L326.838 52.33C334.658 52.33 340.438 50.1767 344.178 45.87C348.031 41.5633 349.958 35.8967 349.958 28.87C349.958 22.5233 348.314 17.48 345.028 13.74C341.741 9.88666 336.641 7.95999 329.728 7.95999ZM335.167 109.45C343.328 109.45 349.391 107.353 353.358 103.16C357.324 98.8533 359.308 92.79 359.308 84.97C359.308 76.3567 356.814 69.4433 351.828 64.23C346.954 58.9033 340.154 56.1833 331.428 56.07C328.254 55.9567 324.174 56.07 319.188 56.41V98.23C319.188 101.063 319.584 103.273 320.378 104.86C321.284 106.447 322.871 107.637 325.138 108.43C327.404 109.11 330.748 109.45 335.167 109.45ZM443.531 114.04C432.991 114.04 423.584 111.603 415.311 106.73C407.151 101.743 400.804 95.0567 396.271 86.67C391.851 78.17 389.641 68.9333 389.641 58.96C389.641 47.2867 392.587 37.3133 398.481 29.04C404.374 20.6533 411.911 14.3633 421.091 10.17C430.384 5.97666 439.847 3.87999 449.481 3.87999C460.247 3.87999 469.711 6.42999 477.871 11.53C486.031 16.5167 492.264 23.1467 496.571 31.42C500.991 39.6933 503.201 48.4767 503.201 57.77C503.201 68.0833 500.481 77.5467 495.041 86.16C489.601 94.7733 482.291 101.573 473.111 106.56C464.044 111.547 454.184 114.04 443.531 114.04ZM449.481 110.3C456.961 110.3 463.647 108.43 469.541 104.69C475.547 100.95 480.251 95.51 483.651 88.37C487.164 81.1167 488.921 72.5033 488.921 62.53C488.921 51.99 486.994 42.5833 483.141 34.31C479.401 26.0367 474.017 19.5767 466.991 14.93C459.964 10.2833 451.804 7.95999 442.511 7.95999C430.384 7.95999 420.921 11.9833 414.121 20.03C407.321 27.9633 403.921 38.9567 403.921 53.01C403.921 63.6633 405.847 73.3533 409.701 82.08C413.554 90.8067 418.937 97.72 425.851 102.82C432.764 107.807 440.641 110.3 449.481 110.3ZM540.628 8.98C533.602 8.98 528.162 10.9067 524.308 14.76C520.568 18.5 517.848 24.6767 516.148 33.29C516.035 33.63 515.638 33.8 514.958 33.8C514.392 33.6867 514.108 33.5167 514.108 33.29C514.562 30.1167 515.072 25.0167 515.638 17.99C516.205 10.9633 516.488 5.63666 516.488 2.01C516.488 1.44333 516.828 1.16 517.508 1.16C518.188 1.16 518.528 1.44333 518.528 2.01C518.528 4.50333 521.588 5.75 527.708 5.75C537.455 6.09 548.845 6.25999 561.878 6.25999C568.565 6.25999 575.648 6.14666 583.128 5.92L594.688 5.75C598.768 5.75 601.772 5.46666 603.698 4.89999C605.738 4.33332 607.042 3.19999 607.608 1.49999C607.722 1.04666 608.062 0.819993 608.628 0.819993C609.195 0.819993 609.478 1.04666 609.478 1.49999C609.138 4.78666 608.798 9.88666 608.458 16.8C608.118 23.6 607.948 29.0967 607.948 33.29C607.948 33.5167 607.608 33.63 606.928 33.63C606.362 33.63 606.022 33.5167 605.908 33.29C605.455 24.5633 603.415 18.33 599.788 14.59C596.275 10.85 590.778 8.98 583.298 8.98C578.765 8.98 575.478 9.20666 573.438 9.65999C571.512 10.1133 570.152 11.0767 569.358 12.55C568.678 14.0233 568.338 16.46 568.338 19.86V98.23C568.338 101.743 568.678 104.293 569.358 105.88C570.152 107.467 571.625 108.543 573.778 109.11C576.045 109.677 579.615 109.96 584.488 109.96C584.715 109.96 584.828 110.3 584.828 110.98C584.828 111.66 584.715 112 584.488 112C580.635 112 577.575 111.943 575.308 111.83L561.878 111.66L548.958 111.83C546.692 111.943 543.518 112 539.438 112C539.212 112 539.098 111.66 539.098 110.98C539.098 110.3 539.212 109.96 539.438 109.96C544.198 109.96 547.712 109.677 549.978 109.11C552.245 108.543 553.775 107.467 554.568 105.88C555.362 104.18 555.758 101.63 555.758 98.23V19.52C555.758 16.2333 555.362 13.91 554.568 12.55C553.888 11.0767 552.528 10.1133 550.488 9.65999C548.562 9.20666 545.275 8.98 540.628 8.98ZM650.405 98.23C650.405 101.743 650.745 104.293 651.425 105.88C652.105 107.467 653.408 108.543 655.335 109.11C657.261 109.677 660.321 109.96 664.515 109.96C664.741 109.96 664.855 110.3 664.855 110.98C664.855 111.66 664.741 112 664.515 112C661.001 112 658.225 111.943 656.185 111.83L643.945 111.66L632.215 111.83C630.061 111.943 627.171 112 623.545 112C623.205 112 623.035 111.66 623.035 110.98C623.035 110.3 623.205 109.96 623.545 109.96C627.738 109.96 630.798 109.677 632.725 109.11C634.651 108.543 635.955 107.467 636.635 105.88C637.428 104.18 637.825 101.63 637.825 98.23V19.52C637.825 16.12 637.428 13.6267 636.635 12.04C635.955 10.4533 634.651 9.37666 632.725 8.80999C630.798 8.12999 627.738 7.78999 623.545 7.78999C623.205 7.78999 623.035 7.45 623.035 6.77C623.035 6.09 623.205 5.75 623.545 5.75L632.215 5.92C636.975 6.14666 640.885 6.25999 643.945 6.25999C647.231 6.25999 651.368 6.14666 656.355 5.92L664.515 5.75C664.741 5.75 664.855 6.09 664.855 6.77C664.855 7.45 664.741 7.78999 664.515 7.78999C660.435 7.78999 657.375 8.12999 655.335 8.80999C653.408 9.49 652.105 10.68 651.425 12.38C650.745 13.9667 650.405 16.46 650.405 19.86V98.23Z" fill="#EDF5F3"/>
</svg>
